<svg xmlns:xlink="http://www.w3.org/1999/xlink" version="1.1" class="highcharts-root" style="font-family:&quot;Lucida Grande&quot;, &quot;Lucida Sans Unicode&quot;, Arial, Helvetica, sans-serif;font-size:12px;" xmlns="http://www.w3.org/2000/svg" width="960" height="540" viewBox="0 0 960 540"><desc>Created with Highcharts 7.0.2</desc><defs><clipPath id="highcharts-qqf7s0o-1922"><rect x="0" y="0" width="876" height="389" fill="none"></rect></clipPath></defs><rect fill="#ffffff" class="highcharts-background" x="0" y="0" width="960" height="540" rx="0" ry="0"></rect><rect fill="none" class="highcharts-plot-background" x="74" y="57" width="876" height="389"></rect><g class="highcharts-pane-group" data-z-index="0"></g><g class="highcharts-grid highcharts-xaxis-grid " data-z-index="1"><path fill="none" stroke-dasharray="none" data-z-index="1" class="highcharts-grid-line" d="M 82.5 57 L 82.5 446" opacity="1"></path><path fill="none" stroke-dasharray="none" data-z-index="1" class="highcharts-grid-line" d="M 172.5 57 L 172.5 446" opacity="1"></path><path fill="none" stroke-dasharray="none" data-z-index="1" class="highcharts-grid-line" d="M 262.5 57 L 262.5 446" opacity="1"></path><path fill="none" stroke-dasharray="none" data-z-index="1" class="highcharts-grid-line" d="M 353.5 57 L 353.5 446" opacity="1"></path><path fill="none" stroke-dasharray="none" data-z-index="1" class="highcharts-grid-line" d="M 443.5 57 L 443.5 446" opacity="1"></path><path fill="none" stroke-dasharray="none" data-z-index="1" class="highcharts-grid-line" d="M 534.5 57 L 534.5 446" opacity="1"></path><path fill="none" stroke-dasharray="none" data-z-index="1" class="highcharts-grid-line" d="M 624.5 57 L 624.5 446" opacity="1"></path><path fill="none" stroke-dasharray="none" data-z-index="1" class="highcharts-grid-line" d="M 714.5 57 L 714.5 446" opacity="1"></path><path fill="none" stroke-dasharray="none" data-z-index="1" class="highcharts-grid-line" d="M 805.5 57 L 805.5 446" opacity="1"></path><path fill="none" stroke-dasharray="none" data-z-index="1" class="highcharts-grid-line" d="M 895.5 57 L 895.5 446" opacity="1"></path></g><g class="highcharts-grid highcharts-yaxis-grid " data-z-index="1"><path fill="none" stroke="#e6e6e6" stroke-width="1" stroke-dasharray="none" data-z-index="1" class="highcharts-grid-line" d="M 74 446.5 L 950 446.5" opacity="1"></path><path fill="none" stroke="#e6e6e6" stroke-width="1" stroke-dasharray="none" data-z-index="1" class="highcharts-grid-line" d="M 74 381.5 L 950 381.5" opacity="1"></path><path fill="none" stroke="#e6e6e6" stroke-width="1" stroke-dasharray="none" data-z-index="1" class="highcharts-grid-line" d="M 74 316.5 L 950 316.5" opacity="1"></path><path fill="none" stroke="#e6e6e6" stroke-width="1" stroke-dasharray="none" data-z-index="1" class="highcharts-grid-line" d="M 74 252.5 L 950 252.5" opacity="1"></path><path fill="none" stroke="#e6e6e6" stroke-width="1" stroke-dasharray="none" data-z-index="1" class="highcharts-grid-line" d="M 74 187.5 L 950 187.5" opacity="1"></path><path fill="none" stroke="#e6e6e6" stroke-width="1" stroke-dasharray="none" data-z-index="1" class="highcharts-grid-line" d="M 74 122.5 L 950 122.5" opacity="1"></path><path fill="none" stroke="#e6e6e6" stroke-width="1" stroke-dasharray="none" data-z-index="1" class="highcharts-grid-line" d="M 74 56.5 L 950 56.5" opacity="1"></path></g><rect fill="none" class="highcharts-plot-border" data-z-index="1" x="74" y="57" width="876" height="389"></rect><g class="highcharts-axis highcharts-xaxis " data-z-index="2"><path fill="none" class="highcharts-tick" stroke="#ccd6eb" stroke-width="1" d="M 82.5 446 L 82.5 456" opacity="1"></path><path fill="none" class="highcharts-tick" stroke="#ccd6eb" stroke-width="1" d="M 172.5 446 L 172.5 456" opacity="1"></path><path fill="none" class="highcharts-tick" stroke="#ccd6eb" stroke-width="1" d="M 262.5 446 L 262.5 456" opacity="1"></path><path fill="none" class="highcharts-tick" stroke="#ccd6eb" stroke-width="1" d="M 353.5 446 L 353.5 456" opacity="1"></path><path fill="none" class="highcharts-tick" stroke="#ccd6eb" stroke-width="1" d="M 443.5 446 L 443.5 456" opacity="1"></path><path fill="none" class="highcharts-tick" stroke="#ccd6eb" stroke-width="1" d="M 534.5 446 L 534.5 456" opacity="1"></path><path fill="none" class="highcharts-tick" stroke="#ccd6eb" stroke-width="1" d="M 624.5 446 L 624.5 456" opacity="1"></path><path fill="none" class="highcharts-tick" stroke="#ccd6eb" stroke-width="1" d="M 714.5 446 L 714.5 456" opacity="1"></path><path fill="none" class="highcharts-tick" stroke="#ccd6eb" stroke-width="1" d="M 805.5 446 L 805.5 456" opacity="1"></path><path fill="none" class="highcharts-tick" stroke="#ccd6eb" stroke-width="1" d="M 895.5 446 L 895.5 456" opacity="1"></path><text x="512" data-z-index="7" text-anchor="middle" transform="translate(0,0)" class="highcharts-axis-title" style="color:#666666;font-weight:normal;fill:#666666;" y="484"><tspan>Xsize</tspan></text><path fill="none" class="highcharts-axis-line" stroke="#ccd6eb" stroke-width="1" data-z-index="7" d="M 74 446.5 L 950 446.5"></path></g><g class="highcharts-axis highcharts-yaxis " data-z-index="2"><text x="24.65625" data-z-index="7" text-anchor="middle" transform="translate(0,0) rotate(270 24.65625 251.5)" class="highcharts-axis-title" style="color:#666666;font-weight:normal;fill:#666666;" y="251.5"><tspan>r_exec_time</tspan></text><path fill="none" class="highcharts-axis-line" data-z-index="7" d="M 74 57 L 74 446"></path></g><g class="highcharts-series-group" data-z-index="3"><g data-z-index="0.1" class="highcharts-series highcharts-series-0 highcharts-scatter-series " transform="translate(74,57) scale(1 1)" clip-path="url(#highcharts-qqf7s0o-1922)"></g><g data-z-index="0.1" class="highcharts-markers highcharts-series-0 highcharts-scatter-series " transform="translate(74,57) scale(1 1)" clip-path="none"><path fill="#7cb5ec" d="M 12 386 A 4 4 0 1 1 11.999998000000167 385.99600000066664 Z" class="highcharts-point"></path><path fill="#7cb5ec" d="M 12 388 A 4 4 0 1 1 11.999998000000167 387.99600000066664 Z" class="highcharts-point"></path><path fill="#7cb5ec" d="M 12 387 A 4 4 0 1 1 11.999998000000167 386.99600000066664 Z" class="highcharts-point"></path><path fill="#7cb5ec" d="M 12 388 A 4 4 0 1 1 11.999998000000167 387.99600000066664 Z" class="highcharts-point"></path><path fill="#7cb5ec" d="M 12 387 A 4 4 0 1 1 11.999998000000167 386.99600000066664 Z" class="highcharts-point"></path><path fill="#7cb5ec" d="M 12 386 A 4 4 0 1 1 11.999998000000167 385.99600000066664 Z" class="highcharts-point"></path><path fill="#7cb5ec" d="M 12 388 A 4 4 0 1 1 11.999998000000167 387.99600000066664 Z" class="highcharts-point"></path><path fill="#7cb5ec" d="M 12 388 A 4 4 0 1 1 11.999998000000167 387.99600000066664 Z" class="highcharts-point"></path><path fill="#7cb5ec" d="M 12 383 A 4 4 0 1 1 11.999998000000167 382.99600000066664 Z" class="highcharts-point"></path><path fill="#7cb5ec" d="M 12 387 A 4 4 0 1 1 11.999998000000167 386.99600000066664 Z" class="highcharts-point"></path><path fill="#7cb5ec" d="M 13 388 A 4 4 0 1 1 12.999998000000167 387.99600000066664 Z" class="highcharts-point"></path><path fill="#7cb5ec" d="M 13 386 A 4 4 0 1 1 12.999998000000167 385.99600000066664 Z" class="highcharts-point"></path><path fill="#7cb5ec" d="M 13 387 A 4 4 0 1 1 12.999998000000167 386.99600000066664 Z" class="highcharts-point"></path><path fill="#7cb5ec" d="M 13 388 A 4 4 0 1 1 12.999998000000167 387.99600000066664 Z" class="highcharts-point"></path><path fill="#7cb5ec" d="M 13 388 A 4 4 0 1 1 12.999998000000167 387.99600000066664 Z" class="highcharts-point"></path><path fill="#7cb5ec" d="M 13 386 A 4 4 0 1 1 12.999998000000167 385.99600000066664 Z" class="highcharts-point"></path><path fill="#7cb5ec" d="M 13 387 A 4 4 0 1 1 12.999998000000167 386.99600000066664 Z" class="highcharts-point"></path><path fill="#7cb5ec" d="M 13 388 A 4 4 0 1 1 12.999998000000167 387.99600000066664 Z" class="highcharts-point"></path><path fill="#7cb5ec" d="M 13 385 A 4 4 0 1 1 12.999998000000167 384.99600000066664 Z" class="highcharts-point"></path><path fill="#7cb5ec" d="M 13 388 A 4 4 0 1 1 12.999998000000167 387.99600000066664 Z" class="highcharts-point"></path><path fill="#7cb5ec" d="M 57 374 A 4 4 0 1 1 56.99999800000017 373.99600000066664 Z" class="highcharts-point"></path><path fill="#7cb5ec" d="M 102 359 A 4 4 0 1 1 101.99999800000016 358.99600000066664 Z" class="highcharts-point"></path><path fill="#7cb5ec" d="M 148 343 A 4 4 0 1 1 147.99999800000018 342.99600000066664 Z" class="highcharts-point"></path><path fill="#7cb5ec" d="M 193 298 A 4 4 0 1 1 192.99999800000018 297.99600000066664 Z" class="highcharts-point"></path><path fill="#7cb5ec" d="M 238 319 A 4 4 0 1 1 237.99999800000018 318.99600000066664 Z" class="highcharts-point"></path><path fill="#7cb5ec" d="M 283 252 A 4 4 0 1 1 282.9999980000002 251.99600000066667 Z" class="highcharts-point"></path><path fill="#7cb5ec" d="M 328 285 A 4 4 0 1 1 327.9999980000002 284.99600000066664 Z" class="highcharts-point"></path><path fill="#7cb5ec" d="M 374 273 A 4 4 0 1 1 373.9999980000002 272.99600000066664 Z" class="highcharts-point"></path><path fill="#7cb5ec" d="M 419 189 A 4 4 0 1 1 418.9999980000002 188.99600000066667 Z" class="highcharts-point"></path><path fill="#7cb5ec" d="M 464 246 A 4 4 0 1 1 463.9999980000002 245.99600000066667 Z" class="highcharts-point"></path><path fill="#7cb5ec" d="M 509 142 A 4 4 0 1 1 508.9999980000002 141.99600000066667 Z" class="highcharts-point"></path><path fill="#7cb5ec" d="M 554 215 A 4 4 0 1 1 553.9999980000001 214.99600000066667 Z" class="highcharts-point"></path><path fill="#7cb5ec" d="M 600 160 A 4 4 0 1 1 599.9999980000001 159.99600000066667 Z" class="highcharts-point"></path><path fill="#7cb5ec" d="M 645 190 A 4 4 0 1 1 644.9999980000001 189.99600000066667 Z" class="highcharts-point"></path><path fill="#7cb5ec" d="M 690 172 A 4 4 0 1 1 689.9999980000001 171.99600000066667 Z" class="highcharts-point"></path><path fill="#7cb5ec" d="M 735 159 A 4 4 0 1 1 734.9999980000001 158.99600000066667 Z" class="highcharts-point"></path><path fill="#7cb5ec" d="M 781 141 A 4 4 0 1 1 780.9999980000001 140.99600000066667 Z" class="highcharts-point"></path><path fill="#7cb5ec" d="M 826 125 A 4 4 0 1 1 825.9999980000001 124.99600000066667 Z" class="highcharts-point"></path><path fill="#7cb5ec" d="M 871 88 A 4 4 0 1 1 870.9999980000001 87.99600000066667 Z" class="highcharts-point"></path></g><g data-z-index="0.1" class="highcharts-series highcharts-series-1 highcharts-line-series " transform="translate(74,57) scale(1 1)" clip-path="url(#highcharts-qqf7s0o-1922)"><path fill="none" d="M 8.5882352941176 384.29302041154426 L 867.41176470588 92.70674594003987" class="highcharts-graph" data-z-index="1" stroke="#7cb5ec" stroke-width="2" stroke-dasharray="none"></path></g><g data-z-index="0.1" class="highcharts-markers highcharts-series-1 highcharts-line-series " transform="translate(74,57) scale(1 1)" clip-path="none"></g><g data-z-index="0.1" class="highcharts-series highcharts-series-2 highcharts-scatter-series " transform="translate(74,57) scale(1 1)" clip-path="url(#highcharts-qqf7s0o-1922)"></g><g data-z-index="0.1" class="highcharts-markers highcharts-series-2 highcharts-scatter-series " transform="translate(74,57) scale(1 1)" clip-path="none"><path fill="#90ed7d" d="M 12 388 A 4 4 0 1 1 11.999998000000167 387.99600000066664 Z" class="highcharts-point"></path><path fill="#90ed7d" d="M 12 388 A 4 4 0 1 1 11.999998000000167 387.99600000066664 Z" class="highcharts-point"></path><path fill="#90ed7d" d="M 12 388 A 4 4 0 1 1 11.999998000000167 387.99600000066664 Z" class="highcharts-point"></path><path fill="#90ed7d" d="M 12 388 A 4 4 0 1 1 11.999998000000167 387.99600000066664 Z" class="highcharts-point"></path><path fill="#90ed7d" d="M 12 388 A 4 4 0 1 1 11.999998000000167 387.99600000066664 Z" class="highcharts-point"></path><path fill="#90ed7d" d="M 12 387 A 4 4 0 1 1 11.999998000000167 386.99600000066664 Z" class="highcharts-point"></path><path fill="#90ed7d" d="M 12 388 A 4 4 0 1 1 11.999998000000167 387.99600000066664 Z" class="highcharts-point"></path><path fill="#90ed7d" d="M 12 388 A 4 4 0 1 1 11.999998000000167 387.99600000066664 Z" class="highcharts-point"></path><path fill="#90ed7d" d="M 12 387 A 4 4 0 1 1 11.999998000000167 386.99600000066664 Z" class="highcharts-point"></path><path fill="#90ed7d" d="M 12 388 A 4 4 0 1 1 11.999998000000167 387.99600000066664 Z" class="highcharts-point"></path><path fill="#90ed7d" d="M 13 387 A 4 4 0 1 1 12.999998000000167 386.99600000066664 Z" class="highcharts-point"></path><path fill="#90ed7d" d="M 13 388 A 4 4 0 1 1 12.999998000000167 387.99600000066664 Z" class="highcharts-point"></path><path fill="#90ed7d" d="M 13 388 A 4 4 0 1 1 12.999998000000167 387.99600000066664 Z" class="highcharts-point"></path><path fill="#90ed7d" d="M 13 388 A 4 4 0 1 1 12.999998000000167 387.99600000066664 Z" class="highcharts-point"></path><path fill="#90ed7d" d="M 13 388 A 4 4 0 1 1 12.999998000000167 387.99600000066664 Z" class="highcharts-point"></path><path fill="#90ed7d" d="M 13 388 A 4 4 0 1 1 12.999998000000167 387.99600000066664 Z" class="highcharts-point"></path><path fill="#90ed7d" d="M 13 387 A 4 4 0 1 1 12.999998000000167 386.99600000066664 Z" class="highcharts-point"></path><path fill="#90ed7d" d="M 13 387 A 4 4 0 1 1 12.999998000000167 386.99600000066664 Z" class="highcharts-point"></path><path fill="#90ed7d" d="M 13 388 A 4 4 0 1 1 12.999998000000167 387.99600000066664 Z" class="highcharts-point"></path><path fill="#90ed7d" d="M 13 387 A 4 4 0 1 1 12.999998000000167 386.99600000066664 Z" class="highcharts-point"></path><path fill="#90ed7d" d="M 57 374 A 4 4 0 1 1 56.99999800000017 373.99600000066664 Z" class="highcharts-point"></path><path fill="#90ed7d" d="M 102 361 A 4 4 0 1 1 101.99999800000016 360.99600000066664 Z" class="highcharts-point"></path><path fill="#90ed7d" d="M 148 347 A 4 4 0 1 1 147.99999800000018 346.99600000066664 Z" class="highcharts-point"></path><path fill="#90ed7d" d="M 193 334 A 4 4 0 1 1 192.99999800000018 333.99600000066664 Z" class="highcharts-point"></path><path fill="#90ed7d" d="M 238 320 A 4 4 0 1 1 237.99999800000018 319.99600000066664 Z" class="highcharts-point"></path><path fill="#90ed7d" d="M 283 305 A 4 4 0 1 1 282.9999980000002 304.99600000066664 Z" class="highcharts-point"></path><path fill="#90ed7d" d="M 328 292 A 4 4 0 1 1 327.9999980000002 291.99600000066664 Z" class="highcharts-point"></path><path fill="#90ed7d" d="M 374 269 A 4 4 0 1 1 373.9999980000002 268.99600000066664 Z" class="highcharts-point"></path><path fill="#90ed7d" d="M 419 269 A 4 4 0 1 1 418.9999980000002 268.99600000066664 Z" class="highcharts-point"></path><path fill="#90ed7d" d="M 464 192 A 4 4 0 1 1 463.9999980000002 191.99600000066667 Z" class="highcharts-point"></path><path fill="#90ed7d" d="M 509 166 A 4 4 0 1 1 508.9999980000002 165.99600000066667 Z" class="highcharts-point"></path><path fill="#90ed7d" d="M 554 226 A 4 4 0 1 1 553.9999980000001 225.99600000066667 Z" class="highcharts-point"></path><path fill="#90ed7d" d="M 600 210 A 4 4 0 1 1 599.9999980000001 209.99600000066667 Z" class="highcharts-point"></path><path fill="#90ed7d" d="M 645 195 A 4 4 0 1 1 644.9999980000001 194.99600000066667 Z" class="highcharts-point"></path><path fill="#90ed7d" d="M 690 178 A 4 4 0 1 1 689.9999980000001 177.99600000066667 Z" class="highcharts-point"></path><path fill="#90ed7d" d="M 735 149 A 4 4 0 1 1 734.9999980000001 148.99600000066667 Z" class="highcharts-point"></path><path fill="#90ed7d" d="M 781 149 A 4 4 0 1 1 780.9999980000001 148.99600000066667 Z" class="highcharts-point"></path><path fill="#90ed7d" d="M 826 143 A 4 4 0 1 1 825.9999980000001 142.99600000066667 Z" class="highcharts-point"></path><path fill="#90ed7d" d="M 871 130 A 4 4 0 1 1 870.9999980000001 129.99600000066667 Z" class="highcharts-point"></path></g><g data-z-index="0.1" class="highcharts-series highcharts-series-3 highcharts-line-series " transform="translate(74,57) scale(1 1)" clip-path="url(#highcharts-qqf7s0o-1922)"><path fill="none" d="M 8.5882352941176 386.86139925213587 L 867.41176470588 114.00545333070329" class="highcharts-graph" data-z-index="1" stroke="#90ed7d" stroke-width="2" stroke-dasharray="none"></path></g><g data-z-index="0.1" class="highcharts-markers highcharts-series-3 highcharts-line-series " transform="translate(74,57) scale(1 1)" clip-path="none"></g><g data-z-index="0.1" class="highcharts-series highcharts-series-4 highcharts-scatter-series " transform="translate(74,57) scale(1 1)" clip-path="url(#highcharts-qqf7s0o-1922)"></g><g data-z-index="0.1" class="highcharts-markers highcharts-series-4 highcharts-scatter-series " transform="translate(74,57) scale(1 1)" clip-path="none"><path fill="#f7a35c" d="M 12 387 A 4 4 0 1 1 11.999998000000167 386.99600000066664 Z" class="highcharts-point"></path><path fill="#f7a35c" d="M 12 388 A 4 4 0 1 1 11.999998000000167 387.99600000066664 Z" class="highcharts-point"></path><path fill="#f7a35c" d="M 12 385 A 4 4 0 1 1 11.999998000000167 384.99600000066664 Z" class="highcharts-point"></path><path fill="#f7a35c" d="M 12 386 A 4 4 0 1 1 11.999998000000167 385.99600000066664 Z" class="highcharts-point"></path><path fill="#f7a35c" d="M 12 387 A 4 4 0 1 1 11.999998000000167 386.99600000066664 Z" class="highcharts-point"></path><path fill="#f7a35c" d="M 12 388 A 4 4 0 1 1 11.999998000000167 387.99600000066664 Z" class="highcharts-point"></path><path fill="#f7a35c" d="M 12 388 A 4 4 0 1 1 11.999998000000167 387.99600000066664 Z" class="highcharts-point"></path><path fill="#f7a35c" d="M 12 387 A 4 4 0 1 1 11.999998000000167 386.99600000066664 Z" class="highcharts-point"></path><path fill="#f7a35c" d="M 12 388 A 4 4 0 1 1 11.999998000000167 387.99600000066664 Z" class="highcharts-point"></path><path fill="#f7a35c" d="M 12 386 A 4 4 0 1 1 11.999998000000167 385.99600000066664 Z" class="highcharts-point"></path><path fill="#f7a35c" d="M 13 386 A 4 4 0 1 1 12.999998000000167 385.99600000066664 Z" class="highcharts-point"></path><path fill="#f7a35c" d="M 13 387 A 4 4 0 1 1 12.999998000000167 386.99600000066664 Z" class="highcharts-point"></path><path fill="#f7a35c" d="M 13 387 A 4 4 0 1 1 12.999998000000167 386.99600000066664 Z" class="highcharts-point"></path><path fill="#f7a35c" d="M 13 384 A 4 4 0 1 1 12.999998000000167 383.99600000066664 Z" class="highcharts-point"></path><path fill="#f7a35c" d="M 13 387 A 4 4 0 1 1 12.999998000000167 386.99600000066664 Z" class="highcharts-point"></path><path fill="#f7a35c" d="M 13 387 A 4 4 0 1 1 12.999998000000167 386.99600000066664 Z" class="highcharts-point"></path><path fill="#f7a35c" d="M 13 388 A 4 4 0 1 1 12.999998000000167 387.99600000066664 Z" class="highcharts-point"></path><path fill="#f7a35c" d="M 13 387 A 4 4 0 1 1 12.999998000000167 386.99600000066664 Z" class="highcharts-point"></path><path fill="#f7a35c" d="M 13 388 A 4 4 0 1 1 12.999998000000167 387.99600000066664 Z" class="highcharts-point"></path><path fill="#f7a35c" d="M 13 388 A 4 4 0 1 1 12.999998000000167 387.99600000066664 Z" class="highcharts-point"></path><path fill="#f7a35c" d="M 57 372 A 4 4 0 1 1 56.99999800000017 371.99600000066664 Z" class="highcharts-point"></path><path fill="#f7a35c" d="M 102 360 A 4 4 0 1 1 101.99999800000016 359.99600000066664 Z" class="highcharts-point"></path><path fill="#f7a35c" d="M 148 319 A 4 4 0 1 1 147.99999800000018 318.99600000066664 Z" class="highcharts-point"></path><path fill="#f7a35c" d="M 193 334 A 4 4 0 1 1 192.99999800000018 333.99600000066664 Z" class="highcharts-point"></path><path fill="#f7a35c" d="M 238 321 A 4 4 0 1 1 237.99999800000018 320.99600000066664 Z" class="highcharts-point"></path><path fill="#f7a35c" d="M 283 306 A 4 4 0 1 1 282.9999980000002 305.99600000066664 Z" class="highcharts-point"></path><path fill="#f7a35c" d="M 328 293 A 4 4 0 1 1 327.9999980000002 292.99600000066664 Z" class="highcharts-point"></path><path fill="#f7a35c" d="M 374 132 A 4 4 0 1 1 373.9999980000002 131.99600000066667 Z" class="highcharts-point"></path><path fill="#f7a35c" d="M 419 255 A 4 4 0 1 1 418.9999980000002 254.99600000066667 Z" class="highcharts-point"></path><path fill="#f7a35c" d="M 464 130 A 4 4 0 1 1 463.9999980000002 129.99600000066667 Z" class="highcharts-point"></path><path fill="#f7a35c" d="M 509 223 A 4 4 0 1 1 508.9999980000002 222.99600000066667 Z" class="highcharts-point"></path><path fill="#f7a35c" d="M 554 226 A 4 4 0 1 1 553.9999980000001 225.99600000066667 Z" class="highcharts-point"></path><path fill="#f7a35c" d="M 600 208 A 4 4 0 1 1 599.9999980000001 207.99600000066667 Z" class="highcharts-point"></path><path fill="#f7a35c" d="M 645 97 A 4 4 0 1 1 644.9999980000001 96.99600000066667 Z" class="highcharts-point"></path><path fill="#f7a35c" d="M 690 135 A 4 4 0 1 1 689.9999980000001 134.99600000066667 Z" class="highcharts-point"></path><path fill="#f7a35c" d="M 735 29 A 4 4 0 1 1 734.9999980000001 28.996000000666665 Z" class="highcharts-point"></path><path fill="#f7a35c" d="M 781 150 A 4 4 0 1 1 780.9999980000001 149.99600000066667 Z" class="highcharts-point"></path><path fill="#f7a35c" d="M 826 142 A 4 4 0 1 1 825.9999980000001 141.99600000066667 Z" class="highcharts-point"></path><path fill="#f7a35c" d="M 871 72 A 4 4 0 1 1 870.9999980000001 71.99600000066667 Z" class="highcharts-point"></path></g><g data-z-index="0.1" class="highcharts-series highcharts-series-5 highcharts-line-series " transform="translate(74,57) scale(1 1)" clip-path="url(#highcharts-qqf7s0o-1922)"><path fill="none" d="M 8.5882352941176 385.70711017622796 L 867.41176470588 66.01044478802817" class="highcharts-graph" data-z-index="1" stroke="#f7a35c" stroke-width="2" stroke-dasharray="none"></path></g><g data-z-index="0.1" class="highcharts-markers highcharts-series-5 highcharts-line-series " transform="translate(74,57) scale(1 1)" clip-path="none"></g></g><text x="480" text-anchor="middle" class="highcharts-title" data-z-index="4" style="color:#333333;font-size:14;font-weight:normal;fill:#333333;" y="21"><tspan>AR(3)</tspan></text><text x="480" text-anchor="middle" class="highcharts-subtitle" data-z-index="4" style="color:#666666;font-weight:normal;fill:#666666;" y="41"><tspan>R execution time</tspan></text><g class="highcharts-legend" data-z-index="7" transform="translate(343,499)"><rect fill="none" class="highcharts-legend-box" rx="0" ry="0" x="0" y="0" width="273" height="26" visibility="visible"></rect><g data-z-index="1"><g><g class="highcharts-legend-item highcharts-scatter-series highcharts-color-undefined highcharts-series-0" data-z-index="1" transform="translate(8,3)"><path fill="none" d="M 0 11 L 16 11" class="highcharts-graph" stroke-dasharray="none"></path><path fill="#7cb5ec" d="M 12 11 A 4 4 0 1 1 11.999998000000167 10.996000000666664 Z" class="highcharts-point"></path><text x="21" style="color:#333333;cursor:pointer;font-size:12px;font-weight:bold;fill:#333333;" text-anchor="start" data-z-index="2" y="15"><tspan>forwardsub</tspan></text></g><g class="highcharts-legend-item highcharts-scatter-series highcharts-color-undefined highcharts-series-2" data-z-index="1" transform="translate(120.515625,3)"><path fill="none" d="M 0 11 L 16 11" class="highcharts-graph" stroke-dasharray="none"></path><path fill="#90ed7d" d="M 12 11 A 4 4 0 1 1 11.999998000000167 10.996000000666664 Z" class="highcharts-point"></path><text x="21" y="15" style="color:#333333;cursor:pointer;font-size:12px;font-weight:bold;fill:#333333;" text-anchor="start" data-z-index="2"><tspan>inverse</tspan></text></g><g class="highcharts-legend-item highcharts-scatter-series highcharts-color-undefined highcharts-series-4" data-z-index="1" transform="translate(206.71875,3)"><path fill="none" d="M 0 11 L 16 11" class="highcharts-graph" stroke-dasharray="none"></path><path fill="#f7a35c" d="M 12 11 A 4 4 0 1 1 11.999998000000167 10.996000000666664 Z" class="highcharts-point"></path><text x="21" y="15" style="color:#333333;cursor:pointer;font-size:12px;font-weight:bold;fill:#333333;" text-anchor="start" data-z-index="2"><tspan>jacobi</tspan></text></g></g></g></g><g class="highcharts-axis-labels highcharts-xaxis-labels " data-z-index="7"><text x="82.54303167659" style="color:#666666;cursor:default;font-size:11px;font-weight:normal;fill:#666666;" text-anchor="middle" transform="translate(0,0)" y="465" opacity="1">0</text><text x="172.9502667323" style="color:#666666;cursor:default;font-size:11px;font-weight:normal;fill:#666666;" text-anchor="middle" transform="translate(0,0)" y="465" opacity="1">100k</text><text x="263.35750178802" style="color:#666666;cursor:default;font-size:11px;font-weight:normal;fill:#666666;" text-anchor="middle" transform="translate(0,0)" y="465" opacity="1">200k</text><text x="353.76473684373" style="color:#666666;cursor:default;font-size:11px;font-weight:normal;fill:#666666;" text-anchor="middle" transform="translate(0,0)" y="465" opacity="1">300k</text><text x="444.17197189945" style="color:#666666;cursor:default;font-size:11px;font-weight:normal;fill:#666666;" text-anchor="middle" transform="translate(0,0)" y="465" opacity="1">400k</text><text x="534.57920695516" style="color:#666666;cursor:default;font-size:11px;font-weight:normal;fill:#666666;" text-anchor="middle" transform="translate(0,0)" y="465" opacity="1">500k</text><text x="624.98644201088" style="color:#666666;cursor:default;font-size:11px;font-weight:normal;fill:#666666;" text-anchor="middle" transform="translate(0,0)" y="465" opacity="1">600k</text><text x="715.39367706659" style="color:#666666;cursor:default;font-size:11px;font-weight:normal;fill:#666666;" text-anchor="middle" transform="translate(0,0)" y="465" opacity="1">700k</text><text x="805.80091212231" style="color:#666666;cursor:default;font-size:11px;font-weight:normal;fill:#666666;" text-anchor="middle" transform="translate(0,0)" y="465" opacity="1">800k</text><text x="896.20814717802" style="color:#666666;cursor:default;font-size:11px;font-weight:normal;fill:#666666;" text-anchor="middle" transform="translate(0,0)" y="465" opacity="1">900k</text></g><g class="highcharts-axis-labels highcharts-yaxis-labels " data-z-index="7"><text x="59" style="color:#666666;cursor:default;font-size:11px;font-weight:normal;fill:#666666;" text-anchor="end" transform="translate(0,0)" y="451" opacity="1">0</text><text x="59" style="color:#666666;cursor:default;font-size:11px;font-weight:normal;fill:#666666;" text-anchor="end" transform="translate(0,0)" y="386" opacity="1">2.5</text><text x="59" style="color:#666666;cursor:default;font-size:11px;font-weight:normal;fill:#666666;" text-anchor="end" transform="translate(0,0)" y="321" opacity="1">5</text><text x="59" style="color:#666666;cursor:default;font-size:11px;font-weight:normal;fill:#666666;" text-anchor="end" transform="translate(0,0)" y="256" opacity="1">7.5</text><text x="59" style="color:#666666;cursor:default;font-size:11px;font-weight:normal;fill:#666666;" text-anchor="end" transform="translate(0,0)" y="191" opacity="1">10</text><text x="59" style="color:#666666;cursor:default;font-size:11px;font-weight:normal;fill:#666666;" text-anchor="end" transform="translate(0,0)" y="126" opacity="1">12.5</text><text x="59" style="color:#666666;cursor:default;font-size:11px;font-weight:normal;fill:#666666;" text-anchor="end" transform="translate(0,0)" y="62" opacity="1">15</text></g></svg>