<svg xmlns:xlink="http://www.w3.org/1999/xlink" version="1.1" class="highcharts-root" style="font-family:&quot;Lucida Grande&quot;, &quot;Lucida Sans Unicode&quot;, Arial, Helvetica, sans-serif;font-size:12px;" xmlns="http://www.w3.org/2000/svg" width="960" height="540" viewBox="0 0 960 540"><desc>Created with Highcharts 7.0.2</desc><defs><clipPath id="highcharts-qqf7s0o-2571"><rect x="0" y="0" width="886" height="389" fill="none"></rect></clipPath></defs><rect fill="#ffffff" class="highcharts-background" x="0" y="0" width="960" height="540" rx="0" ry="0"></rect><rect fill="none" class="highcharts-plot-background" x="64" y="57" width="886" height="389"></rect><g class="highcharts-pane-group" data-z-index="0"></g><g class="highcharts-grid highcharts-xaxis-grid " data-z-index="1"><path fill="none" stroke-dasharray="none" data-z-index="1" class="highcharts-grid-line" d="M 72.5 57 L 72.5 446" opacity="1"></path><path fill="none" stroke-dasharray="none" data-z-index="1" class="highcharts-grid-line" d="M 163.5 57 L 163.5 446" opacity="1"></path><path fill="none" stroke-dasharray="none" data-z-index="1" class="highcharts-grid-line" d="M 255.5 57 L 255.5 446" opacity="1"></path><path fill="none" stroke-dasharray="none" data-z-index="1" class="highcharts-grid-line" d="M 346.5 57 L 346.5 446" opacity="1"></path><path fill="none" stroke-dasharray="none" data-z-index="1" class="highcharts-grid-line" d="M 437.5 57 L 437.5 446" opacity="1"></path><path fill="none" stroke-dasharray="none" data-z-index="1" class="highcharts-grid-line" d="M 529.5 57 L 529.5 446" opacity="1"></path><path fill="none" stroke-dasharray="none" data-z-index="1" class="highcharts-grid-line" d="M 620.5 57 L 620.5 446" opacity="1"></path><path fill="none" stroke-dasharray="none" data-z-index="1" class="highcharts-grid-line" d="M 712.5 57 L 712.5 446" opacity="1"></path><path fill="none" stroke-dasharray="none" data-z-index="1" class="highcharts-grid-line" d="M 803.5 57 L 803.5 446" opacity="1"></path><path fill="none" stroke-dasharray="none" data-z-index="1" class="highcharts-grid-line" d="M 895.5 57 L 895.5 446" opacity="1"></path></g><g class="highcharts-grid highcharts-yaxis-grid " data-z-index="1"><path fill="none" stroke="#e6e6e6" stroke-width="1" stroke-dasharray="none" data-z-index="1" class="highcharts-grid-line" d="M 64 446.5 L 950 446.5" opacity="1"></path><path fill="none" stroke="#e6e6e6" stroke-width="1" stroke-dasharray="none" data-z-index="1" class="highcharts-grid-line" d="M 64 390.5 L 950 390.5" opacity="1"></path><path fill="none" stroke="#e6e6e6" stroke-width="1" stroke-dasharray="none" data-z-index="1" class="highcharts-grid-line" d="M 64 335.5 L 950 335.5" opacity="1"></path><path fill="none" stroke="#e6e6e6" stroke-width="1" stroke-dasharray="none" data-z-index="1" class="highcharts-grid-line" d="M 64 279.5 L 950 279.5" opacity="1"></path><path fill="none" stroke="#e6e6e6" stroke-width="1" stroke-dasharray="none" data-z-index="1" class="highcharts-grid-line" d="M 64 224.5 L 950 224.5" opacity="1"></path><path fill="none" stroke="#e6e6e6" stroke-width="1" stroke-dasharray="none" data-z-index="1" class="highcharts-grid-line" d="M 64 168.5 L 950 168.5" opacity="1"></path><path fill="none" stroke="#e6e6e6" stroke-width="1" stroke-dasharray="none" data-z-index="1" class="highcharts-grid-line" d="M 64 113.5 L 950 113.5" opacity="1"></path><path fill="none" stroke="#e6e6e6" stroke-width="1" stroke-dasharray="none" data-z-index="1" class="highcharts-grid-line" d="M 64 56.5 L 950 56.5" opacity="1"></path></g><rect fill="none" class="highcharts-plot-border" data-z-index="1" x="64" y="57" width="886" height="389"></rect><g class="highcharts-axis highcharts-xaxis " data-z-index="2"><path fill="none" class="highcharts-tick" stroke="#ccd6eb" stroke-width="1" d="M 72.5 446 L 72.5 456" opacity="1"></path><path fill="none" class="highcharts-tick" stroke="#ccd6eb" stroke-width="1" d="M 163.5 446 L 163.5 456" opacity="1"></path><path fill="none" class="highcharts-tick" stroke="#ccd6eb" stroke-width="1" d="M 255.5 446 L 255.5 456" opacity="1"></path><path fill="none" class="highcharts-tick" stroke="#ccd6eb" stroke-width="1" d="M 346.5 446 L 346.5 456" opacity="1"></path><path fill="none" class="highcharts-tick" stroke="#ccd6eb" stroke-width="1" d="M 437.5 446 L 437.5 456" opacity="1"></path><path fill="none" class="highcharts-tick" stroke="#ccd6eb" stroke-width="1" d="M 529.5 446 L 529.5 456" opacity="1"></path><path fill="none" class="highcharts-tick" stroke="#ccd6eb" stroke-width="1" d="M 620.5 446 L 620.5 456" opacity="1"></path><path fill="none" class="highcharts-tick" stroke="#ccd6eb" stroke-width="1" d="M 712.5 446 L 712.5 456" opacity="1"></path><path fill="none" class="highcharts-tick" stroke="#ccd6eb" stroke-width="1" d="M 803.5 446 L 803.5 456" opacity="1"></path><path fill="none" class="highcharts-tick" stroke="#ccd6eb" stroke-width="1" d="M 895.5 446 L 895.5 456" opacity="1"></path><text x="507" data-z-index="7" text-anchor="middle" transform="translate(0,0)" class="highcharts-axis-title" style="color:#666666;font-weight:normal;fill:#666666;" y="484"><tspan>Xsize</tspan></text><path fill="none" class="highcharts-axis-line" stroke="#ccd6eb" stroke-width="1" data-z-index="7" d="M 64 446.5 L 950 446.5"></path></g><g class="highcharts-axis highcharts-yaxis " data-z-index="2"><text x="25.09375" data-z-index="7" text-anchor="middle" transform="translate(0,0) rotate(270 25.09375 251.5)" class="highcharts-axis-title" style="color:#666666;font-weight:normal;fill:#666666;" y="251.5"><tspan>r_run_time</tspan></text><path fill="none" class="highcharts-axis-line" data-z-index="7" d="M 64 57 L 64 446"></path></g><g class="highcharts-series-group" data-z-index="3"><g data-z-index="0.1" class="highcharts-series highcharts-series-0 highcharts-scatter-series " transform="translate(64,57) scale(1 1)" clip-path="url(#highcharts-qqf7s0o-2571)"></g><g data-z-index="0.1" class="highcharts-markers highcharts-series-0 highcharts-scatter-series " transform="translate(64,57) scale(1 1)" clip-path="none"><path fill="#7cb5ec" d="M 4 199 A 4 4 0 1 1 3.9999980000001667 198.99600000066667 Z" class="highcharts-point"></path><path fill="#7cb5ec" d="M 16 301 A 4 4 0 1 1 15.999998000000167 300.99600000066664 Z" class="highcharts-point"></path><path fill="#7cb5ec" d="M 21 281 A 4 4 0 1 1 20.99999800000017 280.99600000066664 Z" class="highcharts-point"></path><path fill="#7cb5ec" d="M 7 316 A 4 4 0 1 1 6.999998000000167 315.99600000066664 Z" class="highcharts-point"></path><path fill="#7cb5ec" d="M 21 313 A 4 4 0 1 1 20.99999800000017 312.99600000066664 Z" class="highcharts-point"></path><path fill="#7cb5ec" d="M 17 201 A 4 4 0 1 1 16.99999800000017 200.99600000066667 Z" class="highcharts-point"></path><path fill="#7cb5ec" d="M 18 274 A 4 4 0 1 1 17.99999800000017 273.99600000066664 Z" class="highcharts-point"></path><path fill="#7cb5ec" d="M 19 317 A 4 4 0 1 1 18.99999800000017 316.99600000066664 Z" class="highcharts-point"></path><path fill="#7cb5ec" d="M 14 59 A 4 4 0 1 1 13.999998000000167 58.99600000066666 Z" class="highcharts-point"></path><path fill="#7cb5ec" d="M 7 266 A 4 4 0 1 1 6.999998000000167 265.99600000066664 Z" class="highcharts-point"></path><path fill="#7cb5ec" d="M 18 298 A 4 4 0 1 1 17.99999800000017 297.99600000066664 Z" class="highcharts-point"></path><path fill="#7cb5ec" d="M 6 203 A 4 4 0 1 1 5.999998000000167 202.99600000066667 Z" class="highcharts-point"></path><path fill="#7cb5ec" d="M 9 244 A 4 4 0 1 1 8.999998000000167 243.99600000066667 Z" class="highcharts-point"></path><path fill="#7cb5ec" d="M 16 313 A 4 4 0 1 1 15.999998000000167 312.99600000066664 Z" class="highcharts-point"></path><path fill="#7cb5ec" d="M 5 314 A 4 4 0 1 1 4.999998000000167 313.99600000066664 Z" class="highcharts-point"></path><path fill="#7cb5ec" d="M 19 229 A 4 4 0 1 1 18.99999800000017 228.99600000066667 Z" class="highcharts-point"></path><path fill="#7cb5ec" d="M 21 250 A 4 4 0 1 1 20.99999800000017 249.99600000066667 Z" class="highcharts-point"></path><path fill="#7cb5ec" d="M 5 315 A 4 4 0 1 1 4.999998000000167 314.99600000066664 Z" class="highcharts-point"></path><path fill="#7cb5ec" d="M 7 248 A 4 4 0 1 1 6.999998000000167 247.99600000066667 Z" class="highcharts-point"></path><path fill="#7cb5ec" d="M 18 318 A 4 4 0 1 1 17.99999800000017 317.99600000066664 Z" class="highcharts-point"></path><path fill="#7cb5ec" d="M 57 309 A 4 4 0 1 1 56.99999800000017 308.99600000066664 Z" class="highcharts-point"></path><path fill="#7cb5ec" d="M 105 305 A 4 4 0 1 1 104.99999800000016 304.99600000066664 Z" class="highcharts-point"></path><path fill="#7cb5ec" d="M 149 296 A 4 4 0 1 1 148.99999800000018 295.99600000066664 Z" class="highcharts-point"></path><path fill="#7cb5ec" d="M 200 193 A 4 4 0 1 1 199.99999800000018 192.99600000066667 Z" class="highcharts-point"></path><path fill="#7cb5ec" d="M 236 275 A 4 4 0 1 1 235.99999800000018 274.99600000066664 Z" class="highcharts-point"></path><path fill="#7cb5ec" d="M 286 171 A 4 4 0 1 1 285.9999980000002 170.99600000066667 Z" class="highcharts-point"></path><path fill="#7cb5ec" d="M 334 268 A 4 4 0 1 1 333.9999980000002 267.99600000066664 Z" class="highcharts-point"></path><path fill="#7cb5ec" d="M 382 257 A 4 4 0 1 1 381.9999980000002 256.99600000066664 Z" class="highcharts-point"></path><path fill="#7cb5ec" d="M 416 185 A 4 4 0 1 1 415.9999980000002 184.99600000066667 Z" class="highcharts-point"></path><path fill="#7cb5ec" d="M 472 254 A 4 4 0 1 1 471.9999980000002 253.99600000066667 Z" class="highcharts-point"></path><path fill="#7cb5ec" d="M 518 95 A 4 4 0 1 1 517.9999980000001 94.99600000066667 Z" class="highcharts-point"></path><path fill="#7cb5ec" d="M 563 241 A 4 4 0 1 1 562.9999980000001 240.99600000066667 Z" class="highcharts-point"></path><path fill="#7cb5ec" d="M 602 176 A 4 4 0 1 1 601.9999980000001 175.99600000066667 Z" class="highcharts-point"></path><path fill="#7cb5ec" d="M 646 196 A 4 4 0 1 1 645.9999980000001 195.99600000066667 Z" class="highcharts-point"></path><path fill="#7cb5ec" d="M 704 209 A 4 4 0 1 1 703.9999980000001 208.99600000066667 Z" class="highcharts-point"></path><path fill="#7cb5ec" d="M 738 212 A 4 4 0 1 1 737.9999980000001 211.99600000066667 Z" class="highcharts-point"></path><path fill="#7cb5ec" d="M 784 204 A 4 4 0 1 1 783.9999980000001 203.99600000066667 Z" class="highcharts-point"></path><path fill="#7cb5ec" d="M 837 188 A 4 4 0 1 1 836.9999980000001 187.99600000066667 Z" class="highcharts-point"></path><path fill="#7cb5ec" d="M 884 137 A 4 4 0 1 1 883.9999980000001 136.99600000066667 Z" class="highcharts-point"></path></g><g data-z-index="0.1" class="highcharts-series highcharts-series-1 highcharts-line-series " transform="translate(64,57) scale(1 1)" clip-path="url(#highcharts-qqf7s0o-2571)"><path fill="none" d="M 8.6862745098039 266.6607750540482 L 877.3137254902 170.78183696063783" class="highcharts-graph" data-z-index="1" stroke="#7cb5ec" stroke-width="2" stroke-dasharray="none"></path></g><g data-z-index="0.1" class="highcharts-markers highcharts-series-1 highcharts-line-series " transform="translate(64,57) scale(1 1)" clip-path="none"></g><g data-z-index="0.1" class="highcharts-series highcharts-series-2 highcharts-scatter-series " transform="translate(64,57) scale(1 1)" clip-path="url(#highcharts-qqf7s0o-2571)"></g><g data-z-index="0.1" class="highcharts-markers highcharts-series-2 highcharts-scatter-series " transform="translate(64,57) scale(1 1)" clip-path="none"><path fill="#90ed7d" d="M 4 311 A 4 4 0 1 1 3.9999980000001667 310.99600000066664 Z" class="highcharts-point"></path><path fill="#90ed7d" d="M 16 306 A 4 4 0 1 1 15.999998000000167 305.99600000066664 Z" class="highcharts-point"></path><path fill="#90ed7d" d="M 21 309 A 4 4 0 1 1 20.99999800000017 308.99600000066664 Z" class="highcharts-point"></path><path fill="#90ed7d" d="M 7 310 A 4 4 0 1 1 6.999998000000167 309.99600000066664 Z" class="highcharts-point"></path><path fill="#90ed7d" d="M 21 303 A 4 4 0 1 1 20.99999800000017 302.99600000066664 Z" class="highcharts-point"></path><path fill="#90ed7d" d="M 17 306 A 4 4 0 1 1 16.99999800000017 305.99600000066664 Z" class="highcharts-point"></path><path fill="#90ed7d" d="M 18 310 A 4 4 0 1 1 17.99999800000017 309.99600000066664 Z" class="highcharts-point"></path><path fill="#90ed7d" d="M 19 311 A 4 4 0 1 1 18.99999800000017 310.99600000066664 Z" class="highcharts-point"></path><path fill="#90ed7d" d="M 14 307 A 4 4 0 1 1 13.999998000000167 306.99600000066664 Z" class="highcharts-point"></path><path fill="#90ed7d" d="M 7 308 A 4 4 0 1 1 6.999998000000167 307.99600000066664 Z" class="highcharts-point"></path><path fill="#90ed7d" d="M 18 308 A 4 4 0 1 1 17.99999800000017 307.99600000066664 Z" class="highcharts-point"></path><path fill="#90ed7d" d="M 6 304 A 4 4 0 1 1 5.999998000000167 303.99600000066664 Z" class="highcharts-point"></path><path fill="#90ed7d" d="M 9 310 A 4 4 0 1 1 8.999998000000167 309.99600000066664 Z" class="highcharts-point"></path><path fill="#90ed7d" d="M 16 306 A 4 4 0 1 1 15.999998000000167 305.99600000066664 Z" class="highcharts-point"></path><path fill="#90ed7d" d="M 5 307 A 4 4 0 1 1 4.999998000000167 306.99600000066664 Z" class="highcharts-point"></path><path fill="#90ed7d" d="M 19 307 A 4 4 0 1 1 18.99999800000017 306.99600000066664 Z" class="highcharts-point"></path><path fill="#90ed7d" d="M 21 304 A 4 4 0 1 1 20.99999800000017 303.99600000066664 Z" class="highcharts-point"></path><path fill="#90ed7d" d="M 5 308 A 4 4 0 1 1 4.999998000000167 307.99600000066664 Z" class="highcharts-point"></path><path fill="#90ed7d" d="M 7 310 A 4 4 0 1 1 6.999998000000167 309.99600000066664 Z" class="highcharts-point"></path><path fill="#90ed7d" d="M 18 319 A 4 4 0 1 1 17.99999800000017 318.99600000066664 Z" class="highcharts-point"></path><path fill="#90ed7d" d="M 57 310 A 4 4 0 1 1 56.99999800000017 309.99600000066664 Z" class="highcharts-point"></path><path fill="#90ed7d" d="M 105 307 A 4 4 0 1 1 104.99999800000016 306.99600000066664 Z" class="highcharts-point"></path><path fill="#90ed7d" d="M 149 297 A 4 4 0 1 1 148.99999800000018 296.99600000066664 Z" class="highcharts-point"></path><path fill="#90ed7d" d="M 200 292 A 4 4 0 1 1 199.99999800000018 291.99600000066664 Z" class="highcharts-point"></path><path fill="#90ed7d" d="M 236 287 A 4 4 0 1 1 235.99999800000018 286.99600000066664 Z" class="highcharts-point"></path><path fill="#90ed7d" d="M 286 279 A 4 4 0 1 1 285.9999980000002 278.99600000066664 Z" class="highcharts-point"></path><path fill="#90ed7d" d="M 334 273 A 4 4 0 1 1 333.9999980000002 272.99600000066664 Z" class="highcharts-point"></path><path fill="#90ed7d" d="M 382 266 A 4 4 0 1 1 381.9999980000002 265.99600000066664 Z" class="highcharts-point"></path><path fill="#90ed7d" d="M 416 267 A 4 4 0 1 1 415.9999980000002 266.99600000066664 Z" class="highcharts-point"></path><path fill="#90ed7d" d="M 472 183 A 4 4 0 1 1 471.9999980000002 182.99600000066667 Z" class="highcharts-point"></path><path fill="#90ed7d" d="M 518 181 A 4 4 0 1 1 517.9999980000001 180.99600000066667 Z" class="highcharts-point"></path><path fill="#90ed7d" d="M 563 244 A 4 4 0 1 1 562.9999980000001 243.99600000066667 Z" class="highcharts-point"></path><path fill="#90ed7d" d="M 602 237 A 4 4 0 1 1 601.9999980000001 236.99600000066667 Z" class="highcharts-point"></path><path fill="#90ed7d" d="M 646 227 A 4 4 0 1 1 645.9999980000001 226.99600000066667 Z" class="highcharts-point"></path><path fill="#90ed7d" d="M 704 220 A 4 4 0 1 1 703.9999980000001 219.99600000066667 Z" class="highcharts-point"></path><path fill="#90ed7d" d="M 738 199 A 4 4 0 1 1 737.9999980000001 198.99600000066667 Z" class="highcharts-point"></path><path fill="#90ed7d" d="M 784 205 A 4 4 0 1 1 783.9999980000001 204.99600000066667 Z" class="highcharts-point"></path><path fill="#90ed7d" d="M 837 205 A 4 4 0 1 1 836.9999980000001 204.99600000066667 Z" class="highcharts-point"></path><path fill="#90ed7d" d="M 884 201 A 4 4 0 1 1 883.9999980000001 200.99600000066667 Z" class="highcharts-point"></path></g><g data-z-index="0.1" class="highcharts-series highcharts-series-3 highcharts-line-series " transform="translate(64,57) scale(1 1)" clip-path="url(#highcharts-qqf7s0o-2571)"><path fill="none" d="M 8.6862745098039 309.1803677070622 L 877.3137254902 189.0638031320131" class="highcharts-graph" data-z-index="1" stroke="#90ed7d" stroke-width="2" stroke-dasharray="none"></path></g><g data-z-index="0.1" class="highcharts-markers highcharts-series-3 highcharts-line-series " transform="translate(64,57) scale(1 1)" clip-path="none"></g><g data-z-index="0.1" class="highcharts-series highcharts-series-4 highcharts-scatter-series " transform="translate(64,57) scale(1 1)" clip-path="url(#highcharts-qqf7s0o-2571)"></g><g data-z-index="0.1" class="highcharts-markers highcharts-series-4 highcharts-scatter-series " transform="translate(64,57) scale(1 1)" clip-path="none"><path fill="#f7a35c" d="M 4 301 A 4 4 0 1 1 3.9999980000001667 300.99600000066664 Z" class="highcharts-point"></path><path fill="#f7a35c" d="M 16 315 A 4 4 0 1 1 15.999998000000167 314.99600000066664 Z" class="highcharts-point"></path><path fill="#f7a35c" d="M 21 200 A 4 4 0 1 1 20.99999800000017 199.99600000066667 Z" class="highcharts-point"></path><path fill="#f7a35c" d="M 7 255 A 4 4 0 1 1 6.999998000000167 254.99600000066667 Z" class="highcharts-point"></path><path fill="#f7a35c" d="M 21 315 A 4 4 0 1 1 20.99999800000017 314.99600000066664 Z" class="highcharts-point"></path><path fill="#f7a35c" d="M 17 316 A 4 4 0 1 1 16.99999800000017 315.99600000066664 Z" class="highcharts-point"></path><path fill="#f7a35c" d="M 18 315 A 4 4 0 1 1 17.99999800000017 314.99600000066664 Z" class="highcharts-point"></path><path fill="#f7a35c" d="M 19 320 A 4 4 0 1 1 18.99999800000017 319.99600000066664 Z" class="highcharts-point"></path><path fill="#f7a35c" d="M 14 262 A 4 4 0 1 1 13.999998000000167 261.99600000066664 Z" class="highcharts-point"></path><path fill="#f7a35c" d="M 7 228 A 4 4 0 1 1 6.999998000000167 227.99600000066667 Z" class="highcharts-point"></path><path fill="#f7a35c" d="M 18 206 A 4 4 0 1 1 17.99999800000017 205.99600000066667 Z" class="highcharts-point"></path><path fill="#f7a35c" d="M 6 275 A 4 4 0 1 1 5.999998000000167 274.99600000066664 Z" class="highcharts-point"></path><path fill="#f7a35c" d="M 9 262 A 4 4 0 1 1 8.999998000000167 261.99600000066664 Z" class="highcharts-point"></path><path fill="#f7a35c" d="M 16 173 A 4 4 0 1 1 15.999998000000167 172.99600000066667 Z" class="highcharts-point"></path><path fill="#f7a35c" d="M 5 240 A 4 4 0 1 1 4.999998000000167 239.99600000066667 Z" class="highcharts-point"></path><path fill="#f7a35c" d="M 19 302 A 4 4 0 1 1 18.99999800000017 301.99600000066664 Z" class="highcharts-point"></path><path fill="#f7a35c" d="M 21 317 A 4 4 0 1 1 20.99999800000017 316.99600000066664 Z" class="highcharts-point"></path><path fill="#f7a35c" d="M 5 318 A 4 4 0 1 1 4.999998000000167 317.99600000066664 Z" class="highcharts-point"></path><path fill="#f7a35c" d="M 7 319 A 4 4 0 1 1 6.999998000000167 318.99600000066664 Z" class="highcharts-point"></path><path fill="#f7a35c" d="M 18 313 A 4 4 0 1 1 17.99999800000017 312.99600000066664 Z" class="highcharts-point"></path><path fill="#f7a35c" d="M 57 295 A 4 4 0 1 1 56.99999800000017 294.99600000066664 Z" class="highcharts-point"></path><path fill="#f7a35c" d="M 105 305 A 4 4 0 1 1 104.99999800000016 304.99600000066664 Z" class="highcharts-point"></path><path fill="#f7a35c" d="M 149 148 A 4 4 0 1 1 148.99999800000018 147.99600000066667 Z" class="highcharts-point"></path><path fill="#f7a35c" d="M 200 290 A 4 4 0 1 1 199.99999800000018 289.99600000066664 Z" class="highcharts-point"></path><path fill="#f7a35c" d="M 236 285 A 4 4 0 1 1 235.99999800000018 284.99600000066664 Z" class="highcharts-point"></path><path fill="#f7a35c" d="M 286 278 A 4 4 0 1 1 285.9999980000002 277.99600000066664 Z" class="highcharts-point"></path><path fill="#f7a35c" d="M 334 270 A 4 4 0 1 1 333.9999980000002 269.99600000066664 Z" class="highcharts-point"></path><path fill="#f7a35c" d="M 382 86 A 4 4 0 1 1 381.9999980000002 85.99600000066667 Z" class="highcharts-point"></path><path fill="#f7a35c" d="M 416 170 A 4 4 0 1 1 415.9999980000002 169.99600000066667 Z" class="highcharts-point"></path><path fill="#f7a35c" d="M 472 59 A 4 4 0 1 1 471.9999980000002 58.99600000066666 Z" class="highcharts-point"></path><path fill="#f7a35c" d="M 518 188 A 4 4 0 1 1 517.9999980000001 187.99600000066667 Z" class="highcharts-point"></path><path fill="#f7a35c" d="M 563 243 A 4 4 0 1 1 562.9999980000001 242.99600000066667 Z" class="highcharts-point"></path><path fill="#f7a35c" d="M 602 235 A 4 4 0 1 1 601.9999980000001 234.99600000066667 Z" class="highcharts-point"></path><path fill="#f7a35c" d="M 646 26 A 4 4 0 1 1 645.9999980000001 25.996000000666665 Z" class="highcharts-point"></path><path fill="#f7a35c" d="M 704 93 A 4 4 0 1 1 703.9999980000001 92.99600000066667 Z" class="highcharts-point"></path><path fill="#f7a35c" d="M 738 62 A 4 4 0 1 1 737.9999980000001 61.99600000066666 Z" class="highcharts-point"></path><path fill="#f7a35c" d="M 784 206 A 4 4 0 1 1 783.9999980000001 205.99600000066667 Z" class="highcharts-point"></path><path fill="#f7a35c" d="M 837 201 A 4 4 0 1 1 836.9999980000001 200.99600000066667 Z" class="highcharts-point"></path><path fill="#f7a35c" d="M 884 131 A 4 4 0 1 1 883.9999980000001 130.99600000066667 Z" class="highcharts-point"></path></g><g data-z-index="0.1" class="highcharts-series highcharts-series-5 highcharts-line-series " transform="translate(64,57) scale(1 1)" clip-path="url(#highcharts-qqf7s0o-2571)"><path fill="none" d="M 8.6862745098039 277.37233364572836 L 877.3137254902 108.96115997114924" class="highcharts-graph" data-z-index="1" stroke="#f7a35c" stroke-width="2" stroke-dasharray="none"></path></g><g data-z-index="0.1" class="highcharts-markers highcharts-series-5 highcharts-line-series " transform="translate(64,57) scale(1 1)" clip-path="none"></g></g><text x="480" text-anchor="middle" class="highcharts-title" data-z-index="4" style="color:#333333;font-size:14;font-weight:normal;fill:#333333;" y="21"><tspan>AR(3)</tspan></text><text x="480" text-anchor="middle" class="highcharts-subtitle" data-z-index="4" style="color:#666666;font-weight:normal;fill:#666666;" y="41"><tspan>R run time</tspan></text><g class="highcharts-legend" data-z-index="7" transform="translate(343,499)"><rect fill="none" class="highcharts-legend-box" rx="0" ry="0" x="0" y="0" width="273" height="26" visibility="visible"></rect><g data-z-index="1"><g><g class="highcharts-legend-item highcharts-scatter-series highcharts-color-undefined highcharts-series-0" data-z-index="1" transform="translate(8,3)"><path fill="none" d="M 0 11 L 16 11" class="highcharts-graph" stroke-dasharray="none"></path><path fill="#7cb5ec" d="M 12 11 A 4 4 0 1 1 11.999998000000167 10.996000000666664 Z" class="highcharts-point"></path><text x="21" style="color:#333333;cursor:pointer;font-size:12px;font-weight:bold;fill:#333333;" text-anchor="start" data-z-index="2" y="15"><tspan>forwardsub</tspan></text></g><g class="highcharts-legend-item highcharts-scatter-series highcharts-color-undefined highcharts-series-2" data-z-index="1" transform="translate(120.515625,3)"><path fill="none" d="M 0 11 L 16 11" class="highcharts-graph" stroke-dasharray="none"></path><path fill="#90ed7d" d="M 12 11 A 4 4 0 1 1 11.999998000000167 10.996000000666664 Z" class="highcharts-point"></path><text x="21" y="15" style="color:#333333;cursor:pointer;font-size:12px;font-weight:bold;fill:#333333;" text-anchor="start" data-z-index="2"><tspan>inverse</tspan></text></g><g class="highcharts-legend-item highcharts-scatter-series highcharts-color-undefined highcharts-series-4" data-z-index="1" transform="translate(206.71875,3)"><path fill="none" d="M 0 11 L 16 11" class="highcharts-graph" stroke-dasharray="none"></path><path fill="#f7a35c" d="M 12 11 A 4 4 0 1 1 11.999998000000167 10.996000000666664 Z" class="highcharts-point"></path><text x="21" y="15" style="color:#333333;cursor:pointer;font-size:12px;font-weight:bold;fill:#333333;" text-anchor="start" data-z-index="2"><tspan>jacobi</tspan></text></g></g></g></g><g class="highcharts-axis-labels highcharts-xaxis-labels " data-z-index="7"><text x="72.640554869245" style="color:#666666;cursor:default;font-size:11px;font-weight:normal;fill:#666666;" text-anchor="middle" transform="translate(0,0)" y="465" opacity="1">0</text><text x="164.07983598724" style="color:#666666;cursor:default;font-size:11px;font-weight:normal;fill:#666666;" text-anchor="middle" transform="translate(0,0)" y="465" opacity="1">100k</text><text x="255.51911710523" style="color:#666666;cursor:default;font-size:11px;font-weight:normal;fill:#666666;" text-anchor="middle" transform="translate(0,0)" y="465" opacity="1">200k</text><text x="346.95839822323" style="color:#666666;cursor:default;font-size:11px;font-weight:normal;fill:#666666;" text-anchor="middle" transform="translate(0,0)" y="465" opacity="1">300k</text><text x="438.39767934122" style="color:#666666;cursor:default;font-size:11px;font-weight:normal;fill:#666666;" text-anchor="middle" transform="translate(0,0)" y="465" opacity="1">400k</text><text x="529.83696045922" style="color:#666666;cursor:default;font-size:11px;font-weight:normal;fill:#666666;" text-anchor="middle" transform="translate(0,0)" y="465" opacity="1">500k</text><text x="621.27624157721" style="color:#666666;cursor:default;font-size:11px;font-weight:normal;fill:#666666;" text-anchor="middle" transform="translate(0,0)" y="465" opacity="1">600k</text><text x="712.71552269521" style="color:#666666;cursor:default;font-size:11px;font-weight:normal;fill:#666666;" text-anchor="middle" transform="translate(0,0)" y="465" opacity="1">700k</text><text x="804.1548038132" style="color:#666666;cursor:default;font-size:11px;font-weight:normal;fill:#666666;" text-anchor="middle" transform="translate(0,0)" y="465" opacity="1">800k</text><text x="895.5940849312" style="color:#666666;cursor:default;font-size:11px;font-weight:normal;fill:#666666;" text-anchor="middle" transform="translate(0,0)" y="465" opacity="1">900k</text></g><g class="highcharts-axis-labels highcharts-yaxis-labels " data-z-index="7"><text x="49" style="color:#666666;cursor:default;font-size:11px;font-weight:normal;fill:#666666;" text-anchor="end" transform="translate(0,0)" y="451" opacity="1">0</text><text x="49" style="color:#666666;cursor:default;font-size:11px;font-weight:normal;fill:#666666;" text-anchor="end" transform="translate(0,0)" y="395" opacity="1">5</text><text x="49" style="color:#666666;cursor:default;font-size:11px;font-weight:normal;fill:#666666;" text-anchor="end" transform="translate(0,0)" y="339" opacity="1">10</text><text x="49" style="color:#666666;cursor:default;font-size:11px;font-weight:normal;fill:#666666;" text-anchor="end" transform="translate(0,0)" y="284" opacity="1">15</text><text x="49" style="color:#666666;cursor:default;font-size:11px;font-weight:normal;fill:#666666;" text-anchor="end" transform="translate(0,0)" y="228" opacity="1">20</text><text x="49" style="color:#666666;cursor:default;font-size:11px;font-weight:normal;fill:#666666;" text-anchor="end" transform="translate(0,0)" y="173" opacity="1">25</text><text x="49" style="color:#666666;cursor:default;font-size:11px;font-weight:normal;fill:#666666;" text-anchor="end" transform="translate(0,0)" y="117" opacity="1">30</text><text x="49" style="color:#666666;cursor:default;font-size:11px;font-weight:normal;fill:#666666;" text-anchor="end" transform="translate(0,0)" y="62" opacity="1">35</text></g></svg>