<svg xmlns:xlink="http://www.w3.org/1999/xlink" version="1.1" class="highcharts-root" style="font-family:&quot;Lucida Grande&quot;, &quot;Lucida Sans Unicode&quot;, Arial, Helvetica, sans-serif;font-size:12px;" xmlns="http://www.w3.org/2000/svg" width="960" height="540" viewBox="0 0 960 540"><desc>Created with Highcharts 7.0.2</desc><defs><clipPath id="highcharts-iz2yr1r-5791"><rect x="0" y="0" width="876" height="389" fill="none"></rect></clipPath></defs><rect fill="#ffffff" class="highcharts-background" x="0" y="0" width="960" height="540" rx="0" ry="0"></rect><rect fill="none" class="highcharts-plot-background" x="74" y="57" width="876" height="389"></rect><g class="highcharts-pane-group" data-z-index="0"></g><g class="highcharts-grid highcharts-xaxis-grid " data-z-index="1"><path fill="none" stroke-dasharray="none" data-z-index="1" class="highcharts-grid-line" d="M 127.5 57 L 127.5 446" opacity="1"></path><path fill="none" stroke-dasharray="none" data-z-index="1" class="highcharts-grid-line" d="M 219.5 57 L 219.5 446" opacity="1"></path><path fill="none" stroke-dasharray="none" data-z-index="1" class="highcharts-grid-line" d="M 310.5 57 L 310.5 446" opacity="1"></path><path fill="none" stroke-dasharray="none" data-z-index="1" class="highcharts-grid-line" d="M 401.5 57 L 401.5 446" opacity="1"></path><path fill="none" stroke-dasharray="none" data-z-index="1" class="highcharts-grid-line" d="M 493.5 57 L 493.5 446" opacity="1"></path><path fill="none" stroke-dasharray="none" data-z-index="1" class="highcharts-grid-line" d="M 584.5 57 L 584.5 446" opacity="1"></path><path fill="none" stroke-dasharray="none" data-z-index="1" class="highcharts-grid-line" d="M 675.5 57 L 675.5 446" opacity="1"></path><path fill="none" stroke-dasharray="none" data-z-index="1" class="highcharts-grid-line" d="M 766.5 57 L 766.5 446" opacity="1"></path><path fill="none" stroke-dasharray="none" data-z-index="1" class="highcharts-grid-line" d="M 858.5 57 L 858.5 446" opacity="1"></path><path fill="none" stroke-dasharray="none" data-z-index="1" class="highcharts-grid-line" d="M 949.5 57 L 949.5 446" opacity="1"></path></g><g class="highcharts-grid highcharts-yaxis-grid " data-z-index="1"><path fill="none" stroke="#e6e6e6" stroke-width="1" stroke-dasharray="none" data-z-index="1" class="highcharts-grid-line" d="M 74 446.5 L 950 446.5" opacity="1"></path><path fill="none" stroke="#e6e6e6" stroke-width="1" stroke-dasharray="none" data-z-index="1" class="highcharts-grid-line" d="M 74 381.5 L 950 381.5" opacity="1"></path><path fill="none" stroke="#e6e6e6" stroke-width="1" stroke-dasharray="none" data-z-index="1" class="highcharts-grid-line" d="M 74 316.5 L 950 316.5" opacity="1"></path><path fill="none" stroke="#e6e6e6" stroke-width="1" stroke-dasharray="none" data-z-index="1" class="highcharts-grid-line" d="M 74 252.5 L 950 252.5" opacity="1"></path><path fill="none" stroke="#e6e6e6" stroke-width="1" stroke-dasharray="none" data-z-index="1" class="highcharts-grid-line" d="M 74 187.5 L 950 187.5" opacity="1"></path><path fill="none" stroke="#e6e6e6" stroke-width="1" stroke-dasharray="none" data-z-index="1" class="highcharts-grid-line" d="M 74 122.5 L 950 122.5" opacity="1"></path><path fill="none" stroke="#e6e6e6" stroke-width="1" stroke-dasharray="none" data-z-index="1" class="highcharts-grid-line" d="M 74 56.5 L 950 56.5" opacity="1"></path></g><rect fill="none" class="highcharts-plot-border" data-z-index="1" x="74" y="57" width="876" height="389"></rect><g class="highcharts-axis highcharts-xaxis " data-z-index="2"><path fill="none" class="highcharts-tick" stroke="#ccd6eb" stroke-width="1" d="M 127.5 446 L 127.5 456" opacity="1"></path><path fill="none" class="highcharts-tick" stroke="#ccd6eb" stroke-width="1" d="M 219.5 446 L 219.5 456" opacity="1"></path><path fill="none" class="highcharts-tick" stroke="#ccd6eb" stroke-width="1" d="M 310.5 446 L 310.5 456" opacity="1"></path><path fill="none" class="highcharts-tick" stroke="#ccd6eb" stroke-width="1" d="M 401.5 446 L 401.5 456" opacity="1"></path><path fill="none" class="highcharts-tick" stroke="#ccd6eb" stroke-width="1" d="M 493.5 446 L 493.5 456" opacity="1"></path><path fill="none" class="highcharts-tick" stroke="#ccd6eb" stroke-width="1" d="M 584.5 446 L 584.5 456" opacity="1"></path><path fill="none" class="highcharts-tick" stroke="#ccd6eb" stroke-width="1" d="M 675.5 446 L 675.5 456" opacity="1"></path><path fill="none" class="highcharts-tick" stroke="#ccd6eb" stroke-width="1" d="M 766.5 446 L 766.5 456" opacity="1"></path><path fill="none" class="highcharts-tick" stroke="#ccd6eb" stroke-width="1" d="M 858.5 446 L 858.5 456" opacity="1"></path><path fill="none" class="highcharts-tick" stroke="#ccd6eb" stroke-width="1" d="M 950.5 446 L 950.5 456" opacity="1"></path><text x="512" data-z-index="7" text-anchor="middle" transform="translate(0,0)" class="highcharts-axis-title" style="color:#666666;font-weight:normal;fill:#666666;" y="484"><tspan>Xsize</tspan></text><path fill="none" class="highcharts-axis-line" stroke="#ccd6eb" stroke-width="1" data-z-index="7" d="M 74 446.5 L 950 446.5"></path></g><g class="highcharts-axis highcharts-yaxis " data-z-index="2"><text x="24.65625" data-z-index="7" text-anchor="middle" transform="translate(0,0) rotate(270 24.65625 251.5)" class="highcharts-axis-title" style="color:#666666;font-weight:normal;fill:#666666;" y="251.5"><tspan>r_exec_time</tspan></text><path fill="none" class="highcharts-axis-line" data-z-index="7" d="M 74 57 L 74 446"></path></g><g class="highcharts-series-group" data-z-index="3"><g data-z-index="0.1" class="highcharts-series highcharts-series-0 highcharts-scatter-series " transform="translate(74,57) scale(1 1)" clip-path="url(#highcharts-iz2yr1r-5791)"></g><g data-z-index="0.1" class="highcharts-markers highcharts-series-0 highcharts-scatter-series " transform="translate(74,57) scale(1 1)" clip-path="none"><path fill="#7cb5ec" d="M 12 142 A 4 4 0 1 1 11.999998000000167 141.99600000066667 Z" class="highcharts-point"></path><path fill="#7cb5ec" d="M 58 325 A 4 4 0 1 1 57.99999800000017 324.99600000066664 Z" class="highcharts-point"></path><path fill="#7cb5ec" d="M 103 320 A 4 4 0 1 1 102.99999800000016 319.99600000066664 Z" class="highcharts-point"></path><path fill="#7cb5ec" d="M 149 321 A 4 4 0 1 1 148.99999800000018 320.99600000066664 Z" class="highcharts-point"></path><path fill="#7cb5ec" d="M 195 320 A 4 4 0 1 1 194.99999800000018 319.99600000066664 Z" class="highcharts-point"></path><path fill="#7cb5ec" d="M 240 308 A 4 4 0 1 1 239.99999800000018 307.99600000066664 Z" class="highcharts-point"></path><path fill="#7cb5ec" d="M 286 325 A 4 4 0 1 1 285.9999980000002 324.99600000066664 Z" class="highcharts-point"></path><path fill="#7cb5ec" d="M 332 241 A 4 4 0 1 1 331.9999980000002 240.99600000066667 Z" class="highcharts-point"></path><path fill="#7cb5ec" d="M 377 275 A 4 4 0 1 1 376.9999980000002 274.99600000066664 Z" class="highcharts-point"></path><path fill="#7cb5ec" d="M 423 315 A 4 4 0 1 1 422.9999980000002 314.99600000066664 Z" class="highcharts-point"></path><path fill="#7cb5ec" d="M 469 169 A 4 4 0 1 1 468.9999980000002 168.99600000066667 Z" class="highcharts-point"></path><path fill="#7cb5ec" d="M 514 247 A 4 4 0 1 1 513.9999980000001 246.99600000066667 Z" class="highcharts-point"></path><path fill="#7cb5ec" d="M 560 297 A 4 4 0 1 1 559.9999980000001 296.99600000066664 Z" class="highcharts-point"></path><path fill="#7cb5ec" d="M 606 318 A 4 4 0 1 1 605.9999980000001 317.99600000066664 Z" class="highcharts-point"></path><path fill="#7cb5ec" d="M 651 314 A 4 4 0 1 1 650.9999980000001 313.99600000066664 Z" class="highcharts-point"></path><path fill="#7cb5ec" d="M 697 316 A 4 4 0 1 1 696.9999980000001 315.99600000066664 Z" class="highcharts-point"></path><path fill="#7cb5ec" d="M 743 313 A 4 4 0 1 1 742.9999980000001 312.99600000066664 Z" class="highcharts-point"></path><path fill="#7cb5ec" d="M 788 314 A 4 4 0 1 1 787.9999980000001 313.99600000066664 Z" class="highcharts-point"></path><path fill="#7cb5ec" d="M 834 314 A 4 4 0 1 1 833.9999980000001 313.99600000066664 Z" class="highcharts-point"></path><path fill="#7cb5ec" d="M 880 320 A 4 4 0 1 1 879.9999980000001 319.99600000066664 Z" class="highcharts-point"></path></g><g data-z-index="0.1" class="highcharts-series highcharts-series-1 highcharts-scatter-series " transform="translate(74,57) scale(1 1)" clip-path="url(#highcharts-iz2yr1r-5791)"></g><g data-z-index="0.1" class="highcharts-markers highcharts-series-1 highcharts-scatter-series " transform="translate(74,57) scale(1 1)" clip-path="none"><path fill="#90ed7d" d="M 12 325 A 4 4 0 1 1 11.999998000000167 324.99600000066664 Z" class="highcharts-point"></path><path fill="#90ed7d" d="M 58 326 A 4 4 0 1 1 57.99999800000017 325.99600000066664 Z" class="highcharts-point"></path><path fill="#90ed7d" d="M 103 326 A 4 4 0 1 1 102.99999800000016 325.99600000066664 Z" class="highcharts-point"></path><path fill="#90ed7d" d="M 149 328 A 4 4 0 1 1 148.99999800000018 327.99600000066664 Z" class="highcharts-point"></path><path fill="#90ed7d" d="M 195 324 A 4 4 0 1 1 194.99999800000018 323.99600000066664 Z" class="highcharts-point"></path><path fill="#90ed7d" d="M 240 306 A 4 4 0 1 1 239.99999800000018 305.99600000066664 Z" class="highcharts-point"></path><path fill="#90ed7d" d="M 286 312 A 4 4 0 1 1 285.9999980000002 311.99600000066664 Z" class="highcharts-point"></path><path fill="#90ed7d" d="M 332 320 A 4 4 0 1 1 331.9999980000002 319.99600000066664 Z" class="highcharts-point"></path><path fill="#90ed7d" d="M 377 318 A 4 4 0 1 1 376.9999980000002 317.99600000066664 Z" class="highcharts-point"></path><path fill="#90ed7d" d="M 423 312 A 4 4 0 1 1 422.9999980000002 311.99600000066664 Z" class="highcharts-point"></path><path fill="#90ed7d" d="M 469 319 A 4 4 0 1 1 468.9999980000002 318.99600000066664 Z" class="highcharts-point"></path><path fill="#90ed7d" d="M 514 319 A 4 4 0 1 1 513.9999980000001 318.99600000066664 Z" class="highcharts-point"></path><path fill="#90ed7d" d="M 560 310 A 4 4 0 1 1 559.9999980000001 309.99600000066664 Z" class="highcharts-point"></path><path fill="#90ed7d" d="M 606 315 A 4 4 0 1 1 605.9999980000001 314.99600000066664 Z" class="highcharts-point"></path><path fill="#90ed7d" d="M 651 315 A 4 4 0 1 1 650.9999980000001 314.99600000066664 Z" class="highcharts-point"></path><path fill="#90ed7d" d="M 697 316 A 4 4 0 1 1 696.9999980000001 315.99600000066664 Z" class="highcharts-point"></path><path fill="#90ed7d" d="M 743 314 A 4 4 0 1 1 742.9999980000001 313.99600000066664 Z" class="highcharts-point"></path><path fill="#90ed7d" d="M 788 315 A 4 4 0 1 1 787.9999980000001 314.99600000066664 Z" class="highcharts-point"></path><path fill="#90ed7d" d="M 834 320 A 4 4 0 1 1 833.9999980000001 319.99600000066664 Z" class="highcharts-point"></path><path fill="#90ed7d" d="M 880 308 A 4 4 0 1 1 879.9999980000001 307.99600000066664 Z" class="highcharts-point"></path></g><g data-z-index="0.1" class="highcharts-series highcharts-series-2 highcharts-scatter-series " transform="translate(74,57) scale(1 1)" clip-path="url(#highcharts-iz2yr1r-5791)"></g><g data-z-index="0.1" class="highcharts-markers highcharts-series-2 highcharts-scatter-series " transform="translate(74,57) scale(1 1)" clip-path="none"><path fill="#f7a35c" d="M 12 308 A 4 4 0 1 1 11.999998000000167 307.99600000066664 Z" class="highcharts-point"></path><path fill="#f7a35c" d="M 58 283 A 4 4 0 1 1 57.99999800000017 282.99600000066664 Z" class="highcharts-point"></path><path fill="#f7a35c" d="M 103 283 A 4 4 0 1 1 102.99999800000016 282.99600000066664 Z" class="highcharts-point"></path><path fill="#f7a35c" d="M 149 322 A 4 4 0 1 1 148.99999800000018 321.99600000066664 Z" class="highcharts-point"></path><path fill="#f7a35c" d="M 195 310 A 4 4 0 1 1 194.99999800000018 309.99600000066664 Z" class="highcharts-point"></path><path fill="#f7a35c" d="M 240 245 A 4 4 0 1 1 239.99999800000018 244.99600000066667 Z" class="highcharts-point"></path><path fill="#f7a35c" d="M 286 320 A 4 4 0 1 1 285.9999980000002 319.99600000066664 Z" class="highcharts-point"></path><path fill="#f7a35c" d="M 332 315 A 4 4 0 1 1 331.9999980000002 314.99600000066664 Z" class="highcharts-point"></path><path fill="#f7a35c" d="M 377 235 A 4 4 0 1 1 376.9999980000002 234.99600000066667 Z" class="highcharts-point"></path><path fill="#f7a35c" d="M 423 62 A 4 4 0 1 1 422.9999980000002 61.99600000066666 Z" class="highcharts-point"></path><path fill="#f7a35c" d="M 469 321 A 4 4 0 1 1 468.9999980000002 320.99600000066664 Z" class="highcharts-point"></path><path fill="#f7a35c" d="M 514 320 A 4 4 0 1 1 513.9999980000001 319.99600000066664 Z" class="highcharts-point"></path><path fill="#f7a35c" d="M 560 207 A 4 4 0 1 1 559.9999980000001 206.99600000066667 Z" class="highcharts-point"></path><path fill="#f7a35c" d="M 606 159 A 4 4 0 1 1 605.9999980000001 158.99600000066667 Z" class="highcharts-point"></path><path fill="#f7a35c" d="M 651 315 A 4 4 0 1 1 650.9999980000001 314.99600000066664 Z" class="highcharts-point"></path><path fill="#f7a35c" d="M 697 261 A 4 4 0 1 1 696.9999980000001 260.99600000066664 Z" class="highcharts-point"></path><path fill="#f7a35c" d="M 743 292 A 4 4 0 1 1 742.9999980000001 291.99600000066664 Z" class="highcharts-point"></path><path fill="#f7a35c" d="M 788 305 A 4 4 0 1 1 787.9999980000001 304.99600000066664 Z" class="highcharts-point"></path><path fill="#f7a35c" d="M 834 314 A 4 4 0 1 1 833.9999980000001 313.99600000066664 Z" class="highcharts-point"></path><path fill="#f7a35c" d="M 880 297 A 4 4 0 1 1 879.9999980000001 296.99600000066664 Z" class="highcharts-point"></path></g></g><text x="480" text-anchor="middle" class="highcharts-title" data-z-index="4" style="color:#333333;font-size:14;font-weight:normal;fill:#333333;" y="21"><tspan>ARIMA(2,1,2)</tspan></text><text x="480" text-anchor="middle" class="highcharts-subtitle" data-z-index="4" style="color:#666666;font-weight:normal;fill:#666666;" y="41"><tspan>R execution time</tspan></text><g class="highcharts-legend" data-z-index="7" transform="translate(343,499)"><rect fill="none" class="highcharts-legend-box" rx="0" ry="0" x="0" y="0" width="273" height="26" visibility="visible"></rect><g data-z-index="1"><g><g class="highcharts-legend-item highcharts-scatter-series highcharts-color-undefined highcharts-series-0" data-z-index="1" transform="translate(8,3)"><path fill="none" d="M 0 11 L 16 11" class="highcharts-graph" stroke-dasharray="none"></path><path fill="#7cb5ec" d="M 12 11 A 4 4 0 1 1 11.999998000000167 10.996000000666664 Z" class="highcharts-point"></path><text x="21" style="color:#333333;cursor:pointer;font-size:12px;font-weight:bold;fill:#333333;" text-anchor="start" data-z-index="2" y="15"><tspan>forwardsub</tspan></text></g><g class="highcharts-legend-item highcharts-scatter-series highcharts-color-undefined highcharts-series-1" data-z-index="1" transform="translate(120.515625,3)"><path fill="none" d="M 0 11 L 16 11" class="highcharts-graph" stroke-dasharray="none"></path><path fill="#90ed7d" d="M 12 11 A 4 4 0 1 1 11.999998000000167 10.996000000666664 Z" class="highcharts-point"></path><text x="21" y="15" style="color:#333333;cursor:pointer;font-size:12px;font-weight:bold;fill:#333333;" text-anchor="start" data-z-index="2"><tspan>inverse</tspan></text></g><g class="highcharts-legend-item highcharts-scatter-series highcharts-color-undefined highcharts-series-2" data-z-index="1" transform="translate(206.71875,3)"><path fill="none" d="M 0 11 L 16 11" class="highcharts-graph" stroke-dasharray="none"></path><path fill="#f7a35c" d="M 12 11 A 4 4 0 1 1 11.999998000000167 10.996000000666664 Z" class="highcharts-point"></path><text x="21" y="15" style="color:#333333;cursor:pointer;font-size:12px;font-weight:bold;fill:#333333;" text-anchor="start" data-z-index="2"><tspan>jacobi</tspan></text></g></g></g></g><g class="highcharts-axis-labels highcharts-xaxis-labels " data-z-index="7"><text x="128.32204273059" style="color:#666666;cursor:default;font-size:11px;font-weight:normal;fill:#666666;" text-anchor="middle" transform="translate(0,0)" y="465" opacity="1">100</text><text x="219.6195935383" style="color:#666666;cursor:default;font-size:11px;font-weight:normal;fill:#666666;" text-anchor="middle" transform="translate(0,0)" y="465" opacity="1">200</text><text x="310.91714434601" style="color:#666666;cursor:default;font-size:11px;font-weight:normal;fill:#666666;" text-anchor="middle" transform="translate(0,0)" y="465" opacity="1">300</text><text x="402.21469515373" style="color:#666666;cursor:default;font-size:11px;font-weight:normal;fill:#666666;" text-anchor="middle" transform="translate(0,0)" y="465" opacity="1">400</text><text x="493.51224596144" style="color:#666666;cursor:default;font-size:11px;font-weight:normal;fill:#666666;" text-anchor="middle" transform="translate(0,0)" y="465" opacity="1">500</text><text x="584.80979676915" style="color:#666666;cursor:default;font-size:11px;font-weight:normal;fill:#666666;" text-anchor="middle" transform="translate(0,0)" y="465" opacity="1">600</text><text x="676.10734757686" style="color:#666666;cursor:default;font-size:11px;font-weight:normal;fill:#666666;" text-anchor="middle" transform="translate(0,0)" y="465" opacity="1">700</text><text x="767.40489838458" style="color:#666666;cursor:default;font-size:11px;font-weight:normal;fill:#666666;" text-anchor="middle" transform="translate(0,0)" y="465" opacity="1">800</text><text x="858.70244919229" style="color:#666666;cursor:default;font-size:11px;font-weight:normal;fill:#666666;" text-anchor="middle" transform="translate(0,0)" y="465" opacity="1">900</text><text x="936.09375" style="color:#666666;cursor:default;font-size:11px;font-weight:normal;fill:#666666;" text-anchor="middle" transform="translate(0,0)" y="465" opacity="1">1000</text></g><g class="highcharts-axis-labels highcharts-yaxis-labels " data-z-index="7"><text x="59" style="color:#666666;cursor:default;font-size:11px;font-weight:normal;fill:#666666;" text-anchor="end" transform="translate(0,0)" y="451" opacity="1">0</text><text x="59" style="color:#666666;cursor:default;font-size:11px;font-weight:normal;fill:#666666;" text-anchor="end" transform="translate(0,0)" y="386" opacity="1">0.05</text><text x="59" style="color:#666666;cursor:default;font-size:11px;font-weight:normal;fill:#666666;" text-anchor="end" transform="translate(0,0)" y="321" opacity="1">0.1</text><text x="59" style="color:#666666;cursor:default;font-size:11px;font-weight:normal;fill:#666666;" text-anchor="end" transform="translate(0,0)" y="256" opacity="1">0.15</text><text x="59" style="color:#666666;cursor:default;font-size:11px;font-weight:normal;fill:#666666;" text-anchor="end" transform="translate(0,0)" y="191" opacity="1">0.2</text><text x="59" style="color:#666666;cursor:default;font-size:11px;font-weight:normal;fill:#666666;" text-anchor="end" transform="translate(0,0)" y="126" opacity="1">0.25</text><text x="59" style="color:#666666;cursor:default;font-size:11px;font-weight:normal;fill:#666666;" text-anchor="end" transform="translate(0,0)" y="62" opacity="1">0.3</text></g></svg>