<svg xmlns:xlink="http://www.w3.org/1999/xlink" version="1.1" class="highcharts-root" style="font-family:&quot;Lucida Grande&quot;, &quot;Lucida Sans Unicode&quot;, Arial, Helvetica, sans-serif;font-size:12px;" xmlns="http://www.w3.org/2000/svg" width="960" height="540" viewBox="0 0 960 540"><desc>Created with Highcharts 7.0.2</desc><defs><clipPath id="highcharts-iz2yr1r-4852"><rect x="0" y="0" width="886" height="389" fill="none"></rect></clipPath></defs><rect fill="#ffffff" class="highcharts-background" x="0" y="0" width="960" height="540" rx="0" ry="0"></rect><rect fill="none" class="highcharts-plot-background" x="64" y="57" width="886" height="389"></rect><g class="highcharts-pane-group" data-z-index="0"></g><g class="highcharts-grid highcharts-xaxis-grid " data-z-index="1"><path fill="none" stroke-dasharray="none" data-z-index="1" class="highcharts-grid-line" d="M 72.5 57 L 72.5 446" opacity="1"></path><path fill="none" stroke-dasharray="none" data-z-index="1" class="highcharts-grid-line" d="M 163.5 57 L 163.5 446" opacity="1"></path><path fill="none" stroke-dasharray="none" data-z-index="1" class="highcharts-grid-line" d="M 255.5 57 L 255.5 446" opacity="1"></path><path fill="none" stroke-dasharray="none" data-z-index="1" class="highcharts-grid-line" d="M 346.5 57 L 346.5 446" opacity="1"></path><path fill="none" stroke-dasharray="none" data-z-index="1" class="highcharts-grid-line" d="M 437.5 57 L 437.5 446" opacity="1"></path><path fill="none" stroke-dasharray="none" data-z-index="1" class="highcharts-grid-line" d="M 529.5 57 L 529.5 446" opacity="1"></path><path fill="none" stroke-dasharray="none" data-z-index="1" class="highcharts-grid-line" d="M 620.5 57 L 620.5 446" opacity="1"></path><path fill="none" stroke-dasharray="none" data-z-index="1" class="highcharts-grid-line" d="M 712.5 57 L 712.5 446" opacity="1"></path><path fill="none" stroke-dasharray="none" data-z-index="1" class="highcharts-grid-line" d="M 803.5 57 L 803.5 446" opacity="1"></path><path fill="none" stroke-dasharray="none" data-z-index="1" class="highcharts-grid-line" d="M 895.5 57 L 895.5 446" opacity="1"></path></g><g class="highcharts-grid highcharts-yaxis-grid " data-z-index="1"><path fill="none" stroke="#e6e6e6" stroke-width="1" stroke-dasharray="none" data-z-index="1" class="highcharts-grid-line" d="M 64 446.5 L 950 446.5" opacity="1"></path><path fill="none" stroke="#e6e6e6" stroke-width="1" stroke-dasharray="none" data-z-index="1" class="highcharts-grid-line" d="M 64 381.5 L 950 381.5" opacity="1"></path><path fill="none" stroke="#e6e6e6" stroke-width="1" stroke-dasharray="none" data-z-index="1" class="highcharts-grid-line" d="M 64 316.5 L 950 316.5" opacity="1"></path><path fill="none" stroke="#e6e6e6" stroke-width="1" stroke-dasharray="none" data-z-index="1" class="highcharts-grid-line" d="M 64 252.5 L 950 252.5" opacity="1"></path><path fill="none" stroke="#e6e6e6" stroke-width="1" stroke-dasharray="none" data-z-index="1" class="highcharts-grid-line" d="M 64 187.5 L 950 187.5" opacity="1"></path><path fill="none" stroke="#e6e6e6" stroke-width="1" stroke-dasharray="none" data-z-index="1" class="highcharts-grid-line" d="M 64 122.5 L 950 122.5" opacity="1"></path><path fill="none" stroke="#e6e6e6" stroke-width="1" stroke-dasharray="none" data-z-index="1" class="highcharts-grid-line" d="M 64 56.5 L 950 56.5" opacity="1"></path></g><rect fill="none" class="highcharts-plot-border" data-z-index="1" x="64" y="57" width="886" height="389"></rect><g class="highcharts-axis highcharts-xaxis " data-z-index="2"><path fill="none" class="highcharts-tick" stroke="#ccd6eb" stroke-width="1" d="M 72.5 446 L 72.5 456" opacity="1"></path><path fill="none" class="highcharts-tick" stroke="#ccd6eb" stroke-width="1" d="M 163.5 446 L 163.5 456" opacity="1"></path><path fill="none" class="highcharts-tick" stroke="#ccd6eb" stroke-width="1" d="M 255.5 446 L 255.5 456" opacity="1"></path><path fill="none" class="highcharts-tick" stroke="#ccd6eb" stroke-width="1" d="M 346.5 446 L 346.5 456" opacity="1"></path><path fill="none" class="highcharts-tick" stroke="#ccd6eb" stroke-width="1" d="M 437.5 446 L 437.5 456" opacity="1"></path><path fill="none" class="highcharts-tick" stroke="#ccd6eb" stroke-width="1" d="M 529.5 446 L 529.5 456" opacity="1"></path><path fill="none" class="highcharts-tick" stroke="#ccd6eb" stroke-width="1" d="M 620.5 446 L 620.5 456" opacity="1"></path><path fill="none" class="highcharts-tick" stroke="#ccd6eb" stroke-width="1" d="M 712.5 446 L 712.5 456" opacity="1"></path><path fill="none" class="highcharts-tick" stroke="#ccd6eb" stroke-width="1" d="M 803.5 446 L 803.5 456" opacity="1"></path><path fill="none" class="highcharts-tick" stroke="#ccd6eb" stroke-width="1" d="M 895.5 446 L 895.5 456" opacity="1"></path><text x="507" data-z-index="7" text-anchor="middle" transform="translate(0,0)" class="highcharts-axis-title" style="color:#666666;font-weight:normal;fill:#666666;" y="484"><tspan>Xsize</tspan></text><path fill="none" class="highcharts-axis-line" stroke="#ccd6eb" stroke-width="1" data-z-index="7" d="M 64 446.5 L 950 446.5"></path></g><g class="highcharts-axis highcharts-yaxis " data-z-index="2"><text x="25.09375" data-z-index="7" text-anchor="middle" transform="translate(0,0) rotate(270 25.09375 251.5)" class="highcharts-axis-title" style="color:#666666;font-weight:normal;fill:#666666;" y="251.5"><tspan>r_exec_time</tspan></text><path fill="none" class="highcharts-axis-line" data-z-index="7" d="M 64 57 L 64 446"></path></g><g class="highcharts-series-group" data-z-index="3"><g data-z-index="0.1" class="highcharts-series highcharts-series-0 highcharts-scatter-series " transform="translate(64,57) scale(1 1)" clip-path="url(#highcharts-iz2yr1r-4852)"></g><g data-z-index="0.1" class="highcharts-markers highcharts-series-0 highcharts-scatter-series " transform="translate(64,57) scale(1 1)" clip-path="none"><path fill="#7cb5ec" d="M 4 386 A 4 4 0 1 1 3.9999980000001667 385.99600000066664 Z" class="highcharts-point"></path><path fill="#7cb5ec" d="M 16 384 A 4 4 0 1 1 15.999998000000167 383.99600000066664 Z" class="highcharts-point"></path><path fill="#7cb5ec" d="M 21 388 A 4 4 0 1 1 20.99999800000017 387.99600000066664 Z" class="highcharts-point"></path><path fill="#7cb5ec" d="M 7 388 A 4 4 0 1 1 6.999998000000167 387.99600000066664 Z" class="highcharts-point"></path><path fill="#7cb5ec" d="M 21 385 A 4 4 0 1 1 20.99999800000017 384.99600000066664 Z" class="highcharts-point"></path><path fill="#7cb5ec" d="M 17 383 A 4 4 0 1 1 16.99999800000017 382.99600000066664 Z" class="highcharts-point"></path><path fill="#7cb5ec" d="M 18 384 A 4 4 0 1 1 17.99999800000017 383.99600000066664 Z" class="highcharts-point"></path><path fill="#7cb5ec" d="M 19 388 A 4 4 0 1 1 18.99999800000017 387.99600000066664 Z" class="highcharts-point"></path><path fill="#7cb5ec" d="M 14 387 A 4 4 0 1 1 13.999998000000167 386.99600000066664 Z" class="highcharts-point"></path><path fill="#7cb5ec" d="M 7 386 A 4 4 0 1 1 6.999998000000167 385.99600000066664 Z" class="highcharts-point"></path><path fill="#7cb5ec" d="M 18 383 A 4 4 0 1 1 17.99999800000017 382.99600000066664 Z" class="highcharts-point"></path><path fill="#7cb5ec" d="M 6 384 A 4 4 0 1 1 5.999998000000167 383.99600000066664 Z" class="highcharts-point"></path><path fill="#7cb5ec" d="M 9 385 A 4 4 0 1 1 8.999998000000167 384.99600000066664 Z" class="highcharts-point"></path><path fill="#7cb5ec" d="M 16 385 A 4 4 0 1 1 15.999998000000167 384.99600000066664 Z" class="highcharts-point"></path><path fill="#7cb5ec" d="M 5 385 A 4 4 0 1 1 4.999998000000167 384.99600000066664 Z" class="highcharts-point"></path><path fill="#7cb5ec" d="M 19 384 A 4 4 0 1 1 18.99999800000017 383.99600000066664 Z" class="highcharts-point"></path><path fill="#7cb5ec" d="M 21 386 A 4 4 0 1 1 20.99999800000017 385.99600000066664 Z" class="highcharts-point"></path><path fill="#7cb5ec" d="M 5 386 A 4 4 0 1 1 4.999998000000167 385.99600000066664 Z" class="highcharts-point"></path><path fill="#7cb5ec" d="M 7 387 A 4 4 0 1 1 6.999998000000167 386.99600000066664 Z" class="highcharts-point"></path><path fill="#7cb5ec" d="M 18 388 A 4 4 0 1 1 17.99999800000017 387.99600000066664 Z" class="highcharts-point"></path><path fill="#7cb5ec" d="M 57 369 A 4 4 0 1 1 56.99999800000017 368.99600000066664 Z" class="highcharts-point"></path><path fill="#7cb5ec" d="M 105 352 A 4 4 0 1 1 104.99999800000016 351.99600000066664 Z" class="highcharts-point"></path><path fill="#7cb5ec" d="M 149 340 A 4 4 0 1 1 148.99999800000018 339.99600000066664 Z" class="highcharts-point"></path><path fill="#7cb5ec" d="M 200 314 A 4 4 0 1 1 199.99999800000018 313.99600000066664 Z" class="highcharts-point"></path><path fill="#7cb5ec" d="M 236 300 A 4 4 0 1 1 235.99999800000018 299.99600000066664 Z" class="highcharts-point"></path><path fill="#7cb5ec" d="M 286 257 A 4 4 0 1 1 285.9999980000002 256.99600000066664 Z" class="highcharts-point"></path><path fill="#7cb5ec" d="M 334 257 A 4 4 0 1 1 333.9999980000002 256.99600000066664 Z" class="highcharts-point"></path><path fill="#7cb5ec" d="M 382 251 A 4 4 0 1 1 381.9999980000002 250.99600000066667 Z" class="highcharts-point"></path><path fill="#7cb5ec" d="M 416 224 A 4 4 0 1 1 415.9999980000002 223.99600000066667 Z" class="highcharts-point"></path><path fill="#7cb5ec" d="M 472 221 A 4 4 0 1 1 471.9999980000002 220.99600000066667 Z" class="highcharts-point"></path><path fill="#7cb5ec" d="M 518 189 A 4 4 0 1 1 517.9999980000001 188.99600000066667 Z" class="highcharts-point"></path><path fill="#7cb5ec" d="M 563 169 A 4 4 0 1 1 562.9999980000001 168.99600000066667 Z" class="highcharts-point"></path><path fill="#7cb5ec" d="M 602 171 A 4 4 0 1 1 601.9999980000001 170.99600000066667 Z" class="highcharts-point"></path><path fill="#7cb5ec" d="M 646 152 A 4 4 0 1 1 645.9999980000001 151.99600000066667 Z" class="highcharts-point"></path><path fill="#7cb5ec" d="M 704 75 A 4 4 0 1 1 703.9999980000001 74.99600000066667 Z" class="highcharts-point"></path><path fill="#7cb5ec" d="M 738 117 A 4 4 0 1 1 737.9999980000001 116.99600000066667 Z" class="highcharts-point"></path><path fill="#7cb5ec" d="M 784 91 A 4 4 0 1 1 783.9999980000001 90.99600000066667 Z" class="highcharts-point"></path><path fill="#7cb5ec" d="M 837 41 A 4 4 0 1 1 836.9999980000001 40.99600000066666 Z" class="highcharts-point"></path><path fill="#7cb5ec" d="M 884 67 A 4 4 0 1 1 883.9999980000001 66.99600000066667 Z" class="highcharts-point"></path></g><g data-z-index="0.1" class="highcharts-series highcharts-series-1 highcharts-scatter-series " transform="translate(64,57) scale(1 1)" clip-path="url(#highcharts-iz2yr1r-4852)"></g><g data-z-index="0.1" class="highcharts-markers highcharts-series-1 highcharts-scatter-series " transform="translate(64,57) scale(1 1)" clip-path="none"><path fill="#90ed7d" d="M 4 386 A 4 4 0 1 1 3.9999980000001667 385.99600000066664 Z" class="highcharts-point"></path><path fill="#90ed7d" d="M 16 388 A 4 4 0 1 1 15.999998000000167 387.99600000066664 Z" class="highcharts-point"></path><path fill="#90ed7d" d="M 21 385 A 4 4 0 1 1 20.99999800000017 384.99600000066664 Z" class="highcharts-point"></path><path fill="#90ed7d" d="M 7 386 A 4 4 0 1 1 6.999998000000167 385.99600000066664 Z" class="highcharts-point"></path><path fill="#90ed7d" d="M 21 387 A 4 4 0 1 1 20.99999800000017 386.99600000066664 Z" class="highcharts-point"></path><path fill="#90ed7d" d="M 17 388 A 4 4 0 1 1 16.99999800000017 387.99600000066664 Z" class="highcharts-point"></path><path fill="#90ed7d" d="M 18 384 A 4 4 0 1 1 17.99999800000017 383.99600000066664 Z" class="highcharts-point"></path><path fill="#90ed7d" d="M 19 387 A 4 4 0 1 1 18.99999800000017 386.99600000066664 Z" class="highcharts-point"></path><path fill="#90ed7d" d="M 14 387 A 4 4 0 1 1 13.999998000000167 386.99600000066664 Z" class="highcharts-point"></path><path fill="#90ed7d" d="M 7 387 A 4 4 0 1 1 6.999998000000167 386.99600000066664 Z" class="highcharts-point"></path><path fill="#90ed7d" d="M 18 385 A 4 4 0 1 1 17.99999800000017 384.99600000066664 Z" class="highcharts-point"></path><path fill="#90ed7d" d="M 6 384 A 4 4 0 1 1 5.999998000000167 383.99600000066664 Z" class="highcharts-point"></path><path fill="#90ed7d" d="M 9 388 A 4 4 0 1 1 8.999998000000167 387.99600000066664 Z" class="highcharts-point"></path><path fill="#90ed7d" d="M 16 384 A 4 4 0 1 1 15.999998000000167 383.99600000066664 Z" class="highcharts-point"></path><path fill="#90ed7d" d="M 5 385 A 4 4 0 1 1 4.999998000000167 384.99600000066664 Z" class="highcharts-point"></path><path fill="#90ed7d" d="M 19 387 A 4 4 0 1 1 18.99999800000017 386.99600000066664 Z" class="highcharts-point"></path><path fill="#90ed7d" d="M 21 387 A 4 4 0 1 1 20.99999800000017 386.99600000066664 Z" class="highcharts-point"></path><path fill="#90ed7d" d="M 5 389 A 4 4 0 1 1 4.999998000000167 388.99600000066664 Z" class="highcharts-point"></path><path fill="#90ed7d" d="M 7 384 A 4 4 0 1 1 6.999998000000167 383.99600000066664 Z" class="highcharts-point"></path><path fill="#90ed7d" d="M 18 388 A 4 4 0 1 1 17.99999800000017 387.99600000066664 Z" class="highcharts-point"></path><path fill="#90ed7d" d="M 57 372 A 4 4 0 1 1 56.99999800000017 371.99600000066664 Z" class="highcharts-point"></path><path fill="#90ed7d" d="M 105 353 A 4 4 0 1 1 104.99999800000016 352.99600000066664 Z" class="highcharts-point"></path></g><g data-z-index="0.1" class="highcharts-series highcharts-series-2 highcharts-scatter-series " transform="translate(64,57) scale(1 1)" clip-path="url(#highcharts-iz2yr1r-4852)"></g><g data-z-index="0.1" class="highcharts-markers highcharts-series-2 highcharts-scatter-series " transform="translate(64,57) scale(1 1)" clip-path="none"><path fill="#f7a35c" d="M 4 389 A 4 4 0 1 1 3.9999980000001667 388.99600000066664 Z" class="highcharts-point"></path><path fill="#f7a35c" d="M 16 384 A 4 4 0 1 1 15.999998000000167 383.99600000066664 Z" class="highcharts-point"></path><path fill="#f7a35c" d="M 21 388 A 4 4 0 1 1 20.99999800000017 387.99600000066664 Z" class="highcharts-point"></path><path fill="#f7a35c" d="M 7 388 A 4 4 0 1 1 6.999998000000167 387.99600000066664 Z" class="highcharts-point"></path><path fill="#f7a35c" d="M 21 385 A 4 4 0 1 1 20.99999800000017 384.99600000066664 Z" class="highcharts-point"></path><path fill="#f7a35c" d="M 17 382 A 4 4 0 1 1 16.99999800000017 381.99600000066664 Z" class="highcharts-point"></path><path fill="#f7a35c" d="M 18 384 A 4 4 0 1 1 17.99999800000017 383.99600000066664 Z" class="highcharts-point"></path><path fill="#f7a35c" d="M 19 388 A 4 4 0 1 1 18.99999800000017 387.99600000066664 Z" class="highcharts-point"></path><path fill="#f7a35c" d="M 14 387 A 4 4 0 1 1 13.999998000000167 386.99600000066664 Z" class="highcharts-point"></path><path fill="#f7a35c" d="M 7 380 A 4 4 0 1 1 6.999998000000167 379.99600000066664 Z" class="highcharts-point"></path><path fill="#f7a35c" d="M 18 386 A 4 4 0 1 1 17.99999800000017 385.99600000066664 Z" class="highcharts-point"></path><path fill="#f7a35c" d="M 6 385 A 4 4 0 1 1 5.999998000000167 384.99600000066664 Z" class="highcharts-point"></path><path fill="#f7a35c" d="M 9 383 A 4 4 0 1 1 8.999998000000167 382.99600000066664 Z" class="highcharts-point"></path><path fill="#f7a35c" d="M 16 382 A 4 4 0 1 1 15.999998000000167 381.99600000066664 Z" class="highcharts-point"></path><path fill="#f7a35c" d="M 5 385 A 4 4 0 1 1 4.999998000000167 384.99600000066664 Z" class="highcharts-point"></path><path fill="#f7a35c" d="M 19 383 A 4 4 0 1 1 18.99999800000017 382.99600000066664 Z" class="highcharts-point"></path><path fill="#f7a35c" d="M 21 386 A 4 4 0 1 1 20.99999800000017 385.99600000066664 Z" class="highcharts-point"></path><path fill="#f7a35c" d="M 5 386 A 4 4 0 1 1 4.999998000000167 385.99600000066664 Z" class="highcharts-point"></path><path fill="#f7a35c" d="M 7 387 A 4 4 0 1 1 6.999998000000167 386.99600000066664 Z" class="highcharts-point"></path><path fill="#f7a35c" d="M 18 387 A 4 4 0 1 1 17.99999800000017 386.99600000066664 Z" class="highcharts-point"></path><path fill="#f7a35c" d="M 57 370 A 4 4 0 1 1 56.99999800000017 369.99600000066664 Z" class="highcharts-point"></path><path fill="#f7a35c" d="M 105 351 A 4 4 0 1 1 104.99999800000016 350.99600000066664 Z" class="highcharts-point"></path><path fill="#f7a35c" d="M 149 340 A 4 4 0 1 1 148.99999800000018 339.99600000066664 Z" class="highcharts-point"></path><path fill="#f7a35c" d="M 200 318 A 4 4 0 1 1 199.99999800000018 317.99600000066664 Z" class="highcharts-point"></path><path fill="#f7a35c" d="M 236 301 A 4 4 0 1 1 235.99999800000018 300.99600000066664 Z" class="highcharts-point"></path><path fill="#f7a35c" d="M 286 265 A 4 4 0 1 1 285.9999980000002 264.99600000066664 Z" class="highcharts-point"></path><path fill="#f7a35c" d="M 334 262 A 4 4 0 1 1 333.9999980000002 261.99600000066664 Z" class="highcharts-point"></path><path fill="#f7a35c" d="M 382 233 A 4 4 0 1 1 381.9999980000002 232.99600000066667 Z" class="highcharts-point"></path><path fill="#f7a35c" d="M 416 213 A 4 4 0 1 1 415.9999980000002 212.99600000066667 Z" class="highcharts-point"></path><path fill="#f7a35c" d="M 472 215 A 4 4 0 1 1 471.9999980000002 214.99600000066667 Z" class="highcharts-point"></path><path fill="#f7a35c" d="M 518 193 A 4 4 0 1 1 517.9999980000001 192.99600000066667 Z" class="highcharts-point"></path><path fill="#f7a35c" d="M 563 178 A 4 4 0 1 1 562.9999980000001 177.99600000066667 Z" class="highcharts-point"></path><path fill="#f7a35c" d="M 602 152 A 4 4 0 1 1 601.9999980000001 151.99600000066667 Z" class="highcharts-point"></path><path fill="#f7a35c" d="M 646 117 A 4 4 0 1 1 645.9999980000001 116.99600000066667 Z" class="highcharts-point"></path><path fill="#f7a35c" d="M 704 125 A 4 4 0 1 1 703.9999980000001 124.99600000066667 Z" class="highcharts-point"></path><path fill="#f7a35c" d="M 738 113 A 4 4 0 1 1 737.9999980000001 112.99600000066667 Z" class="highcharts-point"></path><path fill="#f7a35c" d="M 784 78 A 4 4 0 1 1 783.9999980000001 77.99600000066667 Z" class="highcharts-point"></path><path fill="#f7a35c" d="M 837 46 A 4 4 0 1 1 836.9999980000001 45.99600000066666 Z" class="highcharts-point"></path><path fill="#f7a35c" d="M 884 21 A 4 4 0 1 1 883.9999980000001 20.996000000666665 Z" class="highcharts-point"></path></g></g><text x="480" text-anchor="middle" class="highcharts-title" data-z-index="4" style="color:#333333;font-size:14;font-weight:normal;fill:#333333;" y="21"><tspan>ARIMA(2,1,2)</tspan></text><text x="480" text-anchor="middle" class="highcharts-subtitle" data-z-index="4" style="color:#666666;font-weight:normal;fill:#666666;" y="41"><tspan>R execution time</tspan></text><g class="highcharts-legend" data-z-index="7" transform="translate(343,499)"><rect fill="none" class="highcharts-legend-box" rx="0" ry="0" x="0" y="0" width="273" height="26" visibility="visible"></rect><g data-z-index="1"><g><g class="highcharts-legend-item highcharts-scatter-series highcharts-color-undefined highcharts-series-0" data-z-index="1" transform="translate(8,3)"><path fill="none" d="M 0 11 L 16 11" class="highcharts-graph" stroke-dasharray="none"></path><path fill="#7cb5ec" d="M 12 11 A 4 4 0 1 1 11.999998000000167 10.996000000666664 Z" class="highcharts-point"></path><text x="21" style="color:#333333;cursor:pointer;font-size:12px;font-weight:bold;fill:#333333;" text-anchor="start" data-z-index="2" y="15"><tspan>forwardsub</tspan></text></g><g class="highcharts-legend-item highcharts-scatter-series highcharts-color-undefined highcharts-series-1" data-z-index="1" transform="translate(120.515625,3)"><path fill="none" d="M 0 11 L 16 11" class="highcharts-graph" stroke-dasharray="none"></path><path fill="#90ed7d" d="M 12 11 A 4 4 0 1 1 11.999998000000167 10.996000000666664 Z" class="highcharts-point"></path><text x="21" y="15" style="color:#333333;cursor:pointer;font-size:12px;font-weight:bold;fill:#333333;" text-anchor="start" data-z-index="2"><tspan>inverse</tspan></text></g><g class="highcharts-legend-item highcharts-scatter-series highcharts-color-undefined highcharts-series-2" data-z-index="1" transform="translate(206.71875,3)"><path fill="none" d="M 0 11 L 16 11" class="highcharts-graph" stroke-dasharray="none"></path><path fill="#f7a35c" d="M 12 11 A 4 4 0 1 1 11.999998000000167 10.996000000666664 Z" class="highcharts-point"></path><text x="21" y="15" style="color:#333333;cursor:pointer;font-size:12px;font-weight:bold;fill:#333333;" text-anchor="start" data-z-index="2"><tspan>jacobi</tspan></text></g></g></g></g><g class="highcharts-axis-labels highcharts-xaxis-labels " data-z-index="7"><text x="72.640554869245" style="color:#666666;cursor:default;font-size:11px;font-weight:normal;fill:#666666;" text-anchor="middle" transform="translate(0,0)" y="465" opacity="1">0</text><text x="164.07983598724" style="color:#666666;cursor:default;font-size:11px;font-weight:normal;fill:#666666;" text-anchor="middle" transform="translate(0,0)" y="465" opacity="1">100k</text><text x="255.51911710523" style="color:#666666;cursor:default;font-size:11px;font-weight:normal;fill:#666666;" text-anchor="middle" transform="translate(0,0)" y="465" opacity="1">200k</text><text x="346.95839822323" style="color:#666666;cursor:default;font-size:11px;font-weight:normal;fill:#666666;" text-anchor="middle" transform="translate(0,0)" y="465" opacity="1">300k</text><text x="438.39767934122" style="color:#666666;cursor:default;font-size:11px;font-weight:normal;fill:#666666;" text-anchor="middle" transform="translate(0,0)" y="465" opacity="1">400k</text><text x="529.83696045922" style="color:#666666;cursor:default;font-size:11px;font-weight:normal;fill:#666666;" text-anchor="middle" transform="translate(0,0)" y="465" opacity="1">500k</text><text x="621.27624157721" style="color:#666666;cursor:default;font-size:11px;font-weight:normal;fill:#666666;" text-anchor="middle" transform="translate(0,0)" y="465" opacity="1">600k</text><text x="712.71552269521" style="color:#666666;cursor:default;font-size:11px;font-weight:normal;fill:#666666;" text-anchor="middle" transform="translate(0,0)" y="465" opacity="1">700k</text><text x="804.1548038132" style="color:#666666;cursor:default;font-size:11px;font-weight:normal;fill:#666666;" text-anchor="middle" transform="translate(0,0)" y="465" opacity="1">800k</text><text x="895.5940849312" style="color:#666666;cursor:default;font-size:11px;font-weight:normal;fill:#666666;" text-anchor="middle" transform="translate(0,0)" y="465" opacity="1">900k</text></g><g class="highcharts-axis-labels highcharts-yaxis-labels " data-z-index="7"><text x="49" style="color:#666666;cursor:default;font-size:11px;font-weight:normal;fill:#666666;" text-anchor="end" transform="translate(0,0)" y="451" opacity="1">0</text><text x="49" style="color:#666666;cursor:default;font-size:11px;font-weight:normal;fill:#666666;" text-anchor="end" transform="translate(0,0)" y="386" opacity="1">2</text><text x="49" style="color:#666666;cursor:default;font-size:11px;font-weight:normal;fill:#666666;" text-anchor="end" transform="translate(0,0)" y="321" opacity="1">4</text><text x="49" style="color:#666666;cursor:default;font-size:11px;font-weight:normal;fill:#666666;" text-anchor="end" transform="translate(0,0)" y="256" opacity="1">6</text><text x="49" style="color:#666666;cursor:default;font-size:11px;font-weight:normal;fill:#666666;" text-anchor="end" transform="translate(0,0)" y="191" opacity="1">8</text><text x="49" style="color:#666666;cursor:default;font-size:11px;font-weight:normal;fill:#666666;" text-anchor="end" transform="translate(0,0)" y="126" opacity="1">10</text><text x="49" style="color:#666666;cursor:default;font-size:11px;font-weight:normal;fill:#666666;" text-anchor="end" transform="translate(0,0)" y="62" opacity="1">12</text></g></svg>