<svg xmlns:xlink="http://www.w3.org/1999/xlink" version="1.1" class="highcharts-root" style="font-family:&quot;Lucida Grande&quot;, &quot;Lucida Sans Unicode&quot;, Arial, Helvetica, sans-serif;font-size:12px;" xmlns="http://www.w3.org/2000/svg" width="960" height="540" viewBox="0 0 960 540"><desc>Created with Highcharts 7.0.2</desc><defs><clipPath id="highcharts-iz2yr1r-3070"><rect x="0" y="0" width="883" height="389" fill="none"></rect></clipPath></defs><rect fill="#ffffff" class="highcharts-background" x="0" y="0" width="960" height="540" rx="0" ry="0"></rect><rect fill="none" class="highcharts-plot-background" x="67" y="57" width="883" height="389"></rect><g class="highcharts-pane-group" data-z-index="0"></g><g class="highcharts-grid highcharts-xaxis-grid " data-z-index="1"><path fill="none" stroke-dasharray="none" data-z-index="1" class="highcharts-grid-line" d="M 121.5 57 L 121.5 446" opacity="1"></path><path fill="none" stroke-dasharray="none" data-z-index="1" class="highcharts-grid-line" d="M 213.5 57 L 213.5 446" opacity="1"></path><path fill="none" stroke-dasharray="none" data-z-index="1" class="highcharts-grid-line" d="M 305.5 57 L 305.5 446" opacity="1"></path><path fill="none" stroke-dasharray="none" data-z-index="1" class="highcharts-grid-line" d="M 397.5 57 L 397.5 446" opacity="1"></path><path fill="none" stroke-dasharray="none" data-z-index="1" class="highcharts-grid-line" d="M 489.5 57 L 489.5 446" opacity="1"></path><path fill="none" stroke-dasharray="none" data-z-index="1" class="highcharts-grid-line" d="M 581.5 57 L 581.5 446" opacity="1"></path><path fill="none" stroke-dasharray="none" data-z-index="1" class="highcharts-grid-line" d="M 673.5 57 L 673.5 446" opacity="1"></path><path fill="none" stroke-dasharray="none" data-z-index="1" class="highcharts-grid-line" d="M 765.5 57 L 765.5 446" opacity="1"></path><path fill="none" stroke-dasharray="none" data-z-index="1" class="highcharts-grid-line" d="M 857.5 57 L 857.5 446" opacity="1"></path><path fill="none" stroke-dasharray="none" data-z-index="1" class="highcharts-grid-line" d="M 949.5 57 L 949.5 446" opacity="1"></path></g><g class="highcharts-grid highcharts-yaxis-grid " data-z-index="1"><path fill="none" stroke="#e6e6e6" stroke-width="1" stroke-dasharray="none" data-z-index="1" class="highcharts-grid-line" d="M 67 446.5 L 950 446.5" opacity="1"></path><path fill="none" stroke="#e6e6e6" stroke-width="1" stroke-dasharray="none" data-z-index="1" class="highcharts-grid-line" d="M 67 403.5 L 950 403.5" opacity="1"></path><path fill="none" stroke="#e6e6e6" stroke-width="1" stroke-dasharray="none" data-z-index="1" class="highcharts-grid-line" d="M 67 360.5 L 950 360.5" opacity="1"></path><path fill="none" stroke="#e6e6e6" stroke-width="1" stroke-dasharray="none" data-z-index="1" class="highcharts-grid-line" d="M 67 316.5 L 950 316.5" opacity="1"></path><path fill="none" stroke="#e6e6e6" stroke-width="1" stroke-dasharray="none" data-z-index="1" class="highcharts-grid-line" d="M 67 273.5 L 950 273.5" opacity="1"></path><path fill="none" stroke="#e6e6e6" stroke-width="1" stroke-dasharray="none" data-z-index="1" class="highcharts-grid-line" d="M 67 230.5 L 950 230.5" opacity="1"></path><path fill="none" stroke="#e6e6e6" stroke-width="1" stroke-dasharray="none" data-z-index="1" class="highcharts-grid-line" d="M 67 187.5 L 950 187.5" opacity="1"></path><path fill="none" stroke="#e6e6e6" stroke-width="1" stroke-dasharray="none" data-z-index="1" class="highcharts-grid-line" d="M 67 143.5 L 950 143.5" opacity="1"></path><path fill="none" stroke="#e6e6e6" stroke-width="1" stroke-dasharray="none" data-z-index="1" class="highcharts-grid-line" d="M 67 100.5 L 950 100.5" opacity="1"></path><path fill="none" stroke="#e6e6e6" stroke-width="1" stroke-dasharray="none" data-z-index="1" class="highcharts-grid-line" d="M 67 56.5 L 950 56.5" opacity="1"></path></g><rect fill="none" class="highcharts-plot-border" data-z-index="1" x="67" y="57" width="883" height="389"></rect><g class="highcharts-axis highcharts-xaxis " data-z-index="2"><path fill="none" class="highcharts-tick" stroke="#ccd6eb" stroke-width="1" d="M 121.5 446 L 121.5 456" opacity="1"></path><path fill="none" class="highcharts-tick" stroke="#ccd6eb" stroke-width="1" d="M 213.5 446 L 213.5 456" opacity="1"></path><path fill="none" class="highcharts-tick" stroke="#ccd6eb" stroke-width="1" d="M 305.5 446 L 305.5 456" opacity="1"></path><path fill="none" class="highcharts-tick" stroke="#ccd6eb" stroke-width="1" d="M 397.5 446 L 397.5 456" opacity="1"></path><path fill="none" class="highcharts-tick" stroke="#ccd6eb" stroke-width="1" d="M 489.5 446 L 489.5 456" opacity="1"></path><path fill="none" class="highcharts-tick" stroke="#ccd6eb" stroke-width="1" d="M 581.5 446 L 581.5 456" opacity="1"></path><path fill="none" class="highcharts-tick" stroke="#ccd6eb" stroke-width="1" d="M 673.5 446 L 673.5 456" opacity="1"></path><path fill="none" class="highcharts-tick" stroke="#ccd6eb" stroke-width="1" d="M 765.5 446 L 765.5 456" opacity="1"></path><path fill="none" class="highcharts-tick" stroke="#ccd6eb" stroke-width="1" d="M 857.5 446 L 857.5 456" opacity="1"></path><path fill="none" class="highcharts-tick" stroke="#ccd6eb" stroke-width="1" d="M 950.5 446 L 950.5 456" opacity="1"></path><text x="508.5" data-z-index="7" text-anchor="middle" transform="translate(0,0)" class="highcharts-axis-title" style="color:#666666;font-weight:normal;fill:#666666;" y="484"><tspan>Xsize</tspan></text><path fill="none" class="highcharts-axis-line" stroke="#ccd6eb" stroke-width="1" data-z-index="7" d="M 67 446.5 L 950 446.5"></path></g><g class="highcharts-axis highcharts-yaxis " data-z-index="2"><text x="24.609375" data-z-index="7" text-anchor="middle" transform="translate(0,0) rotate(270 24.609375 251.5)" class="highcharts-axis-title" style="color:#666666;font-weight:normal;fill:#666666;" y="251.5"><tspan>dml_execution_time</tspan></text><path fill="none" class="highcharts-axis-line" data-z-index="7" d="M 67 57 L 67 446"></path></g><g class="highcharts-series-group" data-z-index="3"><g data-z-index="0.1" class="highcharts-series highcharts-series-0 highcharts-scatter-series " transform="translate(67,57) scale(1 1)" clip-path="url(#highcharts-iz2yr1r-3070)"></g><g data-z-index="0.1" class="highcharts-markers highcharts-series-0 highcharts-scatter-series " transform="translate(67,57) scale(1 1)" clip-path="none"><path fill="#7cb5ec" d="M 12 281 A 4 4 0 1 1 11.999998000000167 280.99600000066664 Z" class="highcharts-point"></path><path fill="#7cb5ec" d="M 58 280 A 4 4 0 1 1 57.99999800000017 279.99600000066664 Z" class="highcharts-point"></path><path fill="#7cb5ec" d="M 104 343 A 4 4 0 1 1 103.99999800000016 342.99600000066664 Z" class="highcharts-point"></path><path fill="#7cb5ec" d="M 150 343 A 4 4 0 1 1 149.99999800000018 342.99600000066664 Z" class="highcharts-point"></path><path fill="#7cb5ec" d="M 196 340 A 4 4 0 1 1 195.99999800000018 339.99600000066664 Z" class="highcharts-point"></path><path fill="#7cb5ec" d="M 242 345 A 4 4 0 1 1 241.99999800000018 344.99600000066664 Z" class="highcharts-point"></path><path fill="#7cb5ec" d="M 288 319 A 4 4 0 1 1 287.9999980000002 318.99600000066664 Z" class="highcharts-point"></path><path fill="#7cb5ec" d="M 334 172 A 4 4 0 1 1 333.9999980000002 171.99600000066667 Z" class="highcharts-point"></path><path fill="#7cb5ec" d="M 380 281 A 4 4 0 1 1 379.9999980000002 280.99600000066664 Z" class="highcharts-point"></path><path fill="#7cb5ec" d="M 426 342 A 4 4 0 1 1 425.9999980000002 341.99600000066664 Z" class="highcharts-point"></path><path fill="#7cb5ec" d="M 472 231 A 4 4 0 1 1 471.9999980000002 230.99600000066667 Z" class="highcharts-point"></path><path fill="#7cb5ec" d="M 518 222 A 4 4 0 1 1 517.9999980000001 221.99600000066667 Z" class="highcharts-point"></path><path fill="#7cb5ec" d="M 564 332 A 4 4 0 1 1 563.9999980000001 331.99600000066664 Z" class="highcharts-point"></path><path fill="#7cb5ec" d="M 610 339 A 4 4 0 1 1 609.9999980000001 338.99600000066664 Z" class="highcharts-point"></path><path fill="#7cb5ec" d="M 656 339 A 4 4 0 1 1 655.9999980000001 338.99600000066664 Z" class="highcharts-point"></path><path fill="#7cb5ec" d="M 702 339 A 4 4 0 1 1 701.9999980000001 338.99600000066664 Z" class="highcharts-point"></path><path fill="#7cb5ec" d="M 748 338 A 4 4 0 1 1 747.9999980000001 337.99600000066664 Z" class="highcharts-point"></path><path fill="#7cb5ec" d="M 794 337 A 4 4 0 1 1 793.9999980000001 336.99600000066664 Z" class="highcharts-point"></path><path fill="#7cb5ec" d="M 840 342 A 4 4 0 1 1 839.9999980000001 341.99600000066664 Z" class="highcharts-point"></path><path fill="#7cb5ec" d="M 887 337 A 4 4 0 1 1 886.9999980000001 336.99600000066664 Z" class="highcharts-point"></path></g><g data-z-index="0.1" class="highcharts-series highcharts-series-1 highcharts-scatter-series " transform="translate(67,57) scale(1 1)" clip-path="url(#highcharts-iz2yr1r-3070)"></g><g data-z-index="0.1" class="highcharts-markers highcharts-series-1 highcharts-scatter-series " transform="translate(67,57) scale(1 1)" clip-path="none"><path fill="#90ed7d" d="M 12 337 A 4 4 0 1 1 11.999998000000167 336.99600000066664 Z" class="highcharts-point"></path><path fill="#90ed7d" d="M 58 319 A 4 4 0 1 1 57.99999800000017 318.99600000066664 Z" class="highcharts-point"></path><path fill="#90ed7d" d="M 104 319 A 4 4 0 1 1 103.99999800000016 318.99600000066664 Z" class="highcharts-point"></path><path fill="#90ed7d" d="M 150 317 A 4 4 0 1 1 149.99999800000018 316.99600000066664 Z" class="highcharts-point"></path><path fill="#90ed7d" d="M 196 310 A 4 4 0 1 1 195.99999800000018 309.99600000066664 Z" class="highcharts-point"></path><path fill="#90ed7d" d="M 242 301 A 4 4 0 1 1 241.99999800000018 300.99600000066664 Z" class="highcharts-point"></path><path fill="#90ed7d" d="M 288 301 A 4 4 0 1 1 287.9999980000002 300.99600000066664 Z" class="highcharts-point"></path><path fill="#90ed7d" d="M 334 294 A 4 4 0 1 1 333.9999980000002 293.99600000066664 Z" class="highcharts-point"></path><path fill="#90ed7d" d="M 380 294 A 4 4 0 1 1 379.9999980000002 293.99600000066664 Z" class="highcharts-point"></path><path fill="#90ed7d" d="M 426 296 A 4 4 0 1 1 425.9999980000002 295.99600000066664 Z" class="highcharts-point"></path><path fill="#90ed7d" d="M 472 287 A 4 4 0 1 1 471.9999980000002 286.99600000066664 Z" class="highcharts-point"></path><path fill="#90ed7d" d="M 518 281 A 4 4 0 1 1 517.9999980000001 280.99600000066664 Z" class="highcharts-point"></path><path fill="#90ed7d" d="M 564 272 A 4 4 0 1 1 563.9999980000001 271.99600000066664 Z" class="highcharts-point"></path><path fill="#90ed7d" d="M 610 267 A 4 4 0 1 1 609.9999980000001 266.99600000066664 Z" class="highcharts-point"></path><path fill="#90ed7d" d="M 656 260 A 4 4 0 1 1 655.9999980000001 259.99600000066664 Z" class="highcharts-point"></path><path fill="#90ed7d" d="M 702 265 A 4 4 0 1 1 701.9999980000001 264.99600000066664 Z" class="highcharts-point"></path><path fill="#90ed7d" d="M 748 254 A 4 4 0 1 1 747.9999980000001 253.99600000066667 Z" class="highcharts-point"></path><path fill="#90ed7d" d="M 794 252 A 4 4 0 1 1 793.9999980000001 251.99600000066667 Z" class="highcharts-point"></path><path fill="#90ed7d" d="M 840 255 A 4 4 0 1 1 839.9999980000001 254.99600000066667 Z" class="highcharts-point"></path><path fill="#90ed7d" d="M 887 270 A 4 4 0 1 1 886.9999980000001 269.99600000066664 Z" class="highcharts-point"></path></g><g data-z-index="0.1" class="highcharts-series highcharts-series-2 highcharts-scatter-series " transform="translate(67,57) scale(1 1)" clip-path="url(#highcharts-iz2yr1r-3070)"></g><g data-z-index="0.1" class="highcharts-markers highcharts-series-2 highcharts-scatter-series " transform="translate(67,57) scale(1 1)" clip-path="none"><path fill="#f7a35c" d="M 12 349 A 4 4 0 1 1 11.999998000000167 348.99600000066664 Z" class="highcharts-point"></path><path fill="#f7a35c" d="M 58 348 A 4 4 0 1 1 57.99999800000017 347.99600000066664 Z" class="highcharts-point"></path><path fill="#f7a35c" d="M 104 150 A 4 4 0 1 1 103.99999800000016 149.99600000066667 Z" class="highcharts-point"></path><path fill="#f7a35c" d="M 150 296 A 4 4 0 1 1 149.99999800000018 295.99600000066664 Z" class="highcharts-point"></path><path fill="#f7a35c" d="M 196 346 A 4 4 0 1 1 195.99999800000018 345.99600000066664 Z" class="highcharts-point"></path><path fill="#f7a35c" d="M 242 171 A 4 4 0 1 1 241.99999800000018 170.99600000066667 Z" class="highcharts-point"></path><path fill="#f7a35c" d="M 288 296 A 4 4 0 1 1 287.9999980000002 295.99600000066664 Z" class="highcharts-point"></path><path fill="#f7a35c" d="M 334 336 A 4 4 0 1 1 333.9999980000002 335.99600000066664 Z" class="highcharts-point"></path><path fill="#f7a35c" d="M 380 337 A 4 4 0 1 1 379.9999980000002 336.99600000066664 Z" class="highcharts-point"></path><path fill="#f7a35c" d="M 426 92 A 4 4 0 1 1 425.9999980000002 91.99600000066667 Z" class="highcharts-point"></path><path fill="#f7a35c" d="M 472 332 A 4 4 0 1 1 471.9999980000002 331.99600000066664 Z" class="highcharts-point"></path><path fill="#f7a35c" d="M 518 336 A 4 4 0 1 1 517.9999980000001 335.99600000066664 Z" class="highcharts-point"></path><path fill="#f7a35c" d="M 564 333 A 4 4 0 1 1 563.9999980000001 332.99600000066664 Z" class="highcharts-point"></path><path fill="#f7a35c" d="M 610 54 A 4 4 0 1 1 609.9999980000001 53.99600000066666 Z" class="highcharts-point"></path><path fill="#f7a35c" d="M 656 327 A 4 4 0 1 1 655.9999980000001 326.99600000066664 Z" class="highcharts-point"></path><path fill="#f7a35c" d="M 702 322 A 4 4 0 1 1 701.9999980000001 321.99600000066664 Z" class="highcharts-point"></path><path fill="#f7a35c" d="M 748 170 A 4 4 0 1 1 747.9999980000001 169.99600000066667 Z" class="highcharts-point"></path><path fill="#f7a35c" d="M 794 301 A 4 4 0 1 1 793.9999980000001 300.99600000066664 Z" class="highcharts-point"></path><path fill="#f7a35c" d="M 840 332 A 4 4 0 1 1 839.9999980000001 331.99600000066664 Z" class="highcharts-point"></path><path fill="#f7a35c" d="M 887 334 A 4 4 0 1 1 886.9999980000001 333.99600000066664 Z" class="highcharts-point"></path></g></g><text x="480" text-anchor="middle" class="highcharts-title" data-z-index="4" style="color:#333333;font-size:14;font-weight:normal;fill:#333333;" y="21"><tspan>ARIMA(2,1,2)</tspan></text><text x="480" text-anchor="middle" class="highcharts-subtitle" data-z-index="4" style="color:#666666;font-weight:normal;fill:#666666;" y="41"><tspan>DML execution time</tspan></text><g class="highcharts-legend" data-z-index="7" transform="translate(343,499)"><rect fill="none" class="highcharts-legend-box" rx="0" ry="0" x="0" y="0" width="273" height="26" visibility="visible"></rect><g data-z-index="1"><g><g class="highcharts-legend-item highcharts-scatter-series highcharts-color-undefined highcharts-series-0" data-z-index="1" transform="translate(8,3)"><path fill="none" d="M 0 11 L 16 11" class="highcharts-graph" stroke-dasharray="none"></path><path fill="#7cb5ec" d="M 12 11 A 4 4 0 1 1 11.999998000000167 10.996000000666664 Z" class="highcharts-point"></path><text x="21" style="color:#333333;cursor:pointer;font-size:12px;font-weight:bold;fill:#333333;" text-anchor="start" data-z-index="2" y="15"><tspan>forwardsub</tspan></text></g><g class="highcharts-legend-item highcharts-scatter-series highcharts-color-undefined highcharts-series-1" data-z-index="1" transform="translate(120.515625,3)"><path fill="none" d="M 0 11 L 16 11" class="highcharts-graph" stroke-dasharray="none"></path><path fill="#90ed7d" d="M 12 11 A 4 4 0 1 1 11.999998000000167 10.996000000666664 Z" class="highcharts-point"></path><text x="21" y="15" style="color:#333333;cursor:pointer;font-size:12px;font-weight:bold;fill:#333333;" text-anchor="start" data-z-index="2"><tspan>inverse</tspan></text></g><g class="highcharts-legend-item highcharts-scatter-series highcharts-color-undefined highcharts-series-2" data-z-index="1" transform="translate(206.71875,3)"><path fill="none" d="M 0 11 L 16 11" class="highcharts-graph" stroke-dasharray="none"></path><path fill="#f7a35c" d="M 12 11 A 4 4 0 1 1 11.999998000000167 10.996000000666664 Z" class="highcharts-point"></path><text x="21" y="15" style="color:#333333;cursor:pointer;font-size:12px;font-weight:bold;fill:#333333;" text-anchor="start" data-z-index="2"><tspan>jacobi</tspan></text></g></g></g></g><g class="highcharts-axis-labels highcharts-xaxis-labels " data-z-index="7"><text x="121.75612298072" style="color:#666666;cursor:default;font-size:11px;font-weight:normal;fill:#666666;" text-anchor="middle" transform="translate(0,0)" y="465" opacity="1">100</text><text x="213.78322042731" style="color:#666666;cursor:default;font-size:11px;font-weight:normal;fill:#666666;" text-anchor="middle" transform="translate(0,0)" y="465" opacity="1">200</text><text x="305.81031787389" style="color:#666666;cursor:default;font-size:11px;font-weight:normal;fill:#666666;" text-anchor="middle" transform="translate(0,0)" y="465" opacity="1">300</text><text x="397.83741532048" style="color:#666666;cursor:default;font-size:11px;font-weight:normal;fill:#666666;" text-anchor="middle" transform="translate(0,0)" y="465" opacity="1">400</text><text x="489.86451276707" style="color:#666666;cursor:default;font-size:11px;font-weight:normal;fill:#666666;" text-anchor="middle" transform="translate(0,0)" y="465" opacity="1">500</text><text x="581.89161021365" style="color:#666666;cursor:default;font-size:11px;font-weight:normal;fill:#666666;" text-anchor="middle" transform="translate(0,0)" y="465" opacity="1">600</text><text x="673.91870766024" style="color:#666666;cursor:default;font-size:11px;font-weight:normal;fill:#666666;" text-anchor="middle" transform="translate(0,0)" y="465" opacity="1">700</text><text x="765.94580510683" style="color:#666666;cursor:default;font-size:11px;font-weight:normal;fill:#666666;" text-anchor="middle" transform="translate(0,0)" y="465" opacity="1">800</text><text x="857.97290255341" style="color:#666666;cursor:default;font-size:11px;font-weight:normal;fill:#666666;" text-anchor="middle" transform="translate(0,0)" y="465" opacity="1">900</text><text x="936.09375" style="color:#666666;cursor:default;font-size:11px;font-weight:normal;fill:#666666;" text-anchor="middle" transform="translate(0,0)" y="465" opacity="1">1000</text></g><g class="highcharts-axis-labels highcharts-yaxis-labels " data-z-index="7"><text x="52" style="color:#666666;cursor:default;font-size:11px;font-weight:normal;fill:#666666;" text-anchor="end" transform="translate(0,0)" y="451" opacity="1">0</text><text x="52" style="color:#666666;cursor:default;font-size:11px;font-weight:normal;fill:#666666;" text-anchor="end" transform="translate(0,0)" y="407" opacity="1">0.5</text><text x="52" style="color:#666666;cursor:default;font-size:11px;font-weight:normal;fill:#666666;" text-anchor="end" transform="translate(0,0)" y="364" opacity="1">1</text><text x="52" style="color:#666666;cursor:default;font-size:11px;font-weight:normal;fill:#666666;" text-anchor="end" transform="translate(0,0)" y="321" opacity="1">1.5</text><text x="52" style="color:#666666;cursor:default;font-size:11px;font-weight:normal;fill:#666666;" text-anchor="end" transform="translate(0,0)" y="278" opacity="1">2</text><text x="52" style="color:#666666;cursor:default;font-size:11px;font-weight:normal;fill:#666666;" text-anchor="end" transform="translate(0,0)" y="234" opacity="1">2.5</text><text x="52" style="color:#666666;cursor:default;font-size:11px;font-weight:normal;fill:#666666;" text-anchor="end" transform="translate(0,0)" y="191" opacity="1">3</text><text x="52" style="color:#666666;cursor:default;font-size:11px;font-weight:normal;fill:#666666;" text-anchor="end" transform="translate(0,0)" y="148" opacity="1">3.5</text><text x="52" style="color:#666666;cursor:default;font-size:11px;font-weight:normal;fill:#666666;" text-anchor="end" transform="translate(0,0)" y="105" opacity="1">4</text><text x="52" style="color:#666666;cursor:default;font-size:11px;font-weight:normal;fill:#666666;" text-anchor="end" transform="translate(0,0)" y="62" opacity="1">4.5</text></g></svg>