<svg xmlns:xlink="http://www.w3.org/1999/xlink" version="1.1" class="highcharts-root" style="font-family:&quot;Lucida Grande&quot;, &quot;Lucida Sans Unicode&quot;, Arial, Helvetica, sans-serif;font-size:12px;" xmlns="http://www.w3.org/2000/svg" width="960" height="540" viewBox="0 0 960 540"><desc>Created with Highcharts 7.0.2</desc><defs><clipPath id="highcharts-iz2yr1r-6314"><rect x="0" y="0" width="886" height="389" fill="none"></rect></clipPath></defs><rect fill="#ffffff" class="highcharts-background" x="0" y="0" width="960" height="540" rx="0" ry="0"></rect><rect fill="none" class="highcharts-plot-background" x="64" y="57" width="886" height="389"></rect><g class="highcharts-pane-group" data-z-index="0"></g><g class="highcharts-grid highcharts-xaxis-grid " data-z-index="1"><path fill="none" stroke-dasharray="none" data-z-index="1" class="highcharts-grid-line" d="M 118.5 57 L 118.5 446" opacity="1"></path><path fill="none" stroke-dasharray="none" data-z-index="1" class="highcharts-grid-line" d="M 210.5 57 L 210.5 446" opacity="1"></path><path fill="none" stroke-dasharray="none" data-z-index="1" class="highcharts-grid-line" d="M 303.5 57 L 303.5 446" opacity="1"></path><path fill="none" stroke-dasharray="none" data-z-index="1" class="highcharts-grid-line" d="M 395.5 57 L 395.5 446" opacity="1"></path><path fill="none" stroke-dasharray="none" data-z-index="1" class="highcharts-grid-line" d="M 487.5 57 L 487.5 446" opacity="1"></path><path fill="none" stroke-dasharray="none" data-z-index="1" class="highcharts-grid-line" d="M 580.5 57 L 580.5 446" opacity="1"></path><path fill="none" stroke-dasharray="none" data-z-index="1" class="highcharts-grid-line" d="M 672.5 57 L 672.5 446" opacity="1"></path><path fill="none" stroke-dasharray="none" data-z-index="1" class="highcharts-grid-line" d="M 764.5 57 L 764.5 446" opacity="1"></path><path fill="none" stroke-dasharray="none" data-z-index="1" class="highcharts-grid-line" d="M 857.5 57 L 857.5 446" opacity="1"></path><path fill="none" stroke-dasharray="none" data-z-index="1" class="highcharts-grid-line" d="M 949.5 57 L 949.5 446" opacity="1"></path></g><g class="highcharts-grid highcharts-yaxis-grid " data-z-index="1"><path fill="none" stroke="#e6e6e6" stroke-width="1" stroke-dasharray="none" data-z-index="1" class="highcharts-grid-line" d="M 64 446.5 L 950 446.5" opacity="1"></path><path fill="none" stroke="#e6e6e6" stroke-width="1" stroke-dasharray="none" data-z-index="1" class="highcharts-grid-line" d="M 64 368.5 L 950 368.5" opacity="1"></path><path fill="none" stroke="#e6e6e6" stroke-width="1" stroke-dasharray="none" data-z-index="1" class="highcharts-grid-line" d="M 64 290.5 L 950 290.5" opacity="1"></path><path fill="none" stroke="#e6e6e6" stroke-width="1" stroke-dasharray="none" data-z-index="1" class="highcharts-grid-line" d="M 64 213.5 L 950 213.5" opacity="1"></path><path fill="none" stroke="#e6e6e6" stroke-width="1" stroke-dasharray="none" data-z-index="1" class="highcharts-grid-line" d="M 64 135.5 L 950 135.5" opacity="1"></path><path fill="none" stroke="#e6e6e6" stroke-width="1" stroke-dasharray="none" data-z-index="1" class="highcharts-grid-line" d="M 64 56.5 L 950 56.5" opacity="1"></path></g><rect fill="none" class="highcharts-plot-border" data-z-index="1" x="64" y="57" width="886" height="389"></rect><g class="highcharts-axis highcharts-xaxis " data-z-index="2"><path fill="none" class="highcharts-tick" stroke="#ccd6eb" stroke-width="1" d="M 118.5 446 L 118.5 456" opacity="1"></path><path fill="none" class="highcharts-tick" stroke="#ccd6eb" stroke-width="1" d="M 210.5 446 L 210.5 456" opacity="1"></path><path fill="none" class="highcharts-tick" stroke="#ccd6eb" stroke-width="1" d="M 303.5 446 L 303.5 456" opacity="1"></path><path fill="none" class="highcharts-tick" stroke="#ccd6eb" stroke-width="1" d="M 395.5 446 L 395.5 456" opacity="1"></path><path fill="none" class="highcharts-tick" stroke="#ccd6eb" stroke-width="1" d="M 487.5 446 L 487.5 456" opacity="1"></path><path fill="none" class="highcharts-tick" stroke="#ccd6eb" stroke-width="1" d="M 580.5 446 L 580.5 456" opacity="1"></path><path fill="none" class="highcharts-tick" stroke="#ccd6eb" stroke-width="1" d="M 672.5 446 L 672.5 456" opacity="1"></path><path fill="none" class="highcharts-tick" stroke="#ccd6eb" stroke-width="1" d="M 764.5 446 L 764.5 456" opacity="1"></path><path fill="none" class="highcharts-tick" stroke="#ccd6eb" stroke-width="1" d="M 857.5 446 L 857.5 456" opacity="1"></path><path fill="none" class="highcharts-tick" stroke="#ccd6eb" stroke-width="1" d="M 950.5 446 L 950.5 456" opacity="1"></path><text x="507" data-z-index="7" text-anchor="middle" transform="translate(0,0)" class="highcharts-axis-title" style="color:#666666;font-weight:normal;fill:#666666;" y="484"><tspan>Xsize</tspan></text><path fill="none" class="highcharts-axis-line" stroke="#ccd6eb" stroke-width="1" data-z-index="7" d="M 64 446.5 L 950 446.5"></path></g><g class="highcharts-axis highcharts-yaxis " data-z-index="2"><text x="25.09375" data-z-index="7" text-anchor="middle" transform="translate(0,0) rotate(270 25.09375 251.5)" class="highcharts-axis-title" style="color:#666666;font-weight:normal;fill:#666666;" y="251.5"><tspan>r_run_time</tspan></text><path fill="none" class="highcharts-axis-line" data-z-index="7" d="M 64 57 L 64 446"></path></g><g class="highcharts-series-group" data-z-index="3"><g data-z-index="0.1" class="highcharts-series highcharts-series-0 highcharts-scatter-series " transform="translate(64,57) scale(1 1)" clip-path="url(#highcharts-iz2yr1r-6314)"></g><g data-z-index="0.1" class="highcharts-markers highcharts-series-0 highcharts-scatter-series " transform="translate(64,57) scale(1 1)" clip-path="none"><path fill="#7cb5ec" d="M 12 151 A 4 4 0 1 1 11.999998000000167 150.99600000066667 Z" class="highcharts-point"></path><path fill="#7cb5ec" d="M 58 321 A 4 4 0 1 1 57.99999800000017 320.99600000066664 Z" class="highcharts-point"></path><path fill="#7cb5ec" d="M 105 364 A 4 4 0 1 1 104.99999800000016 363.99600000066664 Z" class="highcharts-point"></path><path fill="#7cb5ec" d="M 151 365 A 4 4 0 1 1 150.99999800000018 364.99600000066664 Z" class="highcharts-point"></path><path fill="#7cb5ec" d="M 197 365 A 4 4 0 1 1 196.99999800000018 364.99600000066664 Z" class="highcharts-point"></path><path fill="#7cb5ec" d="M 243 364 A 4 4 0 1 1 242.99999800000018 363.99600000066664 Z" class="highcharts-point"></path><path fill="#7cb5ec" d="M 289 300 A 4 4 0 1 1 288.9999980000002 299.99600000066664 Z" class="highcharts-point"></path><path fill="#7cb5ec" d="M 335 197 A 4 4 0 1 1 334.9999980000002 196.99600000066667 Z" class="highcharts-point"></path><path fill="#7cb5ec" d="M 382 287 A 4 4 0 1 1 381.9999980000002 286.99600000066664 Z" class="highcharts-point"></path><path fill="#7cb5ec" d="M 428 294 A 4 4 0 1 1 427.9999980000002 293.99600000066664 Z" class="highcharts-point"></path><path fill="#7cb5ec" d="M 474 121 A 4 4 0 1 1 473.9999980000002 120.99600000066667 Z" class="highcharts-point"></path><path fill="#7cb5ec" d="M 520 211 A 4 4 0 1 1 519.9999980000001 210.99600000066667 Z" class="highcharts-point"></path><path fill="#7cb5ec" d="M 566 361 A 4 4 0 1 1 565.9999980000001 360.99600000066664 Z" class="highcharts-point"></path><path fill="#7cb5ec" d="M 612 363 A 4 4 0 1 1 611.9999980000001 362.99600000066664 Z" class="highcharts-point"></path><path fill="#7cb5ec" d="M 659 359 A 4 4 0 1 1 658.9999980000001 358.99600000066664 Z" class="highcharts-point"></path><path fill="#7cb5ec" d="M 705 362 A 4 4 0 1 1 704.9999980000001 361.99600000066664 Z" class="highcharts-point"></path><path fill="#7cb5ec" d="M 751 360 A 4 4 0 1 1 750.9999980000001 359.99600000066664 Z" class="highcharts-point"></path><path fill="#7cb5ec" d="M 797 357 A 4 4 0 1 1 796.9999980000001 356.99600000066664 Z" class="highcharts-point"></path><path fill="#7cb5ec" d="M 843 329 A 4 4 0 1 1 842.9999980000001 328.99600000066664 Z" class="highcharts-point"></path><path fill="#7cb5ec" d="M 890 350 A 4 4 0 1 1 889.9999980000001 349.99600000066664 Z" class="highcharts-point"></path></g><g data-z-index="0.1" class="highcharts-series highcharts-series-1 highcharts-scatter-series " transform="translate(64,57) scale(1 1)" clip-path="url(#highcharts-iz2yr1r-6314)"></g><g data-z-index="0.1" class="highcharts-markers highcharts-series-1 highcharts-scatter-series " transform="translate(64,57) scale(1 1)" clip-path="none"><path fill="#90ed7d" d="M 12 360 A 4 4 0 1 1 11.999998000000167 359.99600000066664 Z" class="highcharts-point"></path><path fill="#90ed7d" d="M 58 362 A 4 4 0 1 1 57.99999800000017 361.99600000066664 Z" class="highcharts-point"></path><path fill="#90ed7d" d="M 105 362 A 4 4 0 1 1 104.99999800000016 361.99600000066664 Z" class="highcharts-point"></path><path fill="#90ed7d" d="M 151 364 A 4 4 0 1 1 150.99999800000018 363.99600000066664 Z" class="highcharts-point"></path><path fill="#90ed7d" d="M 197 364 A 4 4 0 1 1 196.99999800000018 363.99600000066664 Z" class="highcharts-point"></path><path fill="#90ed7d" d="M 243 362 A 4 4 0 1 1 242.99999800000018 361.99600000066664 Z" class="highcharts-point"></path><path fill="#90ed7d" d="M 289 363 A 4 4 0 1 1 288.9999980000002 362.99600000066664 Z" class="highcharts-point"></path><path fill="#90ed7d" d="M 335 359 A 4 4 0 1 1 334.9999980000002 358.99600000066664 Z" class="highcharts-point"></path><path fill="#90ed7d" d="M 382 362 A 4 4 0 1 1 381.9999980000002 361.99600000066664 Z" class="highcharts-point"></path><path fill="#90ed7d" d="M 428 364 A 4 4 0 1 1 427.9999980000002 363.99600000066664 Z" class="highcharts-point"></path><path fill="#90ed7d" d="M 474 363 A 4 4 0 1 1 473.9999980000002 362.99600000066664 Z" class="highcharts-point"></path><path fill="#90ed7d" d="M 520 363 A 4 4 0 1 1 519.9999980000001 362.99600000066664 Z" class="highcharts-point"></path><path fill="#90ed7d" d="M 566 359 A 4 4 0 1 1 565.9999980000001 358.99600000066664 Z" class="highcharts-point"></path><path fill="#90ed7d" d="M 612 363 A 4 4 0 1 1 611.9999980000001 362.99600000066664 Z" class="highcharts-point"></path><path fill="#90ed7d" d="M 659 364 A 4 4 0 1 1 658.9999980000001 363.99600000066664 Z" class="highcharts-point"></path><path fill="#90ed7d" d="M 705 364 A 4 4 0 1 1 704.9999980000001 363.99600000066664 Z" class="highcharts-point"></path><path fill="#90ed7d" d="M 751 364 A 4 4 0 1 1 750.9999980000001 363.99600000066664 Z" class="highcharts-point"></path><path fill="#90ed7d" d="M 797 364 A 4 4 0 1 1 796.9999980000001 363.99600000066664 Z" class="highcharts-point"></path><path fill="#90ed7d" d="M 843 365 A 4 4 0 1 1 842.9999980000001 364.99600000066664 Z" class="highcharts-point"></path><path fill="#90ed7d" d="M 890 370 A 4 4 0 1 1 889.9999980000001 369.99600000066664 Z" class="highcharts-point"></path></g><g data-z-index="0.1" class="highcharts-series highcharts-series-2 highcharts-scatter-series " transform="translate(64,57) scale(1 1)" clip-path="url(#highcharts-iz2yr1r-6314)"></g><g data-z-index="0.1" class="highcharts-markers highcharts-series-2 highcharts-scatter-series " transform="translate(64,57) scale(1 1)" clip-path="none"><path fill="#f7a35c" d="M 12 366 A 4 4 0 1 1 11.999998000000167 365.99600000066664 Z" class="highcharts-point"></path><path fill="#f7a35c" d="M 58 278 A 4 4 0 1 1 57.99999800000017 277.99600000066664 Z" class="highcharts-point"></path><path fill="#f7a35c" d="M 105 62 A 4 4 0 1 1 104.99999800000016 61.99600000066666 Z" class="highcharts-point"></path><path fill="#f7a35c" d="M 151 361 A 4 4 0 1 1 150.99999800000018 360.99600000066664 Z" class="highcharts-point"></path><path fill="#f7a35c" d="M 197 362 A 4 4 0 1 1 196.99999800000018 361.99600000066664 Z" class="highcharts-point"></path><path fill="#f7a35c" d="M 243 167 A 4 4 0 1 1 242.99999800000018 166.99600000066667 Z" class="highcharts-point"></path><path fill="#f7a35c" d="M 289 343 A 4 4 0 1 1 288.9999980000002 342.99600000066664 Z" class="highcharts-point"></path><path fill="#f7a35c" d="M 335 363 A 4 4 0 1 1 334.9999980000002 362.99600000066664 Z" class="highcharts-point"></path><path fill="#f7a35c" d="M 382 263 A 4 4 0 1 1 381.9999980000002 262.99600000066664 Z" class="highcharts-point"></path><path fill="#f7a35c" d="M 428 113 A 4 4 0 1 1 427.9999980000002 112.99600000066667 Z" class="highcharts-point"></path><path fill="#f7a35c" d="M 474 363 A 4 4 0 1 1 473.9999980000002 362.99600000066664 Z" class="highcharts-point"></path><path fill="#f7a35c" d="M 520 362 A 4 4 0 1 1 519.9999980000001 361.99600000066664 Z" class="highcharts-point"></path><path fill="#f7a35c" d="M 566 203 A 4 4 0 1 1 565.9999980000001 202.99600000066667 Z" class="highcharts-point"></path><path fill="#f7a35c" d="M 612 137 A 4 4 0 1 1 611.9999980000001 136.99600000066667 Z" class="highcharts-point"></path><path fill="#f7a35c" d="M 659 364 A 4 4 0 1 1 658.9999980000001 363.99600000066664 Z" class="highcharts-point"></path><path fill="#f7a35c" d="M 705 286 A 4 4 0 1 1 704.9999980000001 285.99600000066664 Z" class="highcharts-point"></path><path fill="#f7a35c" d="M 751 258 A 4 4 0 1 1 750.9999980000001 257.99600000066664 Z" class="highcharts-point"></path><path fill="#f7a35c" d="M 797 359 A 4 4 0 1 1 796.9999980000001 358.99600000066664 Z" class="highcharts-point"></path><path fill="#f7a35c" d="M 843 361 A 4 4 0 1 1 842.9999980000001 360.99600000066664 Z" class="highcharts-point"></path><path fill="#f7a35c" d="M 890 362 A 4 4 0 1 1 889.9999980000001 361.99600000066664 Z" class="highcharts-point"></path></g></g><text x="480" text-anchor="middle" class="highcharts-title" data-z-index="4" style="color:#333333;font-size:14;font-weight:normal;fill:#333333;" y="21"><tspan>ARIMA(2,1,2)</tspan></text><text x="480" text-anchor="middle" class="highcharts-subtitle" data-z-index="4" style="color:#666666;font-weight:normal;fill:#666666;" y="41"><tspan>R run time</tspan></text><g class="highcharts-legend" data-z-index="7" transform="translate(343,499)"><rect fill="none" class="highcharts-legend-box" rx="0" ry="0" x="0" y="0" width="273" height="26" visibility="visible"></rect><g data-z-index="1"><g><g class="highcharts-legend-item highcharts-scatter-series highcharts-color-undefined highcharts-series-0" data-z-index="1" transform="translate(8,3)"><path fill="none" d="M 0 11 L 16 11" class="highcharts-graph" stroke-dasharray="none"></path><path fill="#7cb5ec" d="M 12 11 A 4 4 0 1 1 11.999998000000167 10.996000000666664 Z" class="highcharts-point"></path><text x="21" style="color:#333333;cursor:pointer;font-size:12px;font-weight:bold;fill:#333333;" text-anchor="start" data-z-index="2" y="15"><tspan>forwardsub</tspan></text></g><g class="highcharts-legend-item highcharts-scatter-series highcharts-color-undefined highcharts-series-1" data-z-index="1" transform="translate(120.515625,3)"><path fill="none" d="M 0 11 L 16 11" class="highcharts-graph" stroke-dasharray="none"></path><path fill="#90ed7d" d="M 12 11 A 4 4 0 1 1 11.999998000000167 10.996000000666664 Z" class="highcharts-point"></path><text x="21" y="15" style="color:#333333;cursor:pointer;font-size:12px;font-weight:bold;fill:#333333;" text-anchor="start" data-z-index="2"><tspan>inverse</tspan></text></g><g class="highcharts-legend-item highcharts-scatter-series highcharts-color-undefined highcharts-series-2" data-z-index="1" transform="translate(206.71875,3)"><path fill="none" d="M 0 11 L 16 11" class="highcharts-graph" stroke-dasharray="none"></path><path fill="#f7a35c" d="M 12 11 A 4 4 0 1 1 11.999998000000167 10.996000000666664 Z" class="highcharts-point"></path><text x="21" y="15" style="color:#333333;cursor:pointer;font-size:12px;font-weight:bold;fill:#333333;" text-anchor="start" data-z-index="2"><tspan>jacobi</tspan></text></g></g></g></g><g class="highcharts-axis-labels highcharts-xaxis-labels " data-z-index="7"><text x="118.94215737363" style="color:#666666;cursor:default;font-size:11px;font-weight:normal;fill:#666666;" text-anchor="middle" transform="translate(0,0)" y="465" opacity="1">100</text><text x="211.28191766545" style="color:#666666;cursor:default;font-size:11px;font-weight:normal;fill:#666666;" text-anchor="middle" transform="translate(0,0)" y="465" opacity="1">200</text><text x="303.62167795727" style="color:#666666;cursor:default;font-size:11px;font-weight:normal;fill:#666666;" text-anchor="middle" transform="translate(0,0)" y="465" opacity="1">300</text><text x="395.96143824909" style="color:#666666;cursor:default;font-size:11px;font-weight:normal;fill:#666666;" text-anchor="middle" transform="translate(0,0)" y="465" opacity="1">400</text><text x="488.30119854091" style="color:#666666;cursor:default;font-size:11px;font-weight:normal;fill:#666666;" text-anchor="middle" transform="translate(0,0)" y="465" opacity="1">500</text><text x="580.64095883273" style="color:#666666;cursor:default;font-size:11px;font-weight:normal;fill:#666666;" text-anchor="middle" transform="translate(0,0)" y="465" opacity="1">600</text><text x="672.98071912454" style="color:#666666;cursor:default;font-size:11px;font-weight:normal;fill:#666666;" text-anchor="middle" transform="translate(0,0)" y="465" opacity="1">700</text><text x="765.32047941636" style="color:#666666;cursor:default;font-size:11px;font-weight:normal;fill:#666666;" text-anchor="middle" transform="translate(0,0)" y="465" opacity="1">800</text><text x="857.66023970818" style="color:#666666;cursor:default;font-size:11px;font-weight:normal;fill:#666666;" text-anchor="middle" transform="translate(0,0)" y="465" opacity="1">900</text><text x="936.09375" style="color:#666666;cursor:default;font-size:11px;font-weight:normal;fill:#666666;" text-anchor="middle" transform="translate(0,0)" y="465" opacity="1">1000</text></g><g class="highcharts-axis-labels highcharts-yaxis-labels " data-z-index="7"><text x="49" style="color:#666666;cursor:default;font-size:11px;font-weight:normal;fill:#666666;" text-anchor="end" transform="translate(0,0)" y="451" opacity="1">5</text><text x="49" style="color:#666666;cursor:default;font-size:11px;font-weight:normal;fill:#666666;" text-anchor="end" transform="translate(0,0)" y="373" opacity="1">10</text><text x="49" style="color:#666666;cursor:default;font-size:11px;font-weight:normal;fill:#666666;" text-anchor="end" transform="translate(0,0)" y="295" opacity="1">15</text><text x="49" style="color:#666666;cursor:default;font-size:11px;font-weight:normal;fill:#666666;" text-anchor="end" transform="translate(0,0)" y="217" opacity="1">20</text><text x="49" style="color:#666666;cursor:default;font-size:11px;font-weight:normal;fill:#666666;" text-anchor="end" transform="translate(0,0)" y="139" opacity="1">25</text><text x="49" style="color:#666666;cursor:default;font-size:11px;font-weight:normal;fill:#666666;" text-anchor="end" transform="translate(0,0)" y="62" opacity="1">30</text></g></svg>