<svg xmlns:xlink="http://www.w3.org/1999/xlink" version="1.1" class="highcharts-root" style="font-family:&quot;Lucida Grande&quot;, &quot;Lucida Sans Unicode&quot;, Arial, Helvetica, sans-serif;font-size:12px;" xmlns="http://www.w3.org/2000/svg" width="960" height="540" viewBox="0 0 960 540"><desc>Created with Highcharts 7.0.2</desc><defs><clipPath id="highcharts-iz2yr1r-7357"><rect x="0" y="0" width="886" height="389" fill="none"></rect></clipPath></defs><rect fill="#ffffff" class="highcharts-background" x="0" y="0" width="960" height="540" rx="0" ry="0"></rect><rect fill="none" class="highcharts-plot-background" x="64" y="57" width="886" height="389"></rect><g class="highcharts-pane-group" data-z-index="0"></g><g class="highcharts-grid highcharts-xaxis-grid " data-z-index="1"><path fill="none" stroke-dasharray="none" data-z-index="1" class="highcharts-grid-line" d="M 72.5 57 L 72.5 446" opacity="1"></path><path fill="none" stroke-dasharray="none" data-z-index="1" class="highcharts-grid-line" d="M 163.5 57 L 163.5 446" opacity="1"></path><path fill="none" stroke-dasharray="none" data-z-index="1" class="highcharts-grid-line" d="M 255.5 57 L 255.5 446" opacity="1"></path><path fill="none" stroke-dasharray="none" data-z-index="1" class="highcharts-grid-line" d="M 346.5 57 L 346.5 446" opacity="1"></path><path fill="none" stroke-dasharray="none" data-z-index="1" class="highcharts-grid-line" d="M 437.5 57 L 437.5 446" opacity="1"></path><path fill="none" stroke-dasharray="none" data-z-index="1" class="highcharts-grid-line" d="M 529.5 57 L 529.5 446" opacity="1"></path><path fill="none" stroke-dasharray="none" data-z-index="1" class="highcharts-grid-line" d="M 620.5 57 L 620.5 446" opacity="1"></path><path fill="none" stroke-dasharray="none" data-z-index="1" class="highcharts-grid-line" d="M 712.5 57 L 712.5 446" opacity="1"></path><path fill="none" stroke-dasharray="none" data-z-index="1" class="highcharts-grid-line" d="M 803.5 57 L 803.5 446" opacity="1"></path><path fill="none" stroke-dasharray="none" data-z-index="1" class="highcharts-grid-line" d="M 895.5 57 L 895.5 446" opacity="1"></path></g><g class="highcharts-grid highcharts-yaxis-grid " data-z-index="1"><path fill="none" stroke="#e6e6e6" stroke-width="1" stroke-dasharray="none" data-z-index="1" class="highcharts-grid-line" d="M 64 446.5 L 950 446.5" opacity="1"></path><path fill="none" stroke="#e6e6e6" stroke-width="1" stroke-dasharray="none" data-z-index="1" class="highcharts-grid-line" d="M 64 368.5 L 950 368.5" opacity="1"></path><path fill="none" stroke="#e6e6e6" stroke-width="1" stroke-dasharray="none" data-z-index="1" class="highcharts-grid-line" d="M 64 290.5 L 950 290.5" opacity="1"></path><path fill="none" stroke="#e6e6e6" stroke-width="1" stroke-dasharray="none" data-z-index="1" class="highcharts-grid-line" d="M 64 213.5 L 950 213.5" opacity="1"></path><path fill="none" stroke="#e6e6e6" stroke-width="1" stroke-dasharray="none" data-z-index="1" class="highcharts-grid-line" d="M 64 135.5 L 950 135.5" opacity="1"></path><path fill="none" stroke="#e6e6e6" stroke-width="1" stroke-dasharray="none" data-z-index="1" class="highcharts-grid-line" d="M 64 56.5 L 950 56.5" opacity="1"></path></g><rect fill="none" class="highcharts-plot-border" data-z-index="1" x="64" y="57" width="886" height="389"></rect><g class="highcharts-axis highcharts-xaxis " data-z-index="2"><path fill="none" class="highcharts-tick" stroke="#ccd6eb" stroke-width="1" d="M 72.5 446 L 72.5 456" opacity="1"></path><path fill="none" class="highcharts-tick" stroke="#ccd6eb" stroke-width="1" d="M 163.5 446 L 163.5 456" opacity="1"></path><path fill="none" class="highcharts-tick" stroke="#ccd6eb" stroke-width="1" d="M 255.5 446 L 255.5 456" opacity="1"></path><path fill="none" class="highcharts-tick" stroke="#ccd6eb" stroke-width="1" d="M 346.5 446 L 346.5 456" opacity="1"></path><path fill="none" class="highcharts-tick" stroke="#ccd6eb" stroke-width="1" d="M 437.5 446 L 437.5 456" opacity="1"></path><path fill="none" class="highcharts-tick" stroke="#ccd6eb" stroke-width="1" d="M 529.5 446 L 529.5 456" opacity="1"></path><path fill="none" class="highcharts-tick" stroke="#ccd6eb" stroke-width="1" d="M 620.5 446 L 620.5 456" opacity="1"></path><path fill="none" class="highcharts-tick" stroke="#ccd6eb" stroke-width="1" d="M 712.5 446 L 712.5 456" opacity="1"></path><path fill="none" class="highcharts-tick" stroke="#ccd6eb" stroke-width="1" d="M 803.5 446 L 803.5 456" opacity="1"></path><path fill="none" class="highcharts-tick" stroke="#ccd6eb" stroke-width="1" d="M 895.5 446 L 895.5 456" opacity="1"></path><text x="507" data-z-index="7" text-anchor="middle" transform="translate(0,0)" class="highcharts-axis-title" style="color:#666666;font-weight:normal;fill:#666666;" y="484"><tspan>Xsize</tspan></text><path fill="none" class="highcharts-axis-line" stroke="#ccd6eb" stroke-width="1" data-z-index="7" d="M 64 446.5 L 950 446.5"></path></g><g class="highcharts-axis highcharts-yaxis " data-z-index="2"><text x="25.09375" data-z-index="7" text-anchor="middle" transform="translate(0,0) rotate(270 25.09375 251.5)" class="highcharts-axis-title" style="color:#666666;font-weight:normal;fill:#666666;" y="251.5"><tspan>r_run_time</tspan></text><path fill="none" class="highcharts-axis-line" data-z-index="7" d="M 64 57 L 64 446"></path></g><g class="highcharts-series-group" data-z-index="3"><g data-z-index="0.1" class="highcharts-series highcharts-series-0 highcharts-scatter-series " transform="translate(64,57) scale(1 1)" clip-path="url(#highcharts-iz2yr1r-7357)"></g><g data-z-index="0.1" class="highcharts-markers highcharts-series-0 highcharts-scatter-series " transform="translate(64,57) scale(1 1)" clip-path="none"><path fill="#7cb5ec" d="M 12 151 A 4 4 0 1 1 11.999998000000167 150.99600000066667 Z" class="highcharts-point"></path><path fill="#7cb5ec" d="M 12 321 A 4 4 0 1 1 11.999998000000167 320.99600000066664 Z" class="highcharts-point"></path><path fill="#7cb5ec" d="M 12 364 A 4 4 0 1 1 11.999998000000167 363.99600000066664 Z" class="highcharts-point"></path><path fill="#7cb5ec" d="M 12 365 A 4 4 0 1 1 11.999998000000167 364.99600000066664 Z" class="highcharts-point"></path><path fill="#7cb5ec" d="M 12 365 A 4 4 0 1 1 11.999998000000167 364.99600000066664 Z" class="highcharts-point"></path><path fill="#7cb5ec" d="M 12 364 A 4 4 0 1 1 11.999998000000167 363.99600000066664 Z" class="highcharts-point"></path><path fill="#7cb5ec" d="M 12 300 A 4 4 0 1 1 11.999998000000167 299.99600000066664 Z" class="highcharts-point"></path><path fill="#7cb5ec" d="M 13 197 A 4 4 0 1 1 12.999998000000167 196.99600000066667 Z" class="highcharts-point"></path><path fill="#7cb5ec" d="M 13 287 A 4 4 0 1 1 12.999998000000167 286.99600000066664 Z" class="highcharts-point"></path><path fill="#7cb5ec" d="M 13 294 A 4 4 0 1 1 12.999998000000167 293.99600000066664 Z" class="highcharts-point"></path><path fill="#7cb5ec" d="M 13 121 A 4 4 0 1 1 12.999998000000167 120.99600000066667 Z" class="highcharts-point"></path><path fill="#7cb5ec" d="M 13 211 A 4 4 0 1 1 12.999998000000167 210.99600000066667 Z" class="highcharts-point"></path><path fill="#7cb5ec" d="M 13 361 A 4 4 0 1 1 12.999998000000167 360.99600000066664 Z" class="highcharts-point"></path><path fill="#7cb5ec" d="M 13 363 A 4 4 0 1 1 12.999998000000167 362.99600000066664 Z" class="highcharts-point"></path><path fill="#7cb5ec" d="M 13 359 A 4 4 0 1 1 12.999998000000167 358.99600000066664 Z" class="highcharts-point"></path><path fill="#7cb5ec" d="M 13 362 A 4 4 0 1 1 12.999998000000167 361.99600000066664 Z" class="highcharts-point"></path><path fill="#7cb5ec" d="M 13 360 A 4 4 0 1 1 12.999998000000167 359.99600000066664 Z" class="highcharts-point"></path><path fill="#7cb5ec" d="M 13 357 A 4 4 0 1 1 12.999998000000167 356.99600000066664 Z" class="highcharts-point"></path><path fill="#7cb5ec" d="M 13 329 A 4 4 0 1 1 12.999998000000167 328.99600000066664 Z" class="highcharts-point"></path><path fill="#7cb5ec" d="M 13 350 A 4 4 0 1 1 12.999998000000167 349.99600000066664 Z" class="highcharts-point"></path><path fill="#7cb5ec" d="M 58 361 A 4 4 0 1 1 57.99999800000017 360.99600000066664 Z" class="highcharts-point"></path><path fill="#7cb5ec" d="M 104 322 A 4 4 0 1 1 103.99999800000016 321.99600000066664 Z" class="highcharts-point"></path><path fill="#7cb5ec" d="M 149 344 A 4 4 0 1 1 148.99999800000018 343.99600000066664 Z" class="highcharts-point"></path><path fill="#7cb5ec" d="M 195 326 A 4 4 0 1 1 194.99999800000018 325.99600000066664 Z" class="highcharts-point"></path><path fill="#7cb5ec" d="M 241 320 A 4 4 0 1 1 240.99999800000018 319.99600000066664 Z" class="highcharts-point"></path><path fill="#7cb5ec" d="M 286 291 A 4 4 0 1 1 285.9999980000002 290.99600000066664 Z" class="highcharts-point"></path><path fill="#7cb5ec" d="M 332 283 A 4 4 0 1 1 331.9999980000002 282.99600000066664 Z" class="highcharts-point"></path><path fill="#7cb5ec" d="M 378 285 A 4 4 0 1 1 377.9999980000002 284.99600000066664 Z" class="highcharts-point"></path><path fill="#7cb5ec" d="M 424 277 A 4 4 0 1 1 423.9999980000002 276.99600000066664 Z" class="highcharts-point"></path><path fill="#7cb5ec" d="M 469 265 A 4 4 0 1 1 468.9999980000002 264.99600000066664 Z" class="highcharts-point"></path><path fill="#7cb5ec" d="M 515 246 A 4 4 0 1 1 514.9999980000001 245.99600000066667 Z" class="highcharts-point"></path><path fill="#7cb5ec" d="M 561 246 A 4 4 0 1 1 560.9999980000001 245.99600000066667 Z" class="highcharts-point"></path><path fill="#7cb5ec" d="M 606 255 A 4 4 0 1 1 605.9999980000001 254.99600000066667 Z" class="highcharts-point"></path><path fill="#7cb5ec" d="M 652 242 A 4 4 0 1 1 651.9999980000001 241.99600000066667 Z" class="highcharts-point"></path><path fill="#7cb5ec" d="M 698 203 A 4 4 0 1 1 697.9999980000001 202.99600000066667 Z" class="highcharts-point"></path><path fill="#7cb5ec" d="M 744 231 A 4 4 0 1 1 743.9999980000001 230.99600000066667 Z" class="highcharts-point"></path><path fill="#7cb5ec" d="M 789 201 A 4 4 0 1 1 788.9999980000001 200.99600000066667 Z" class="highcharts-point"></path><path fill="#7cb5ec" d="M 835 111 A 4 4 0 1 1 834.9999980000001 110.99600000066667 Z" class="highcharts-point"></path><path fill="#7cb5ec" d="M 881 208 A 4 4 0 1 1 880.9999980000001 207.99600000066667 Z" class="highcharts-point"></path></g><g data-z-index="0.1" class="highcharts-series highcharts-series-1 highcharts-scatter-series " transform="translate(64,57) scale(1 1)" clip-path="url(#highcharts-iz2yr1r-7357)"></g><g data-z-index="0.1" class="highcharts-markers highcharts-series-1 highcharts-scatter-series " transform="translate(64,57) scale(1 1)" clip-path="none"><path fill="#90ed7d" d="M 12 360 A 4 4 0 1 1 11.999998000000167 359.99600000066664 Z" class="highcharts-point"></path><path fill="#90ed7d" d="M 12 362 A 4 4 0 1 1 11.999998000000167 361.99600000066664 Z" class="highcharts-point"></path><path fill="#90ed7d" d="M 12 362 A 4 4 0 1 1 11.999998000000167 361.99600000066664 Z" class="highcharts-point"></path><path fill="#90ed7d" d="M 12 364 A 4 4 0 1 1 11.999998000000167 363.99600000066664 Z" class="highcharts-point"></path><path fill="#90ed7d" d="M 12 364 A 4 4 0 1 1 11.999998000000167 363.99600000066664 Z" class="highcharts-point"></path><path fill="#90ed7d" d="M 12 362 A 4 4 0 1 1 11.999998000000167 361.99600000066664 Z" class="highcharts-point"></path><path fill="#90ed7d" d="M 12 363 A 4 4 0 1 1 11.999998000000167 362.99600000066664 Z" class="highcharts-point"></path><path fill="#90ed7d" d="M 13 359 A 4 4 0 1 1 12.999998000000167 358.99600000066664 Z" class="highcharts-point"></path><path fill="#90ed7d" d="M 13 362 A 4 4 0 1 1 12.999998000000167 361.99600000066664 Z" class="highcharts-point"></path><path fill="#90ed7d" d="M 13 364 A 4 4 0 1 1 12.999998000000167 363.99600000066664 Z" class="highcharts-point"></path><path fill="#90ed7d" d="M 13 363 A 4 4 0 1 1 12.999998000000167 362.99600000066664 Z" class="highcharts-point"></path><path fill="#90ed7d" d="M 13 363 A 4 4 0 1 1 12.999998000000167 362.99600000066664 Z" class="highcharts-point"></path><path fill="#90ed7d" d="M 13 359 A 4 4 0 1 1 12.999998000000167 358.99600000066664 Z" class="highcharts-point"></path><path fill="#90ed7d" d="M 13 363 A 4 4 0 1 1 12.999998000000167 362.99600000066664 Z" class="highcharts-point"></path><path fill="#90ed7d" d="M 13 364 A 4 4 0 1 1 12.999998000000167 363.99600000066664 Z" class="highcharts-point"></path><path fill="#90ed7d" d="M 13 364 A 4 4 0 1 1 12.999998000000167 363.99600000066664 Z" class="highcharts-point"></path><path fill="#90ed7d" d="M 13 364 A 4 4 0 1 1 12.999998000000167 363.99600000066664 Z" class="highcharts-point"></path><path fill="#90ed7d" d="M 13 364 A 4 4 0 1 1 12.999998000000167 363.99600000066664 Z" class="highcharts-point"></path><path fill="#90ed7d" d="M 13 365 A 4 4 0 1 1 12.999998000000167 364.99600000066664 Z" class="highcharts-point"></path><path fill="#90ed7d" d="M 13 370 A 4 4 0 1 1 12.999998000000167 369.99600000066664 Z" class="highcharts-point"></path><path fill="#90ed7d" d="M 58 364 A 4 4 0 1 1 57.99999800000017 363.99600000066664 Z" class="highcharts-point"></path><path fill="#90ed7d" d="M 104 355 A 4 4 0 1 1 103.99999800000016 354.99600000066664 Z" class="highcharts-point"></path></g><g data-z-index="0.1" class="highcharts-series highcharts-series-2 highcharts-scatter-series " transform="translate(64,57) scale(1 1)" clip-path="url(#highcharts-iz2yr1r-7357)"></g><g data-z-index="0.1" class="highcharts-markers highcharts-series-2 highcharts-scatter-series " transform="translate(64,57) scale(1 1)" clip-path="none"><path fill="#f7a35c" d="M 12 366 A 4 4 0 1 1 11.999998000000167 365.99600000066664 Z" class="highcharts-point"></path><path fill="#f7a35c" d="M 12 278 A 4 4 0 1 1 11.999998000000167 277.99600000066664 Z" class="highcharts-point"></path><path fill="#f7a35c" d="M 12 62 A 4 4 0 1 1 11.999998000000167 61.99600000066666 Z" class="highcharts-point"></path><path fill="#f7a35c" d="M 12 361 A 4 4 0 1 1 11.999998000000167 360.99600000066664 Z" class="highcharts-point"></path><path fill="#f7a35c" d="M 12 362 A 4 4 0 1 1 11.999998000000167 361.99600000066664 Z" class="highcharts-point"></path><path fill="#f7a35c" d="M 12 167 A 4 4 0 1 1 11.999998000000167 166.99600000066667 Z" class="highcharts-point"></path><path fill="#f7a35c" d="M 12 343 A 4 4 0 1 1 11.999998000000167 342.99600000066664 Z" class="highcharts-point"></path><path fill="#f7a35c" d="M 13 363 A 4 4 0 1 1 12.999998000000167 362.99600000066664 Z" class="highcharts-point"></path><path fill="#f7a35c" d="M 13 263 A 4 4 0 1 1 12.999998000000167 262.99600000066664 Z" class="highcharts-point"></path><path fill="#f7a35c" d="M 13 113 A 4 4 0 1 1 12.999998000000167 112.99600000066667 Z" class="highcharts-point"></path><path fill="#f7a35c" d="M 13 363 A 4 4 0 1 1 12.999998000000167 362.99600000066664 Z" class="highcharts-point"></path><path fill="#f7a35c" d="M 13 362 A 4 4 0 1 1 12.999998000000167 361.99600000066664 Z" class="highcharts-point"></path><path fill="#f7a35c" d="M 13 203 A 4 4 0 1 1 12.999998000000167 202.99600000066667 Z" class="highcharts-point"></path><path fill="#f7a35c" d="M 13 137 A 4 4 0 1 1 12.999998000000167 136.99600000066667 Z" class="highcharts-point"></path><path fill="#f7a35c" d="M 13 364 A 4 4 0 1 1 12.999998000000167 363.99600000066664 Z" class="highcharts-point"></path><path fill="#f7a35c" d="M 13 286 A 4 4 0 1 1 12.999998000000167 285.99600000066664 Z" class="highcharts-point"></path><path fill="#f7a35c" d="M 13 258 A 4 4 0 1 1 12.999998000000167 257.99600000066664 Z" class="highcharts-point"></path><path fill="#f7a35c" d="M 13 359 A 4 4 0 1 1 12.999998000000167 358.99600000066664 Z" class="highcharts-point"></path><path fill="#f7a35c" d="M 13 361 A 4 4 0 1 1 12.999998000000167 360.99600000066664 Z" class="highcharts-point"></path><path fill="#f7a35c" d="M 13 362 A 4 4 0 1 1 12.999998000000167 361.99600000066664 Z" class="highcharts-point"></path><path fill="#f7a35c" d="M 58 361 A 4 4 0 1 1 57.99999800000017 360.99600000066664 Z" class="highcharts-point"></path><path fill="#f7a35c" d="M 104 335 A 4 4 0 1 1 103.99999800000016 334.99600000066664 Z" class="highcharts-point"></path><path fill="#f7a35c" d="M 149 331 A 4 4 0 1 1 148.99999800000018 330.99600000066664 Z" class="highcharts-point"></path><path fill="#f7a35c" d="M 195 328 A 4 4 0 1 1 194.99999800000018 327.99600000066664 Z" class="highcharts-point"></path><path fill="#f7a35c" d="M 241 295 A 4 4 0 1 1 240.99999800000018 294.99600000066664 Z" class="highcharts-point"></path><path fill="#f7a35c" d="M 286 292 A 4 4 0 1 1 285.9999980000002 291.99600000066664 Z" class="highcharts-point"></path><path fill="#f7a35c" d="M 332 302 A 4 4 0 1 1 331.9999980000002 301.99600000066664 Z" class="highcharts-point"></path><path fill="#f7a35c" d="M 378 274 A 4 4 0 1 1 377.9999980000002 273.99600000066664 Z" class="highcharts-point"></path><path fill="#f7a35c" d="M 424 264 A 4 4 0 1 1 423.9999980000002 263.99600000066664 Z" class="highcharts-point"></path><path fill="#f7a35c" d="M 469 267 A 4 4 0 1 1 468.9999980000002 266.99600000066664 Z" class="highcharts-point"></path><path fill="#f7a35c" d="M 515 266 A 4 4 0 1 1 514.9999980000001 265.99600000066664 Z" class="highcharts-point"></path><path fill="#f7a35c" d="M 561 258 A 4 4 0 1 1 560.9999980000001 257.99600000066664 Z" class="highcharts-point"></path><path fill="#f7a35c" d="M 606 237 A 4 4 0 1 1 605.9999980000001 236.99600000066667 Z" class="highcharts-point"></path><path fill="#f7a35c" d="M 652 217 A 4 4 0 1 1 651.9999980000001 216.99600000066667 Z" class="highcharts-point"></path><path fill="#f7a35c" d="M 698 229 A 4 4 0 1 1 697.9999980000001 228.99600000066667 Z" class="highcharts-point"></path><path fill="#f7a35c" d="M 744 232 A 4 4 0 1 1 743.9999980000001 231.99600000066667 Z" class="highcharts-point"></path><path fill="#f7a35c" d="M 789 210 A 4 4 0 1 1 788.9999980000001 209.99600000066667 Z" class="highcharts-point"></path><path fill="#f7a35c" d="M 835 193 A 4 4 0 1 1 834.9999980000001 192.99600000066667 Z" class="highcharts-point"></path><path fill="#f7a35c" d="M 881 184 A 4 4 0 1 1 880.9999980000001 183.99600000066667 Z" class="highcharts-point"></path></g></g><text x="480" text-anchor="middle" class="highcharts-title" data-z-index="4" style="color:#333333;font-size:14;font-weight:normal;fill:#333333;" y="21"><tspan>ARIMA(2,1,2)</tspan></text><text x="480" text-anchor="middle" class="highcharts-subtitle" data-z-index="4" style="color:#666666;font-weight:normal;fill:#666666;" y="41"><tspan>R run time</tspan></text><g class="highcharts-legend" data-z-index="7" transform="translate(343,499)"><rect fill="none" class="highcharts-legend-box" rx="0" ry="0" x="0" y="0" width="273" height="26" visibility="visible"></rect><g data-z-index="1"><g><g class="highcharts-legend-item highcharts-scatter-series highcharts-color-undefined highcharts-series-0" data-z-index="1" transform="translate(8,3)"><path fill="none" d="M 0 11 L 16 11" class="highcharts-graph" stroke-dasharray="none"></path><path fill="#7cb5ec" d="M 12 11 A 4 4 0 1 1 11.999998000000167 10.996000000666664 Z" class="highcharts-point"></path><text x="21" style="color:#333333;cursor:pointer;font-size:12px;font-weight:bold;fill:#333333;" text-anchor="start" data-z-index="2" y="15"><tspan>forwardsub</tspan></text></g><g class="highcharts-legend-item highcharts-scatter-series highcharts-color-undefined highcharts-series-1" data-z-index="1" transform="translate(120.515625,3)"><path fill="none" d="M 0 11 L 16 11" class="highcharts-graph" stroke-dasharray="none"></path><path fill="#90ed7d" d="M 12 11 A 4 4 0 1 1 11.999998000000167 10.996000000666664 Z" class="highcharts-point"></path><text x="21" y="15" style="color:#333333;cursor:pointer;font-size:12px;font-weight:bold;fill:#333333;" text-anchor="start" data-z-index="2"><tspan>inverse</tspan></text></g><g class="highcharts-legend-item highcharts-scatter-series highcharts-color-undefined highcharts-series-2" data-z-index="1" transform="translate(206.71875,3)"><path fill="none" d="M 0 11 L 16 11" class="highcharts-graph" stroke-dasharray="none"></path><path fill="#f7a35c" d="M 12 11 A 4 4 0 1 1 11.999998000000167 10.996000000666664 Z" class="highcharts-point"></path><text x="21" y="15" style="color:#333333;cursor:pointer;font-size:12px;font-weight:bold;fill:#333333;" text-anchor="start" data-z-index="2"><tspan>jacobi</tspan></text></g></g></g></g><g class="highcharts-axis-labels highcharts-xaxis-labels " data-z-index="7"><text x="72.640554869245" style="color:#666666;cursor:default;font-size:11px;font-weight:normal;fill:#666666;" text-anchor="middle" transform="translate(0,0)" y="465" opacity="1">0</text><text x="164.07983598724" style="color:#666666;cursor:default;font-size:11px;font-weight:normal;fill:#666666;" text-anchor="middle" transform="translate(0,0)" y="465" opacity="1">100k</text><text x="255.51911710523" style="color:#666666;cursor:default;font-size:11px;font-weight:normal;fill:#666666;" text-anchor="middle" transform="translate(0,0)" y="465" opacity="1">200k</text><text x="346.95839822323" style="color:#666666;cursor:default;font-size:11px;font-weight:normal;fill:#666666;" text-anchor="middle" transform="translate(0,0)" y="465" opacity="1">300k</text><text x="438.39767934122" style="color:#666666;cursor:default;font-size:11px;font-weight:normal;fill:#666666;" text-anchor="middle" transform="translate(0,0)" y="465" opacity="1">400k</text><text x="529.83696045922" style="color:#666666;cursor:default;font-size:11px;font-weight:normal;fill:#666666;" text-anchor="middle" transform="translate(0,0)" y="465" opacity="1">500k</text><text x="621.27624157721" style="color:#666666;cursor:default;font-size:11px;font-weight:normal;fill:#666666;" text-anchor="middle" transform="translate(0,0)" y="465" opacity="1">600k</text><text x="712.71552269521" style="color:#666666;cursor:default;font-size:11px;font-weight:normal;fill:#666666;" text-anchor="middle" transform="translate(0,0)" y="465" opacity="1">700k</text><text x="804.1548038132" style="color:#666666;cursor:default;font-size:11px;font-weight:normal;fill:#666666;" text-anchor="middle" transform="translate(0,0)" y="465" opacity="1">800k</text><text x="895.5940849312" style="color:#666666;cursor:default;font-size:11px;font-weight:normal;fill:#666666;" text-anchor="middle" transform="translate(0,0)" y="465" opacity="1">900k</text></g><g class="highcharts-axis-labels highcharts-yaxis-labels " data-z-index="7"><text x="49" style="color:#666666;cursor:default;font-size:11px;font-weight:normal;fill:#666666;" text-anchor="end" transform="translate(0,0)" y="451" opacity="1">5</text><text x="49" style="color:#666666;cursor:default;font-size:11px;font-weight:normal;fill:#666666;" text-anchor="end" transform="translate(0,0)" y="373" opacity="1">10</text><text x="49" style="color:#666666;cursor:default;font-size:11px;font-weight:normal;fill:#666666;" text-anchor="end" transform="translate(0,0)" y="295" opacity="1">15</text><text x="49" style="color:#666666;cursor:default;font-size:11px;font-weight:normal;fill:#666666;" text-anchor="end" transform="translate(0,0)" y="217" opacity="1">20</text><text x="49" style="color:#666666;cursor:default;font-size:11px;font-weight:normal;fill:#666666;" text-anchor="end" transform="translate(0,0)" y="139" opacity="1">25</text><text x="49" style="color:#666666;cursor:default;font-size:11px;font-weight:normal;fill:#666666;" text-anchor="end" transform="translate(0,0)" y="62" opacity="1">30</text></g></svg>