<svg xmlns:xlink="http://www.w3.org/1999/xlink" version="1.1" class="highcharts-root" style="font-family:&quot;Lucida Grande&quot;, &quot;Lucida Sans Unicode&quot;, Arial, Helvetica, sans-serif;font-size:12px;" xmlns="http://www.w3.org/2000/svg" width="960" height="540" viewBox="0 0 960 540"><desc>Created with Highcharts 7.0.2</desc><defs><clipPath id="highcharts-iz2yr1r-3913"><rect x="0" y="0" width="872" height="389" fill="none"></rect></clipPath></defs><rect fill="#ffffff" class="highcharts-background" x="0" y="0" width="960" height="540" rx="0" ry="0"></rect><rect fill="none" class="highcharts-plot-background" x="78" y="57" width="872" height="389"></rect><g class="highcharts-pane-group" data-z-index="0"></g><g class="highcharts-grid highcharts-xaxis-grid " data-z-index="1"><path fill="none" stroke-dasharray="none" data-z-index="1" class="highcharts-grid-line" d="M 86.5 57 L 86.5 446" opacity="1"></path><path fill="none" stroke-dasharray="none" data-z-index="1" class="highcharts-grid-line" d="M 175.5 57 L 175.5 446" opacity="1"></path><path fill="none" stroke-dasharray="none" data-z-index="1" class="highcharts-grid-line" d="M 265.5 57 L 265.5 446" opacity="1"></path><path fill="none" stroke-dasharray="none" data-z-index="1" class="highcharts-grid-line" d="M 355.5 57 L 355.5 446" opacity="1"></path><path fill="none" stroke-dasharray="none" data-z-index="1" class="highcharts-grid-line" d="M 445.5 57 L 445.5 446" opacity="1"></path><path fill="none" stroke-dasharray="none" data-z-index="1" class="highcharts-grid-line" d="M 535.5 57 L 535.5 446" opacity="1"></path><path fill="none" stroke-dasharray="none" data-z-index="1" class="highcharts-grid-line" d="M 625.5 57 L 625.5 446" opacity="1"></path><path fill="none" stroke-dasharray="none" data-z-index="1" class="highcharts-grid-line" d="M 715.5 57 L 715.5 446" opacity="1"></path><path fill="none" stroke-dasharray="none" data-z-index="1" class="highcharts-grid-line" d="M 805.5 57 L 805.5 446" opacity="1"></path><path fill="none" stroke-dasharray="none" data-z-index="1" class="highcharts-grid-line" d="M 895.5 57 L 895.5 446" opacity="1"></path></g><g class="highcharts-grid highcharts-yaxis-grid " data-z-index="1"><path fill="none" stroke="#e6e6e6" stroke-width="1" stroke-dasharray="none" data-z-index="1" class="highcharts-grid-line" d="M 78 446.5 L 950 446.5" opacity="1"></path><path fill="none" stroke="#e6e6e6" stroke-width="1" stroke-dasharray="none" data-z-index="1" class="highcharts-grid-line" d="M 78 368.5 L 950 368.5" opacity="1"></path><path fill="none" stroke="#e6e6e6" stroke-width="1" stroke-dasharray="none" data-z-index="1" class="highcharts-grid-line" d="M 78 290.5 L 950 290.5" opacity="1"></path><path fill="none" stroke="#e6e6e6" stroke-width="1" stroke-dasharray="none" data-z-index="1" class="highcharts-grid-line" d="M 78 213.5 L 950 213.5" opacity="1"></path><path fill="none" stroke="#e6e6e6" stroke-width="1" stroke-dasharray="none" data-z-index="1" class="highcharts-grid-line" d="M 78 135.5 L 950 135.5" opacity="1"></path><path fill="none" stroke="#e6e6e6" stroke-width="1" stroke-dasharray="none" data-z-index="1" class="highcharts-grid-line" d="M 78 56.5 L 950 56.5" opacity="1"></path></g><rect fill="none" class="highcharts-plot-border" data-z-index="1" x="78" y="57" width="872" height="389"></rect><g class="highcharts-axis highcharts-xaxis " data-z-index="2"><path fill="none" class="highcharts-tick" stroke="#ccd6eb" stroke-width="1" d="M 86.5 446 L 86.5 456" opacity="1"></path><path fill="none" class="highcharts-tick" stroke="#ccd6eb" stroke-width="1" d="M 175.5 446 L 175.5 456" opacity="1"></path><path fill="none" class="highcharts-tick" stroke="#ccd6eb" stroke-width="1" d="M 265.5 446 L 265.5 456" opacity="1"></path><path fill="none" class="highcharts-tick" stroke="#ccd6eb" stroke-width="1" d="M 355.5 446 L 355.5 456" opacity="1"></path><path fill="none" class="highcharts-tick" stroke="#ccd6eb" stroke-width="1" d="M 445.5 446 L 445.5 456" opacity="1"></path><path fill="none" class="highcharts-tick" stroke="#ccd6eb" stroke-width="1" d="M 535.5 446 L 535.5 456" opacity="1"></path><path fill="none" class="highcharts-tick" stroke="#ccd6eb" stroke-width="1" d="M 625.5 446 L 625.5 456" opacity="1"></path><path fill="none" class="highcharts-tick" stroke="#ccd6eb" stroke-width="1" d="M 715.5 446 L 715.5 456" opacity="1"></path><path fill="none" class="highcharts-tick" stroke="#ccd6eb" stroke-width="1" d="M 805.5 446 L 805.5 456" opacity="1"></path><path fill="none" class="highcharts-tick" stroke="#ccd6eb" stroke-width="1" d="M 895.5 446 L 895.5 456" opacity="1"></path><text x="514" data-z-index="7" text-anchor="middle" transform="translate(0,0)" class="highcharts-axis-title" style="color:#666666;font-weight:normal;fill:#666666;" y="484"><tspan>Xsize</tspan></text><path fill="none" class="highcharts-axis-line" stroke="#ccd6eb" stroke-width="1" data-z-index="7" d="M 78 446.5 L 950 446.5"></path></g><g class="highcharts-axis highcharts-yaxis " data-z-index="2"><text x="25.1875" data-z-index="7" text-anchor="middle" transform="translate(0,0) rotate(270 25.1875 251.5)" class="highcharts-axis-title" style="color:#666666;font-weight:normal;fill:#666666;" y="251.5"><tspan>dml_execution_time</tspan></text><path fill="none" class="highcharts-axis-line" data-z-index="7" d="M 78 57 L 78 446"></path></g><g class="highcharts-series-group" data-z-index="3"><g data-z-index="0.1" class="highcharts-series highcharts-series-0 highcharts-scatter-series " transform="translate(78,57) scale(1 1)" clip-path="url(#highcharts-iz2yr1r-3913)"></g><g data-z-index="0.1" class="highcharts-markers highcharts-series-0 highcharts-scatter-series " transform="translate(78,57) scale(1 1)" clip-path="none"><path fill="#7cb5ec" d="M 12 389 A 4 4 0 1 1 11.999998000000167 388.99600000066664 Z" class="highcharts-point"></path><path fill="#7cb5ec" d="M 12 389 A 4 4 0 1 1 11.999998000000167 388.99600000066664 Z" class="highcharts-point"></path><path fill="#7cb5ec" d="M 12 389 A 4 4 0 1 1 11.999998000000167 388.99600000066664 Z" class="highcharts-point"></path><path fill="#7cb5ec" d="M 12 389 A 4 4 0 1 1 11.999998000000167 388.99600000066664 Z" class="highcharts-point"></path><path fill="#7cb5ec" d="M 12 389 A 4 4 0 1 1 11.999998000000167 388.99600000066664 Z" class="highcharts-point"></path><path fill="#7cb5ec" d="M 12 389 A 4 4 0 1 1 11.999998000000167 388.99600000066664 Z" class="highcharts-point"></path><path fill="#7cb5ec" d="M 12 389 A 4 4 0 1 1 11.999998000000167 388.99600000066664 Z" class="highcharts-point"></path><path fill="#7cb5ec" d="M 12 388 A 4 4 0 1 1 11.999998000000167 387.99600000066664 Z" class="highcharts-point"></path><path fill="#7cb5ec" d="M 12 389 A 4 4 0 1 1 11.999998000000167 388.99600000066664 Z" class="highcharts-point"></path><path fill="#7cb5ec" d="M 12 389 A 4 4 0 1 1 11.999998000000167 388.99600000066664 Z" class="highcharts-point"></path><path fill="#7cb5ec" d="M 12 388 A 4 4 0 1 1 11.999998000000167 387.99600000066664 Z" class="highcharts-point"></path><path fill="#7cb5ec" d="M 13 388 A 4 4 0 1 1 12.999998000000167 387.99600000066664 Z" class="highcharts-point"></path><path fill="#7cb5ec" d="M 13 389 A 4 4 0 1 1 12.999998000000167 388.99600000066664 Z" class="highcharts-point"></path><path fill="#7cb5ec" d="M 13 389 A 4 4 0 1 1 12.999998000000167 388.99600000066664 Z" class="highcharts-point"></path><path fill="#7cb5ec" d="M 13 389 A 4 4 0 1 1 12.999998000000167 388.99600000066664 Z" class="highcharts-point"></path><path fill="#7cb5ec" d="M 13 389 A 4 4 0 1 1 12.999998000000167 388.99600000066664 Z" class="highcharts-point"></path><path fill="#7cb5ec" d="M 13 389 A 4 4 0 1 1 12.999998000000167 388.99600000066664 Z" class="highcharts-point"></path><path fill="#7cb5ec" d="M 13 389 A 4 4 0 1 1 12.999998000000167 388.99600000066664 Z" class="highcharts-point"></path><path fill="#7cb5ec" d="M 13 389 A 4 4 0 1 1 12.999998000000167 388.99600000066664 Z" class="highcharts-point"></path><path fill="#7cb5ec" d="M 13 389 A 4 4 0 1 1 12.999998000000167 388.99600000066664 Z" class="highcharts-point"></path><path fill="#7cb5ec" d="M 57 387 A 4 4 0 1 1 56.99999800000017 386.99600000066664 Z" class="highcharts-point"></path><path fill="#7cb5ec" d="M 102 382 A 4 4 0 1 1 101.99999800000016 381.99600000066664 Z" class="highcharts-point"></path><path fill="#7cb5ec" d="M 147 355 A 4 4 0 1 1 146.99999800000018 354.99600000066664 Z" class="highcharts-point"></path><path fill="#7cb5ec" d="M 192 353 A 4 4 0 1 1 191.99999800000018 352.99600000066664 Z" class="highcharts-point"></path><path fill="#7cb5ec" d="M 237 351 A 4 4 0 1 1 236.99999800000018 350.99600000066664 Z" class="highcharts-point"></path><path fill="#7cb5ec" d="M 282 353 A 4 4 0 1 1 281.9999980000002 352.99600000066664 Z" class="highcharts-point"></path><path fill="#7cb5ec" d="M 327 349 A 4 4 0 1 1 326.9999980000002 348.99600000066664 Z" class="highcharts-point"></path><path fill="#7cb5ec" d="M 372 348 A 4 4 0 1 1 371.9999980000002 347.99600000066664 Z" class="highcharts-point"></path><path fill="#7cb5ec" d="M 417 350 A 4 4 0 1 1 416.9999980000002 349.99600000066664 Z" class="highcharts-point"></path><path fill="#7cb5ec" d="M 462 348 A 4 4 0 1 1 461.9999980000002 347.99600000066664 Z" class="highcharts-point"></path><path fill="#7cb5ec" d="M 507 344 A 4 4 0 1 1 506.9999980000002 343.99600000066664 Z" class="highcharts-point"></path><path fill="#7cb5ec" d="M 552 346 A 4 4 0 1 1 551.9999980000001 345.99600000066664 Z" class="highcharts-point"></path><path fill="#7cb5ec" d="M 597 343 A 4 4 0 1 1 596.9999980000001 342.99600000066664 Z" class="highcharts-point"></path><path fill="#7cb5ec" d="M 642 341 A 4 4 0 1 1 641.9999980000001 340.99600000066664 Z" class="highcharts-point"></path><path fill="#7cb5ec" d="M 687 342 A 4 4 0 1 1 686.9999980000001 341.99600000066664 Z" class="highcharts-point"></path><path fill="#7cb5ec" d="M 732 169 A 4 4 0 1 1 731.9999980000001 168.99600000066667 Z" class="highcharts-point"></path><path fill="#7cb5ec" d="M 822 314 A 4 4 0 1 1 821.9999980000001 313.99600000066664 Z" class="highcharts-point"></path><path fill="#7cb5ec" d="M 867 38 A 4 4 0 1 1 866.9999980000001 37.99600000066666 Z" class="highcharts-point"></path></g><g data-z-index="0.1" class="highcharts-series highcharts-series-1 highcharts-scatter-series " transform="translate(78,57) scale(1 1)" clip-path="url(#highcharts-iz2yr1r-3913)"></g><g data-z-index="0.1" class="highcharts-markers highcharts-series-1 highcharts-scatter-series " transform="translate(78,57) scale(1 1)" clip-path="none"><path fill="#90ed7d" d="M 12 389 A 4 4 0 1 1 11.999998000000167 388.99600000066664 Z" class="highcharts-point"></path><path fill="#90ed7d" d="M 12 389 A 4 4 0 1 1 11.999998000000167 388.99600000066664 Z" class="highcharts-point"></path><path fill="#90ed7d" d="M 12 389 A 4 4 0 1 1 11.999998000000167 388.99600000066664 Z" class="highcharts-point"></path><path fill="#90ed7d" d="M 12 389 A 4 4 0 1 1 11.999998000000167 388.99600000066664 Z" class="highcharts-point"></path><path fill="#90ed7d" d="M 12 389 A 4 4 0 1 1 11.999998000000167 388.99600000066664 Z" class="highcharts-point"></path><path fill="#90ed7d" d="M 12 389 A 4 4 0 1 1 11.999998000000167 388.99600000066664 Z" class="highcharts-point"></path><path fill="#90ed7d" d="M 12 389 A 4 4 0 1 1 11.999998000000167 388.99600000066664 Z" class="highcharts-point"></path><path fill="#90ed7d" d="M 12 389 A 4 4 0 1 1 11.999998000000167 388.99600000066664 Z" class="highcharts-point"></path><path fill="#90ed7d" d="M 12 389 A 4 4 0 1 1 11.999998000000167 388.99600000066664 Z" class="highcharts-point"></path><path fill="#90ed7d" d="M 12 389 A 4 4 0 1 1 11.999998000000167 388.99600000066664 Z" class="highcharts-point"></path><path fill="#90ed7d" d="M 12 389 A 4 4 0 1 1 11.999998000000167 388.99600000066664 Z" class="highcharts-point"></path><path fill="#90ed7d" d="M 13 389 A 4 4 0 1 1 12.999998000000167 388.99600000066664 Z" class="highcharts-point"></path><path fill="#90ed7d" d="M 13 388 A 4 4 0 1 1 12.999998000000167 387.99600000066664 Z" class="highcharts-point"></path><path fill="#90ed7d" d="M 13 388 A 4 4 0 1 1 12.999998000000167 387.99600000066664 Z" class="highcharts-point"></path><path fill="#90ed7d" d="M 13 388 A 4 4 0 1 1 12.999998000000167 387.99600000066664 Z" class="highcharts-point"></path><path fill="#90ed7d" d="M 13 388 A 4 4 0 1 1 12.999998000000167 387.99600000066664 Z" class="highcharts-point"></path><path fill="#90ed7d" d="M 13 388 A 4 4 0 1 1 12.999998000000167 387.99600000066664 Z" class="highcharts-point"></path><path fill="#90ed7d" d="M 13 388 A 4 4 0 1 1 12.999998000000167 387.99600000066664 Z" class="highcharts-point"></path><path fill="#90ed7d" d="M 13 388 A 4 4 0 1 1 12.999998000000167 387.99600000066664 Z" class="highcharts-point"></path><path fill="#90ed7d" d="M 13 388 A 4 4 0 1 1 12.999998000000167 387.99600000066664 Z" class="highcharts-point"></path><path fill="#90ed7d" d="M 57 374 A 4 4 0 1 1 56.99999800000017 373.99600000066664 Z" class="highcharts-point"></path><path fill="#90ed7d" d="M 102 348 A 4 4 0 1 1 101.99999800000016 347.99600000066664 Z" class="highcharts-point"></path></g><g data-z-index="0.1" class="highcharts-series highcharts-series-2 highcharts-scatter-series " transform="translate(78,57) scale(1 1)" clip-path="url(#highcharts-iz2yr1r-3913)"></g><g data-z-index="0.1" class="highcharts-markers highcharts-series-2 highcharts-scatter-series " transform="translate(78,57) scale(1 1)" clip-path="none"><path fill="#f7a35c" d="M 12 389 A 4 4 0 1 1 11.999998000000167 388.99600000066664 Z" class="highcharts-point"></path><path fill="#f7a35c" d="M 12 389 A 4 4 0 1 1 11.999998000000167 388.99600000066664 Z" class="highcharts-point"></path><path fill="#f7a35c" d="M 12 388 A 4 4 0 1 1 11.999998000000167 387.99600000066664 Z" class="highcharts-point"></path><path fill="#f7a35c" d="M 12 389 A 4 4 0 1 1 11.999998000000167 388.99600000066664 Z" class="highcharts-point"></path><path fill="#f7a35c" d="M 12 389 A 4 4 0 1 1 11.999998000000167 388.99600000066664 Z" class="highcharts-point"></path><path fill="#f7a35c" d="M 12 388 A 4 4 0 1 1 11.999998000000167 387.99600000066664 Z" class="highcharts-point"></path><path fill="#f7a35c" d="M 12 389 A 4 4 0 1 1 11.999998000000167 388.99600000066664 Z" class="highcharts-point"></path><path fill="#f7a35c" d="M 12 389 A 4 4 0 1 1 11.999998000000167 388.99600000066664 Z" class="highcharts-point"></path><path fill="#f7a35c" d="M 12 389 A 4 4 0 1 1 11.999998000000167 388.99600000066664 Z" class="highcharts-point"></path><path fill="#f7a35c" d="M 12 388 A 4 4 0 1 1 11.999998000000167 387.99600000066664 Z" class="highcharts-point"></path><path fill="#f7a35c" d="M 12 389 A 4 4 0 1 1 11.999998000000167 388.99600000066664 Z" class="highcharts-point"></path><path fill="#f7a35c" d="M 13 389 A 4 4 0 1 1 12.999998000000167 388.99600000066664 Z" class="highcharts-point"></path><path fill="#f7a35c" d="M 13 389 A 4 4 0 1 1 12.999998000000167 388.99600000066664 Z" class="highcharts-point"></path><path fill="#f7a35c" d="M 13 387 A 4 4 0 1 1 12.999998000000167 386.99600000066664 Z" class="highcharts-point"></path><path fill="#f7a35c" d="M 13 389 A 4 4 0 1 1 12.999998000000167 388.99600000066664 Z" class="highcharts-point"></path><path fill="#f7a35c" d="M 13 389 A 4 4 0 1 1 12.999998000000167 388.99600000066664 Z" class="highcharts-point"></path><path fill="#f7a35c" d="M 13 388 A 4 4 0 1 1 12.999998000000167 387.99600000066664 Z" class="highcharts-point"></path><path fill="#f7a35c" d="M 13 389 A 4 4 0 1 1 12.999998000000167 388.99600000066664 Z" class="highcharts-point"></path><path fill="#f7a35c" d="M 13 389 A 4 4 0 1 1 12.999998000000167 388.99600000066664 Z" class="highcharts-point"></path><path fill="#f7a35c" d="M 13 389 A 4 4 0 1 1 12.999998000000167 388.99600000066664 Z" class="highcharts-point"></path><path fill="#f7a35c" d="M 57 387 A 4 4 0 1 1 56.99999800000017 386.99600000066664 Z" class="highcharts-point"></path><path fill="#f7a35c" d="M 102 382 A 4 4 0 1 1 101.99999800000016 381.99600000066664 Z" class="highcharts-point"></path><path fill="#f7a35c" d="M 147 351 A 4 4 0 1 1 146.99999800000018 350.99600000066664 Z" class="highcharts-point"></path><path fill="#f7a35c" d="M 192 351 A 4 4 0 1 1 191.99999800000018 350.99600000066664 Z" class="highcharts-point"></path><path fill="#f7a35c" d="M 237 354 A 4 4 0 1 1 236.99999800000018 353.99600000066664 Z" class="highcharts-point"></path><path fill="#f7a35c" d="M 282 351 A 4 4 0 1 1 281.9999980000002 350.99600000066664 Z" class="highcharts-point"></path><path fill="#f7a35c" d="M 327 352 A 4 4 0 1 1 326.9999980000002 351.99600000066664 Z" class="highcharts-point"></path><path fill="#f7a35c" d="M 372 350 A 4 4 0 1 1 371.9999980000002 349.99600000066664 Z" class="highcharts-point"></path><path fill="#f7a35c" d="M 417 350 A 4 4 0 1 1 416.9999980000002 349.99600000066664 Z" class="highcharts-point"></path><path fill="#f7a35c" d="M 462 352 A 4 4 0 1 1 461.9999980000002 351.99600000066664 Z" class="highcharts-point"></path><path fill="#f7a35c" d="M 507 350 A 4 4 0 1 1 506.9999980000002 349.99600000066664 Z" class="highcharts-point"></path><path fill="#f7a35c" d="M 552 351 A 4 4 0 1 1 551.9999980000001 350.99600000066664 Z" class="highcharts-point"></path><path fill="#f7a35c" d="M 597 350 A 4 4 0 1 1 596.9999980000001 349.99600000066664 Z" class="highcharts-point"></path><path fill="#f7a35c" d="M 642 346 A 4 4 0 1 1 641.9999980000001 345.99600000066664 Z" class="highcharts-point"></path><path fill="#f7a35c" d="M 687 350 A 4 4 0 1 1 686.9999980000001 349.99600000066664 Z" class="highcharts-point"></path><path fill="#f7a35c" d="M 732 347 A 4 4 0 1 1 731.9999980000001 346.99600000066664 Z" class="highcharts-point"></path><path fill="#f7a35c" d="M 777 346 A 4 4 0 1 1 776.9999980000001 345.99600000066664 Z" class="highcharts-point"></path><path fill="#f7a35c" d="M 822 346 A 4 4 0 1 1 821.9999980000001 345.99600000066664 Z" class="highcharts-point"></path><path fill="#f7a35c" d="M 867 343 A 4 4 0 1 1 866.9999980000001 342.99600000066664 Z" class="highcharts-point"></path></g></g><text x="480" text-anchor="middle" class="highcharts-title" data-z-index="4" style="color:#333333;font-size:14;font-weight:normal;fill:#333333;" y="21"><tspan>ARIMA(2,1,2)</tspan></text><text x="480" text-anchor="middle" class="highcharts-subtitle" data-z-index="4" style="color:#666666;font-weight:normal;fill:#666666;" y="41"><tspan>DML execution time</tspan></text><g class="highcharts-legend" data-z-index="7" transform="translate(343,499)"><rect fill="none" class="highcharts-legend-box" rx="0" ry="0" x="0" y="0" width="273" height="26" visibility="visible"></rect><g data-z-index="1"><g><g class="highcharts-legend-item highcharts-scatter-series highcharts-color-undefined highcharts-series-0" data-z-index="1" transform="translate(8,3)"><path fill="none" d="M 0 11 L 16 11" class="highcharts-graph" stroke-dasharray="none"></path><path fill="#7cb5ec" d="M 12 11 A 4 4 0 1 1 11.999998000000167 10.996000000666664 Z" class="highcharts-point"></path><text x="21" style="color:#333333;cursor:pointer;font-size:12px;font-weight:bold;fill:#333333;" text-anchor="start" data-z-index="2" y="15"><tspan>forwardsub</tspan></text></g><g class="highcharts-legend-item highcharts-scatter-series highcharts-color-undefined highcharts-series-1" data-z-index="1" transform="translate(120.515625,3)"><path fill="none" d="M 0 11 L 16 11" class="highcharts-graph" stroke-dasharray="none"></path><path fill="#90ed7d" d="M 12 11 A 4 4 0 1 1 11.999998000000167 10.996000000666664 Z" class="highcharts-point"></path><text x="21" y="15" style="color:#333333;cursor:pointer;font-size:12px;font-weight:bold;fill:#333333;" text-anchor="start" data-z-index="2"><tspan>inverse</tspan></text></g><g class="highcharts-legend-item highcharts-scatter-series highcharts-color-undefined highcharts-series-2" data-z-index="1" transform="translate(206.71875,3)"><path fill="none" d="M 0 11 L 16 11" class="highcharts-graph" stroke-dasharray="none"></path><path fill="#f7a35c" d="M 12 11 A 4 4 0 1 1 11.999998000000167 10.996000000666664 Z" class="highcharts-point"></path><text x="21" y="15" style="color:#333333;cursor:pointer;font-size:12px;font-weight:bold;fill:#333333;" text-anchor="start" data-z-index="2"><tspan>jacobi</tspan></text></g></g></g></g><g class="highcharts-axis-labels highcharts-xaxis-labels " data-z-index="7"><text x="86.504022399528" style="color:#666666;cursor:default;font-size:11px;font-weight:normal;fill:#666666;" text-anchor="middle" transform="translate(0,0)" y="465" opacity="1">0</text><text x="176.49843903033" style="color:#666666;cursor:default;font-size:11px;font-weight:normal;fill:#666666;" text-anchor="middle" transform="translate(0,0)" y="465" opacity="1">100k</text><text x="266.49285566113" style="color:#666666;cursor:default;font-size:11px;font-weight:normal;fill:#666666;" text-anchor="middle" transform="translate(0,0)" y="465" opacity="1">200k</text><text x="356.48727229194" style="color:#666666;cursor:default;font-size:11px;font-weight:normal;fill:#666666;" text-anchor="middle" transform="translate(0,0)" y="465" opacity="1">300k</text><text x="446.48168892274" style="color:#666666;cursor:default;font-size:11px;font-weight:normal;fill:#666666;" text-anchor="middle" transform="translate(0,0)" y="465" opacity="1">400k</text><text x="536.47610555354" style="color:#666666;cursor:default;font-size:11px;font-weight:normal;fill:#666666;" text-anchor="middle" transform="translate(0,0)" y="465" opacity="1">500k</text><text x="626.47052218435" style="color:#666666;cursor:default;font-size:11px;font-weight:normal;fill:#666666;" text-anchor="middle" transform="translate(0,0)" y="465" opacity="1">600k</text><text x="716.46493881515" style="color:#666666;cursor:default;font-size:11px;font-weight:normal;fill:#666666;" text-anchor="middle" transform="translate(0,0)" y="465" opacity="1">700k</text><text x="806.45935544595" style="color:#666666;cursor:default;font-size:11px;font-weight:normal;fill:#666666;" text-anchor="middle" transform="translate(0,0)" y="465" opacity="1">800k</text><text x="896.45377207676" style="color:#666666;cursor:default;font-size:11px;font-weight:normal;fill:#666666;" text-anchor="middle" transform="translate(0,0)" y="465" opacity="1">900k</text></g><g class="highcharts-axis-labels highcharts-yaxis-labels " data-z-index="7"><text x="63" style="color:#666666;cursor:default;font-size:11px;font-weight:normal;fill:#666666;" text-anchor="end" transform="translate(0,0)" y="451" opacity="1">0</text><text x="63" style="color:#666666;cursor:default;font-size:11px;font-weight:normal;fill:#666666;" text-anchor="end" transform="translate(0,0)" y="373" opacity="1">200</text><text x="63" style="color:#666666;cursor:default;font-size:11px;font-weight:normal;fill:#666666;" text-anchor="end" transform="translate(0,0)" y="295" opacity="1">400</text><text x="63" style="color:#666666;cursor:default;font-size:11px;font-weight:normal;fill:#666666;" text-anchor="end" transform="translate(0,0)" y="217" opacity="1">600</text><text x="63" style="color:#666666;cursor:default;font-size:11px;font-weight:normal;fill:#666666;" text-anchor="end" transform="translate(0,0)" y="139" opacity="1">800</text><text x="63" style="color:#666666;cursor:default;font-size:11px;font-weight:normal;fill:#666666;" text-anchor="end" transform="translate(0,0)" y="62" opacity="1">1000</text></g></svg>